<mxfile host="app.diagrams.net" modified="2023-12-02T16:36:41.667Z" agent="Mozilla/5.0 (Windows NT 10.0; Win64; x64) AppleWebKit/537.36 (KHTML, like Gecko) Chrome/119.0.0.0 Safari/537.36" etag="r5ZGb5fmmikgOIarn7hy" version="22.1.5" type="device">
  <diagram name="Page-1" id="m5pj7EC0ZCwTol7Dx0hc">
    <mxGraphModel dx="988" dy="533" grid="1" gridSize="10" guides="1" tooltips="1" connect="1" arrows="1" fold="1" page="1" pageScale="1" pageWidth="827" pageHeight="1169" math="0" shadow="0">
      <root>
        <mxCell id="0" />
        <mxCell id="1" parent="0" />
        <mxCell id="ZZgn1tA-toSKhas2N05g-1" value="" style="shape=image;verticalLabelPosition=bottom;labelBackgroundColor=default;verticalAlign=top;aspect=fixed;imageAspect=0;image=data:image/png,iVBORw0KGgoAAAANSUhEUgAAAgAAAAIACAYAAAD0eNT6AAAAAXNSR0IArs4c6QAAIABJREFUeAHsfQd4lFXW/yEJJJAeIJ0SCCX0jvQWqnSkhl4DoRN6CAmdUKRX0V0V0UVBwLKW1bWga8UOImJDQIpIFb//9+35P2c2445jypRz33nLyfPkmclk5s69v1N+57ZzAORHEBAErIJAKQAYDACPAcApALiV/0vP6bVBAEDvkR9BQBAQBAQBQUAQMAkCAwDgawDAYn7PAEB/k4xZhiEICAKCgCAgCFgWAX8AWF8M6RcUFKwDAD/LoiYDFwQEAUFAEBAEDI6AJ+RvDwjWGnzs0n1BQBAQBAQBQcCSCNCyv53MPX3sa0nkZNCCgCAgCAgCgoBBEaDDfLSf7ynx2z93Vg4GGlQDpNuCgCAgCAgClkSATvvbSdzbx4GWRFAGLQgIAoKAICAIGBCBA4wBwKMGHL90WRAQBAQBQUAQsCQCpxkDAMoTID+CgCAgCAgCgoAgYAAEbjIGANSW/AgCgoAgIAgIAoKAARDwdt/f+fMGGLJ0URAQBAQBQUAQEAScCdzbvwVRQUAQEAQEAUFAEDAAAt4SvvPnDTBk6aIgIAgIAoKAICAIOBO4t38LooKAICAICAKCgCBgAAS8JXznzxtgyNJFQUAQEAQEAUFAEHAmcG//FkQFAUFAEBAEBAFBwAAIeEv4zp83wJCli4KAICAICAKCgCDgTODe/i2ICgKCgCAgCAgCgoABEPCW8J0/b4AhSxcFAUFAEBAEBAFBwJnAvf1bEBUEBAFBQBAQBAQBHyAQCAAJAFAHAFoDQE8AGA4A0wBgCQBsAIB9AHAIAF5hTANsDxyoTWqbvoO+i76Tvpv6QH2hPtXO7yP1VX4EAUFAEBAEBAFBoBgESgFAPAA0BgAqvTsDANYAwN8A4E0A+BoA/k8BqdvJXcXjzwDwOQC8BAC7ASAHACYCQGp+oBBcDCbyb0FAEBAEBAFBwBQI+ANAcv5seS4APAAAbwHABYMRO1ew8G8AOA8Ax/OxIExoJaEqABBW8iMICAKCgCAgCBgKAZrNNwSAIQCwLH8W/wkA3LUo0XsSMBBWHwPAEwCQm49lAwAgbOVHEBAEBAFBQBDwOQI0U6V975EAsDl/uf5XIXrwhPRd+cz/y99WeDh/m4TOHUhQ4HMzkA4IAoKAIGB+BGifvlf+fvYxAKB9bleIS96jDqdb+YEXBWAUiFFAVsL8qigjFAQEAUFAEFCFAJEInbink+50+v2KkL1hgh2SFcmMZCcBgSoLkXYFAUFAEDARAlXyT6rTEvMPQviGIfziVlgu5Z/FoNsVdNNCVghMZLQyFEFAEBAEPEGgIgCMA4BHAOBHIXzTEH5xAcE5AKAgbywAVPBEceQzgoAgIAgIAsZDgJaE5+fvG9NVtOLIQv5vfowoXwHlXaBDhbI6YDyblh4LAoKAIFAgAnRSnxw7HRL7XghfAp5idOC7/MRFdNhTMhoWaFLyoiAgCAgC+kUgMj+jHi3z/lKMw5cZvvln+J7K+DYA0G0PymAYrV91l54JAoKAIGBtBILyr+hR+tzfhPRlps+sA/+bn9aYrhpKGmNr+xoZvSAgCOgAAb/85X3KNX+d2eF7OmuUz5l/ReFO/q0C2iYI0IEdSBcEAUFAELAMAnSQjw5tUS55IVzBwJc6QLdH6HwJnTORH0FAEBAEBAEFCFAWvsUA8IWQvgQ9OtUBuk2wKL+yowITkCYFAUFAELAWAjSzon39/9Gp0/fl7FO+W5+rH3RegA4PUuljuVZoLX8loxUEBAEvEQjPP3n9qZC+zPYNrgOn8/NOlPXSJuTjgoAgIAiYGgFK00oH+qjAi8xuBQMz6QBViaSVrFamtmAZnCAgCAgCbiBAyVbGAMC7QvoS9FhEB94BgNGSaMgNLyFvFQQEAVMhQMv8lJL3gkWcvtez2aCAAIwLDcNaMbHYqlIV7JlSB0c2aobTW7XDpandcXOvAfjXQcPx6KiJXn+Xs0yoTWqbvoO+i76Tvpv6QH2hPlHfAgMC2L/buS8m+ptuscwDgDBTWbYMRhAQBASBQhCgjGo5APCziRw5C+lFlC6NKdEx2LFqdRzb5B5c3uVe3DtgKD4zehJ+PnsR3lq2Hu8s3+DSLze2rn4vve/8ohV4fPIsfDJtLG7rMxDntOmI/evUxxYVkzApsiz6lSjBghf3GH3Y3o38q4QJhdiMvCwICAKCgKERqJa/v3/Xh47W58RDM+R6cQk4sG5DzEntgQeGjsYT0+fj1ew1LhG7q0TMjbGr3+vK+2isH06fZxs7rSYQFnVj42X1AIDOCewCgGRDW7p0XhAQBASBfASa5B9++j9uUtJzewF+fjZSG1TvP0T/+NDR+MnMhXgzdx0r0RdGuNzYFPY9nK/fyF2HH89Y8IfAoE5sHBKW3OPReXt0jfAJAGgkXkQQEAQEASMi0CI/d7olnHdCWDj2q10PV3XthS+Nz8Ar2as1IfrCCJib4Ar7Hi1ev7xkNb44LgNXdu2JfWrVxfiwcEvoVL4MXwCAe4zoAKTPgoAgYD0EauXP+P/NTUJ6aS+4VCnbfvaUFm1se/RfzF7sU7IviIS5sSroO3z52tl5S21nDBZ36ILda9TC8KDSZg8KXgKAhtZzJzJiQUAQMAIClfL3+Gn50lTO2N/PDxvGJ9oOs9GBvF9y8nRH+M5kzC0D5/b19jdtrdDBQzo4SYcoTXobgbbRKJcAnaeRH0FAEBAEfI4AnVymYiimOtxHp9XpJP6jg0fixcUrdU/4zoRstQDAefy0BUPBGt1AoOCthLluHlBabEqYJbcGfO7+pAOCgDURoNSm6wCASqMafsYfWboMpjVogg8NTMNv5+cYjvCdCZBbJs7tG+3vb+bn4IP3peGwBo2Rrlty4+Oj9sj28gBA0gxb0wfLqAUBzREIyq/Kd91HTo/NedPBvUnNW+GzY9KRTqAbjdSK6i+3bIr6LqP973pOnm11YGKzVmY5UPhLfhVCsk35EQQEAUFACQK9AOBrbnLRsj1a2qfDey+Pn4q33UisYzSS48bUaON3p78fTJuLdJiwZvkYtuCSG38X2/seAEYqsXxpVBAQBCyLQAoAvOiiE9KdE02JjrUl3aHkM+4Qg5Hfyy0rI2PhTt8pGKDkRJSRkRtDDdv7OwDUtKy3koELAoIACwIh+Wl7f9PQebE4XtrnpUN8NNN3hwDM8l5ueZkFF3fGQcEAHSIsHxzCopPcMimmPTooSIdzqeaG/AgCgoAg4DICJfKXEi8W42R05Rjp6hfdCaeT+0a4qucOGbn7Xm65ufv9Zno/XTGkGwV0gLB0yZK60nkX5HwFAGYAgJ/L1i9vFAQEAcsiQFnHDFWat3mFyrYqdVSExkzE481YXCAGt4jMm76Y6bM/LlqO9/fsj00TK7qFH7c8PGjvXwDQzLJeTQYuCAgCRSJAy/1bAcAQOftDSgXihGYt8YNp1tnXd4dIPSCIIgnNne+2ynvfnzoXxzVtgZQZkhtvRe2RbdO2QHCRnkD+KQgIApZCoCsAfKvI6bA6x6pR5WzZ3mgmZhWi8WSc3LL0pA9W+czFrJW2sscGOjj4DQB0sZSHk8EKAoLAnxCIyM8opuu8/VQ/ntK70t6+VtX0jE5eEgBs0DxApGuldFagf536SOmjuWWgoD1KKyxJhP7kFuUFQcD8CPQHgAsKnAqb46OT/DNatcfPZy/S3JlLAPDH7I5Gx0Pr/n82axFOb9XOCEWKzgNAP/O7OxmhICAIEAIxAPCwnomfrl1RYpYLi+VQn6fExS1fT/th9c9dWrIK1/Xoa4SMg8ektoAQhCBgbgQoS9hVbnLgaq9SRJTtNP/PS9fKjH+5d0vYXDKxt2N1Ivd2/KTTdHugYkQk2wqZXTaMj3RlcIS5XaCMThCwHgKUDOQAo6NgdWJVosraDlFRjnZvHa18/j+BA7esBVfvAjI7freWrbedZdF52uFDcjbAeiQhIzYnAu0B4AduQuBor25sPO4dMFQO9nk527eTi+Mjh3wc23BsW557HwxQIPBk2lhsot98AlRXgHyH/AgCgoABESgJAKv0eK+/TmwcHh4xXmb7CojfTs6O5M3x3N6uPHpP/s4YPjV8HNaOiWNdVeOQOQD8LwCsBIAAA/o/6bIgYFkEkgHgHSYnwOaYKkdG4b77hiHNfpydoPztGrFQiuOv5mbjuxmZ+PzYybbl5M29BtgK2Exr2RbTGjTBbjVS2GRm1yFqk9qm76BiOVt6D8D9Q0bZ+kB9OTM32/Lpl73RYbIJWg3T6RkByiJYxbLeVAYuCBgIgYEAcM3uuPXwGFUm2Ja8Rw73FU/yRPB07ZHukxMhLO9yr62oEeVBoFLGer9fTlc3G8Yn2u7CUyEdOgFP+RuOT56FdCLeG5K0wmfpHMy2PgMxOiSUPYjz0hfcAICJBvKD0lVBwFII6O6gH6Xrpet8P2WJ43cmryvZq22kuKf/EJzVugN2rlYTK4Tr+oQ4CyHRDLdLtZo4u00HW4BDgcHV7DUSGDhtB1F2wYXtOyPZkJfEzf35/QAQZinPKoMVBHSOQGMAoPSe3MbuUXsl/f1x8j2t8bsFueLYl2/As/OW4uNDR+P8dqnYK6UOUjpjym6oF3n5uh+0qkGY9K5VFxe074xPDBuD38zPEd1ZvgG/nZ+Dk5q3QrIpX8vJ4fvPAkBDnftE6Z4gYAkE0gDgtoNx+tRRtE2qilQkxXnGa5W/b+SuQ6ojT8u4VD7WQPnhfao3BelvbGiYrbwzbYO8PH4qWnkL6eMZCzA1uYaeZPQrAIy1hIeVQQoCOkSgFABsK8hx+uK1xPAI216vVYjePk7a1z40fLwt7es9FStjUECAnpy0qfpC2BLGlGKXbpFcXrLacoHmw4NGYEJYuJ7kugUA6MaR/AgCgoBGCJQHgFd8QfTO30lLk1NatLHMPj8VI6J9a5qV0sG8QCF8n5FRgJ+f7cAhHTakQ5NWSSRF50fobI2OdO9NAIjTyPfJ1wgClkagJQBQAQ+fOV77d9Nhrk9mLjT9LOzknMW2a299atVFOuVuH788+l4HHWUQWboM9qtdD7f2vg9PzckyvV5+NGO+nrYFzgFAC0t7Zhm8IKAYgSkA8Juj0/PFc7rP/7dhY0ztYD+YNg+zO3XDBvGJQvg6CDY90XO6jpiT2gNPTJ9val09MHS0XvIHkG+apNgHSvOCgOUQCASABzxxgpyfKVGihO1Oulnvc9PhPVpalYN7+prZc+gw5VCgrSo6THjbhImoaFuAtkJ0crvkEQAobTkvLQMWBBQgEA0AlInLpzPR5LLlbM7TfvjNLI+0n0/Z7XSagc2nMve1zqn6fqo6SQcJ354y23QrAy+Mm4JUXEsVdm60+zYA0Fkl+REEBAEPEaCUvqfdMDp2w6cZxdgm95jqxDXdMacMdfXjEtjx8qWs5LvdD5JptYcOdJop7wAlVqLVAB1kjaR8ATU99H3yMUHA0gjQgZrLvnTqlJzlxXEZppglXVu61lZ9rX+d+npLqiJBiI9Xt8jGiCzpVgelX6bldDOscL06cRrqoOzwVQBoa2lPLoMXBNxEYCgA3PUV+dP1qsy2HU2ReOVfU2bjhGYt5fS+DkjWV/rs7vfSbQLKvkdFjoweCFDyJEq77OPVAEoaNNhNHyhvFwQsicBCAPi3u06L6/201/9G+kxDOz7KxkcFaFpVqiKzayF+r3SgTeWqtqqHpFNGDgZemzTD12cDyKfNt6RHl0ELAi4g4A8AO7iI3JN2aHn8wuIVhnV0VHuA9nOtUFTHE/nKZ9w/I2DHjNIS0w2R7w1c34KKclF6avuYfPS4TzIHusAG8hZLIRACAM/4yCAxNDAQ9903zLDE/9bkWbaDiqVLlvS1c5PvN/mKA2Xfo0CZ9teNuiJAq2PhQT5NaPWiVBS0FL/JYItAIAYATviK/JskVsTPZi0ypDM7NnoSUvEhX2En3+v5jNoM2LVLSsZnx6Qb0nYog2ejhAq+tJ0PAICuOMuPIGBZBCh/9me+cIaU1IcSo/ySk2coB0ZJXJ5MG4vNKlTypfOS7zb5TN8dm6wXl2A7c2K0BEN0roG2NXyYPOgUACRa1vvLwC2NQCUAOOOOo+F6b3RIKB4ZOcFQxH8rn/gpvSsXDtKOtWfw3PKvFRNru0ZotAODtIoRFxrmK7v6BgCqWpoJZPCWQ4CSY/zA7YBcaa915SpIh+WMsn9JFd529huMdDvBlfFZ4T0BAQEYGxuLderUwXbt2uGgQYNw8uTJuGTJEty8eTM++uij7FhRm9Q2fQd9F30nfTf1gfpCfbIC9q6MsVq58ri7/xA0UiBwdt5SbFExyVcyJF9Yw3IsIAO2JAK1fFXNjzL6GalkKi31kzN1xema7T2RkZHYqFEjHDBgAGZmZuL27dvx+eefx1OnTuHt27fxt99+K/KXG4/ivo/+f/HiRXz77bfxsccew5UrV+L48eOxY8eOmJSUhH5+fpaTY/Vy0YbaGqCAhTIIcuuOi+39BAD1LckIMmjLINAYAK64aBBshkgnl2kWbZRZ/ysTpmHLSj6bjbDh7oqcw8PDbUSflpaGGzZssJH8jz/+WCS5u0LGrny3O+9x5TuLes/ly5dtwcG+ffswIyPDFhiUL2+N4I4O2j4/drJh7I9uBPnoRs3PAHCPZdhABmopBNoAwHV3nC7He+lOPBW8MQL5v5MxBztXq6kpAXNg7GobERER2LVrV1y6dCkePXoUz5496zXRF0a6rvbJ1fcV9j3evv7111/jkSNHMDs7G7t06YIUELnaJ6O9r1uNFHxvqjGyC74+aQYmhPlEFuQjyVfKjyBgGgQ6A8BtrR0WXZEzQuKSk3MW49D6jX15GpmddOiWRY0aNXDUqFG4c+dOPHHiBP7666/KCN+ZiLl1zbl9VX8TRoTVjh07cOTIkTYMCUvu8fiqPTpxn9agCZ6ak6X7oPzb+Tm+yqZ5CwDIZ8qPIGB4BEiRKRe2pk5sasu2uj+ERFXLFnXogkEmOUBWoUIFHDt2rG0P/Pz585qRfUFkzK1vBX2HVq/Rlsj+/ftxzJgxmJhojlsgtMSe1bGr7utt0Jmh9OatNfVd+bpLPlOCAMPTn7UHQEtZms78S/r7G2K//2/DxmDlyChfOBa27wwODsbu3bvjxo0b8ZNPPvEp4TuTsZkCAOexffzxx7bzEt26dUOSAfdYtWwvKbKsLa+F3rfotvcZiFQkTEts8n1na2tTiIzeqAg01XrPPywwCI+OmqjrpUXKQNbFwPv8MTExOGnSJPz73/+ON2/e1BXpOxIlt6N2bFtPz2/cuIHPPfccTpw4EaOjo7UmKLbv616jlu4zcj49YoItbTi3bhXTHp0JIF8qP4KAYRCoq/VpfypW8vaU2bolf1rup6xjRlzup2VnutJ26NAhl67g6YEgi3GqbhOXHsZUXB/o/MArr7xiuzZZpYrxKkGW8ve3Zee8tGSVbu2YDjEmhke4rT9e6uM1AGhoGO8vHbU0ApTQ4qKXCu+WgdWJjcOv5mbr1mkcHjHecBX6EhIScPbs2fjmm2/i3bt3dTvTL4wUufWvsO/R6+skszfeeANnzZqF8fHxbtkTN3butlcpIkrXK3lfZmYhZT10d1xevp98qiQLsjS16n/wFQHgWy8V3S3D6lClGl5cvFKX5E/9ouRDWuLhzXcFBgbaEu8YaaZfGAF7g0NBny3se4zwOq0MUBIlyrVQpkwZw+gjVR38cdFyXdo2lRb2wZVdyhiYpH8akB5aEYEEAPi6IOep6rURDZvqNrMfzfp9dI/YbQdPGfcoCQ9HAh69ECK3zullXN7249KlS7asii1btnRbT7gxdaW9mJBQfGLYGF0GAZQ5cIz2Af53AEATLfkRBHSDAJX0pcpWmjkV2k/XY/UxmrHQnX4tsfDkuyjhzLRp05BOlHtLKnr8vCeYFPUZPY7R2z5RvgHKShgW5rNCOC7bCeUOOL9ohe4CAfJB89ulujyOonTMjf99IaWEdcN9lu9IKACccEN5vTIWSoqypltv3TkCusb0+NDRSDMWrbDw5HuqV69uK2pz9epVUxK/nRQ9waaoz9jbNePjlStX8P7778dq1arpWnfpoO/BtLG6tP2VXXuixgmbPgCAEMuzjwDgUwQCAOD5ohwn5/8oi9jW3vfpzgHQfuCwBvqd9VMhGroz/swzzxjyQJ8npMupd9SWJ30w2mforAClaKaUxBqTmVuBB2396fGmwKZe/bXG7VkAIB8sP4KATxDYw+1oC2vP388PHxgwTHfk/2b6TKwapc9SvUFBQbY7+59//rklCMyRcAvTI09fd2zbCs8/++wzW24BOhjqKWYqP0dVMt/SYY0PKoNMvkrl2J3a3ukTzy9fankEFjkpojKlp/vB+4eM0hX5097fuh59kfqmFQ6ufg9lh6O93W+++cZyxG8nZ1excvV99nat9nju3DnMysrS5TkByvpJZ4FuLVuvK9/wyOARSH1zVbcY3jfP8mwkAGiKwCAA+DeD4hZrJFTKV2+ngL9bkItdq6cU23ct8HH8jtDQUBvxf//995YlfjtBO+LC8dzerlUf6YYIBQJU0ZEDT842OlatjmfnLdVVEHBo+Hgtk36RL07TlAHkyyyLQFsAuMtpwIW1FVyqFD47Jl1Xhn1k5ASM1tlBv7Jly2JOTg7SFS+rEpTzuAvTKU9fd27fqn9fvHjRVro4KkpfdSzogOAzoyfpyldQf8iHeapzbn6OigdJ3QDL0rI2A68JAFfdVEyPDIAM5+XxU3Vj0Ddz12Fm245aH/IpEjtK6jJv3jwh/t9++1Pgw62jViX8wsZNgcCcOXOwdOnSReootxyKao8OCS9s31lXWwIvjc/QMgi4AgDVtaEC+RarIVAOAL4qygC5/kf76jTT1kuFsItZK/HemrX14+j8/GwZ+06fPv0n4ivMYVvtdS5dtLdjNfxcHS+dM6E6EQE6KmlNxbb0lDOAVjE1rAFyFgAoL4v8CAJsCAQBwL/szlDlI5E/7Z/phfyp+EeVqLK6If9evXrhRx99JMRfwKzfkbS4ddSxbXn+5xUXSirUo0cP3dgJ3RL4YNo83fiRJ9PGankw8C0ACGTz/tKQ5RF4iNuhFtQeXZ/R02n/RwePxJBS+rgG1bhxY1ulNyGfP5NPQZgUpF/evFbQd8hrf5bFyy+/jA0bNtRFIBAaGIgHho7WTRBAtwM0vCK41/KsJQCwIDDFG8fp6mcp8ciOvoN0Yax0xW95l3t1sd8fGRlpy9N/584dmfUXM+t3JGRX9c7V9zm2Lc//TPyOmFBCoX379mG5cr7Pj0F+ZU6bjkhnePSwqrh3wFCkswqu6p2X75vIwgDSiGURaAkAv3mphMUqOxmpXjL8XVi8AlOTaxTbZ9WYUPa+cePG4fnz54X43SB+OxFxy8ferjwWTf6O+FAOgdGjR+sikKZru3SWRw9BwP09NcsYSLe1mluWvWTgXiEQCwDnuB1pQe2t6NJTF4Z5Zm421otL8Dn5N2jQAF977TUhfg+I305ABemZN6/Z25VH1wMAO1Zvv/02Nm3a1Od2VSsmFr/MzNKFr8nr3kcrPM4DQLxXTCAfthwCJQHgTW8cpqufpUxeeojK354yG+kusav9VvE+qsq2ZcsWpCVUu/OUR/cJhzDjlo/IwTM52HGjLaxNmzZhSEgIu2zckXV8WDi+kzFHFz5HwyqCrwEA+XT5EQRcQmC7O0bl6XsH12uki5K+x0ZPwrDAIJ86ptTUVDxz5owQvxezfjvZSADgHVk74sj9/KuvvsKOHTv61NboYO/hEb6/aURnjYY31GxlZJNLnl/eZHkEhntK6O58rl1SMv6Sk+fzSHxnv8FaXs/5k+OjWf/27dstU6WPm1AKa88dXXTlvYV9j7zufrBx9+5dm86T7ruCvYr3BPj54ZbeA3zuf67n5GGnqtW1wmG05dlNACgSgcYAQCkllSpkndg4nx/Ioeh7XrtOSsdZHI5UdvXrr7+WWT/TrN+RjClLYnH4u/p/asuxbXnuPukXhBmtBnTq5FsbpMyB5At8uQ15cfFKpPMJruqjF++7DQD1i2QA+adlEQgHgG+8UC6XFJj24L6am+1Tg7uRuw7TGjRxqb8q8KCZz+7du4VUFBC/nWiqVKnCJt+qVauKrBTJilYDduzYgVTISoWtudLmyEbNfH5NkA4nxmlzBukMAIRaluVk4IUi8JgrxuLNe2if3dcHcGjboW/tej5zNnQa+tSpU0IoigjFHgD07t2bTcZ9+/YVeSmW1xdffIGU7Mob/+LNZwfUaYC0HO/LlQA6iEzJi7wZh4uffbhQFpB/WBKBUS4qjsfKSfWxj46a6FMDu7Z0LfZMqePxGLzBiHIdZGRk4M2bN4VMFJMJBQF79+5lk/ODDz4oMtNAZrdv37aVHKYcGN7Ymqef7VYjBa9mr/Gpj6IaKHQ+wdMxuPE5KR9sSar/86CrAsANNxTHI+Wkw3a+jK4vL1mN7aske9R3b7GJiYnB5557TkhEAxKxrwBcvXoVCXdvZRcbG4s///yzyE5D2R07dgzLly/vtew8kT0dyCNf4Utftb3PQC3G/gsAJP2ZDuQVKyFAd0Pf8cRQ3PnM1JZtfWpQdMimRcUkLYzqT9/RtWtXpIxodmKSR54DZK7gSHvL7uhpQe/dtWuXyE5D8rfL9fvvv/fZAcFWlar4/JByevPWXutuQfrs9BoVDQqwEuHJWP+IwConhWBXurZJVZEO3fkqoj63cBk2SqjAPq7icPP398cVK1bI9T4fkIedROhx6NChHss+LS1NyN+H8qOEWDk5OeiLLYHGCRXwx0XLfea36DwCBSLF+RmG/y/7IyXIX1ZBoD0A/B+DAhWqpBXCI/H7Bbk+MyIif7pyqHKMBbUdFRWFzzzzjJCHD8nDHgRcv34dBw50f0l10KBBSJ+1tyOP2q3cOGN95MgRjIiI0NyO68bG+zQI+HZ+DiaEhase9/8CQFurkJ7V5JGlAAAgAElEQVSM8z8IRAHADwWRF9drQQEBeHzyLJ+RPy37+2LmX6dOHTx58qQQhw7I304kdNVsw4YNSJUVi9Nves/GjRtl5UZH8iM5fv7551irVq1i5VecfN39P60E+LKI0OuTZmBgQIDqcX8HAJFCjtZB4Cl3DcHd91PZS18t+9MhHl/s+Q8YMEAOjOmMOOxBAD1euHAB165di61atcKgoP+mfqbn9Br97+LFixK86VSGV65cQbqS6a4v8vb9tBR/Jdt3BwOpTLq3Y3Dh8wetQ3/WHulIF5TBK4WbfE9rn5H/z0vXYocq1bzqv7v4yH6/75aHHQne3ecUENCvu5+T9/tO3rSak5ubq/m5ALodQL7FV5OaCc1aauHTKA28/JgYgRgAuOouwbnz/taVq/gsoQYl+aG7vO7019v3BgcH46FDh4REdDprFLL2HVmrxP7gwYPIme7ZFT/Qo2Ztn/o2DVY1rwBAtIn5z/JDo2UeZQRJqSzp4IovomS6aaB1hr/o6Gg8fvy4kL+Qv+iAD3TgjTfe0DxfAGUMvOmjW01n5y3F6BDlKZOfsDxLmhSA/irJ369ECXx2TLpPyJ+KeWid27969er45ZdfiuP3geNXObOUto21YkAHbpOTtU3wRbUDfFVAiLKpUlZRlb4cAPqYlAMtO6wIADinUmky23b0CfnTaoPWVf2aN28uyX2E+CX404kO0DmO1q01SZzzO/Eu7tDFZ/5uRqv2v/dDkU8/L7cCzBUr/EWRotgUka7b0f67L5b+NToh+7vB0SnkX375RZy/Tpy/zNiNNWNXJa8bN24g5W5Q6eec297Se4BPfB4lCWqaWFH1WB8wFwVadzRdnRWX82+q8PfZrEU+MYSnR2hWOMNmbOnp6UjZyVQ5MWlXyEx0wHMdINucMGGCamL8vX1fFjj7ZOZCDCmltHLgvwEg1bq0aY6RBwPA15yE79zWg/el+YT835uaiWEOd7md+8X99+zZsyU5jMz6JfjTuQ7QNcGZM2f+TtLcfsC5PSrf+68ps33iA/f0H6J6nN8AQIg5qNCao9jmrLCcfw9v2NQnin9mbrYWKTJ/N67MzExx/Dp3/DJz9nzmbEbsVq5c+bv9cvq8gtqi209fZmb5xBcOqd9I9TjvtyZ1Gn/U96jM9Z9cthz+lLVKc6W/sHgFpkTHqlb639tftWqVkL+Qv+iAAXWAinEVRNgqXqOaI75IGUzfWSWqrMpxUr2YpsanQ2uNwA8A3lWh6NRmgJ8fvpE+U3Pyp/u3qck1VCr7723TVZvNmzeL4zeg4zfjjFbG5NkKx/3336/FtTmb36AkZLeWrdfcL742aQb6+/n97rsU+P23AaCEtSjU2KMdp0AJflcwX135o+9VOS5720T+O3fuFPIX8hcdMIEO7NixQ7MgYEH7zpoHAHT7albrDqp94yhjU6J1eh8GABfsZMb9WKN8tE9yYj8+dLRmRpyXlyeO3wSOX2bNns2azYjbpk2bVBOkrX2aPDw6eKTmQcC1pWsxJTpG5RgvAkC4dWjUuCOlQxtKFIGy/f1jwlTNlfvD6fOQrhuqGpdju7RvaEYHKGMSMrS6Dqxbt04TH0LX8z6YNldzP/nqxGmqtwLWGpcWrdHzFAD4H0dC43w+s3V7zZX6/KIVWDWqnCaGm5WVJeQvM3/RARPrwIIFCzTxJXRImg4sa50cLaNFG5Xj+w0AaliDSo05yuc5Cd+xrWrlyuPV7DWaKjQdqOlSraZKhf697WnTponjN7Hjt/rsV8b/3xUgyunh6NtUPacDy1oXDrqSvVr1hOlFY1Kj+XvdV5Ui09L/y+O1X/rX6tAfZfijBCLiJP/rJAULwcKsOkC2rlXGwEU+qBnw97FTVJ+X6mV+OjXWCAMB4LSqAICWlbReytKo6hUOGDBA0vvKzF+CP4vpAKUN7tevn/KVAJo8PTN6kub+c0KzlirHdgYAgoxFkebu7WJV5F85MgovL1mtqQJ/Mz9Hi7rX2KpVK7x+/bo4f4s5f7PObGVc7q3aUFGvFi1aqCRKW9uxoWH4/YJcTX0oJWmrEB6pcmwLzE2pxhldWQC4rioAOJg2VlPFpTrblFBD1Xjs7VatWlVK+grxS/BncR04f/48Vq9eXbm/obNM5Nu0XEndP2SUynH9AgBRxqFJ8/Z0nZ3UuB/pEIuWCkvftbJrT5VKa2u7XLly+MUXX4jzt7jzlxmzezNms+J16tQpjI6OVu538rr30dyfdlZ7iHq1eWnVGCOLB4Db3MRP7ZXy98ePZszXVGGPT55l+14V47G3Wbp0aXz99deF/IX8RQdEB37XgePHj2NwcLDSICAwIADfmjxLU59KZYPpe+3+j/nxDgAkGIMqzdnLXcwC/V1R5rXrpKmi0p6V6vv+/v7+eOjQod+N3qwzGhmXzGxFB9zXgYMHD6Kf2pz6SNepLy3Rtoia4jTB281JrfofVbKqpD+J4RGaH/wb1qDx78GHqqBGsvy57xSFSAQzK+lATk6Ocj80QuMy6jS5ig8LVzUuSg6UpH+6NF8P96siSjo8ouXePx00VDUWe7t9+vSRu/4WWvK9du0avvvuu/joo49idnY2jh49Gnv16mW7+dGoUSNMTk7GpKQk2y89p9foVgi9h967dOlS3L9/v60NOi1uJRK08lgpRwBdDbb7DVWPVNtESx/70MA0lWP6q/noVd8jqgsAVKeZXagdqlTTVDHPLVyGMSGh7ONwxKZmzZp4+fJlceImDQBu3bqFr776qo20O3fujBUrVmRNhEIFXqhNaptmiP/85z/x9u3bok8m1aerV69irVq1lPokuhr446LlmvradknJqsb0vwBQW9+Uaa7eHXUkOK7nAX5++N7UTE2Vckj9RqqU0tZuZGSknPg3oaM+ceIErl69Grt27YohISFKdagg+6LvpO9es2YNfvTRRxIMmEzHPv/8c4yIiFCqV8M13gqgAkUl/f1Vjekpc1GsfkfToiCHxPHa5Htaa0r+qpf+6dDfM888I87ZJM75woULuH37dmzZUmmWM48cZEpKCq5cuRJ/+OEH0TeT6Nvhw4eVHwp8esQETX2uwgyB/waAZvqlTfP07CUOsnduIzQwEL/TMFsVVfmLCw3zyNk6972wv8khW3k/0wxjv3PnDh44cAC7d++OAequM7HpYcmSJbFHjx74+OOPS4ppEwQCdBakMP/C8XpCWDheXLxSsyDg7LylGFyqlKoxUTE6+VGIQBMOpSuojcUdu2qmhHT4Ja1BE1VKaGuX9mulwI9xT7DTvv6+ffuwRo0aSvWkIFvgeo0OGW7YsAFv3LghgahBgwGqGdCpUyelOji6cXNNfe/8dqkqx9NIIf9ZvumDXM7JsZ1ywSF4MUu7KPTwiPEqFRDLly+P33//vThdAzrdmzdv2oifUjU76qiRn9MBQgoE5DaBMQNS2taJiYlRpo90yJSKn2l1K4CuBZYPVnZu5oDlWVoRAFUBgE5bsivihnv7aaZ8V7PXYKWIKPYx2HGhRB7PPfeckL8Byf+RRx7BuLg4Zbph1xFfPcbHx9uuFppha8ZqYzh27BjrzRJnHUyKLIs/L12rmR9e0623KjsjjqIcNfLDjMAeZ6Xh+JvI+JqGikcZBjn6XVgbmZmZQv4GI3+qy0BbNoXJ1Gyvt23bVm4OGExHKeCZPn26Uh3N0nAb9pecPKRKr4psawcz91m+uRgA+FWFsB68L02zqPPTWQsxSOFBrsaNGyMtIVttdmLU8dKSeFZWFgYGBqpyRLptlw4LZmRkIN05N6r8rNZvOpfSrFkzZTpVumRJ/GL2Ys388e7+Q1SNhbgqzvKszQjAGhXkXzc2Hm9pWKKSSmKqGAe1GRYWhlTVy2pOyajjfe+99zQpw6pK37japUOO77//vuitQVYEKD9AaKi6xGX31qytWQBwM3cdpkTHqvLJKxn5z9JNhQMA1V5mFxQdxtPq4Mnfho1h778jJrt37xYnahAnSqf7y5Qpo1QfHHVD78+DgoJshwSNGsxZrd+Ui0KlTmnplxXmYrkGAKGWZm6mwS9QoWz14xLwtkazfzr4p3C/CTt27ChX/gxA/leuXMHBgwcrdZ4qbEWrNvv164eXLl2SQFbnukzXi1WeWakSpe2BwAbxiapsci4TB1q2mUAAOK/CAR3QsBjFog5dVCmYben/66+/Fqepc6dJS6dUdEeFLpupzerVq+PJkydFn3Wuz1999ZXSrYDsTt00W519ZPAIVXZ5AQCCLMveDAMfrcK5pUTHaLb3f3LOYqUH/3bu3CnOUufO8u2337blZlChy2ZsMzo6Gv/1r3+JXutcr7ds2aKKOJEOBH6ZmaVJEEDnwKqXi1Y1lpEMPGjZJt5T4eAeGDBME8Wi8wUqi/106NBBlv517iRffPFF2yqNCj02c5tUbOjZZ5+VIEDH+k1bAamp6rLqjdCwWNCufsq25v5lWfb2cuANVTi4CuGReD0nT5MA4N2MTPQrUUJJZEmn/s+cOSMOUscO8uDBg0gH3FTosRXaLFWqlCQO0rF+0+HH06dPK9sKIN/5TsYcTXw1cULFiEhVttrYSy605Mf3qXBym3sN0EShaPbfWeG1P1p+s9rpYyONl7L6UVZGFTpspTapouX+/ftF13UcCGzcuFGZnnevUUszf72xZz9V46AkdvLjBgIRAHCb29FFh4QincjX4urfC+OmqFImbNSoEVKVOCMRopX6+sILL1gyuQ+3vdrbo6RBUtZav3UEyBfVr19fmb97fuxkTXw2pSKOVVOhlbgs0g3+s/xbZ9mNn/NxZdeemigSXS9sVqGSEoOgWeXrr78u5K/TGdFbb72FtH/NqbfSFtiWmekwpZUCSSON9dVXX1VWK6BJYkXNrmwv63yvKtudanlWdxGAEgBwitvpRZQujVQFSovZ/6ODR6pSIhw3bpw4QZ2S/6effqq70/7lysdg7bqNsVPXPjhs1BTMmJWNsxeuwkW59+PyvD22X3pOr9H/ho6ajB279LZ9pqy6k9Ee2QdVuaS6CUYiRiv1dcQIZdfp8HGNrm1TVdjwoNIe6WcxnPW5i/xn+belFgOkR8KZ2bq9JuR/I3cd1iiv5kpJVFQU/vjjj+IAdRgAXLx4EStXruyRbnLqe0RkWWzRphOOmTgb12z6C+766zGvflff/xCOnjjL1ma4wiqWrmJAZZIlWZA+twPOnTuHERERSmyArumRb9ViAjetZVslYwCAdpZndxcAeNJVZ+Dq++g06eezF2miPDv6DlKlPLht2zYhfx2SP12H6tu3rzK5F6fnJUuWwsbNWuOUmUtwx4NPe0X4RQUMO/9yFDMXr8U27bthoA9vN/Tv31/sQId2QKsdmzZtUmYHe/oP0cSHU9E2Rbe3DrjAf5Z+C1VQ+p/iHJ67/++hUYEJKi5RrVx5JQYgB//0Oeshp7dhwwYlMi9Oz2lGPmDIWNy0+2/KSL+wgGDTriew/+AxGBau7OpUkZhu3rxZggAdBgF0ILBBgwZFyq44vS7s/7SyqlXxNkWF24jb4i3N8MUMfnFhwvfm9aOjJmoSOf5l4HAlik9jf+WVV8Th6dDhHT9+HOm+ujf66e5nifiHjpyMWx94SnPidw4Itu59CoeMmIRabw9QCWXJFqjPoPill15SZg90vkqLbQAqSOSuXbr4/nnFcKCl//2ZiyC6LJzksuU0iRrp5H/tmDiX++XOOHv37i3kr0Pyv3z5MiYlJSmReUH64efvbzvM54sZvzPxO/9NKwJ0eJD6WFDfVbxG5wGowJKVDtoZZazdunVTogdUwl2LIm70HYpWc4nj5KcABChbErvSrO/RV5OIUVW5X0qEcuLECXFyOgwApk6dyq6vhdlA5aRquGTFVp/P+J2J3/nvrOVbsFKSdkWPZsyYIbahQ9v44IMPkHxXYfrszeuHhmtTxn1Nt95K+g8AdQvgP8u/tNEbpSjosyGlAvHi4pWaBADNK6g5AS7X/vS5zEkOLiAgQJWD+L3dEiVKYMfOvXDbvsO6J397MEAHEbvee5+ye+GOtk4yeO+99yQI0GEQoOpaYNPEipr49AuLV2Cwmu29NZZneycA/ADgnKNhczyf1LyVJopybPSk3x02R7/tbZQuXRql1K/+AoBff/0V77nnHiUyt8ueHsuUCcYpM7MMQ/z2AMD+mD59MZYuHawcp1atWklRLB0GAN988w2SD3PUaa7nz43RJjvg2CZK7Jy4zt+JAy39p5K7/x9Mm6tJANA2qaoSJZ83b57MbHTo2Hbs2KFE3o7OkQ7V0XK6nUyN+pi9ajtGRpVTjtfevXvFVnRoK7NmzVIi+/ZVkjXx7VTQzdEuGZ+3tzTjOw3+L4zA2gRGqXi1OC36ZvpMJQpStmxZSXiiQ4dGSWhINtz66theTGwCrtywz/Dkbw9aVqx/AKNj4pViRlkC5UCg/lbLLly4oCw50FuTZ2ni4xslVFChuw84caBl/wwCgF8cHSDH8y29tan6N6xBYxXKgbm5uTKj0WEAQHLh0M/C2oiNS8R1Wx81DfnbgwAaU0xcglLsVq5cKTajQ5vJyspSIveRjZppEgBsuFdJlcDrAFDasqzvMPDBhTlDT18v5e+P5xYuU64c3y/IxSAFB8HCwsLwp59+EmemM2f2888/K831T2l8V5lo5m8nf/sjpRVWuR1AqwDXrl0Tu9GZ3dAqQGhoKHsQEBgQgN8tyFXu54lLiFM85aMiPjfAgQct+/RoEQB5BHq/2vWUKwVtL2R3UnPXdeHCheLEdObE6P71unXrPNJHV/Q7ODgUab/cTpZmfVyyciuWCVZXLZFq0xvlrryV+pmZqWYvnar3abHV2zOljgrbP2RZ1s8fONVIZk/9ezBtrHKloMIUCWHh7EoRHBwsBX90SP43btzA+Hg1+9h01W96Zq7pyd8e1Eydk6PsimBCQgKSrKxErkYYKxUKKlOmDLu/rBAeqUmRoANDR7P3HQDuAkC4lYOA4a7Mjtx5T7ngELyek6c8AHh4kJrSlzNnzhTnpcMAQOXJ/249B1qG/O1BQJce/VU4VFubu3btEhvSoQ2pSpxF5Kx6FeCXnDwsW0bJldYhVg4A/uYOubvy3owWbZQrAylbi4r8KWApv/m3334rzkuHzqt58+ZKCCu5ei2lFfzshKu3x+0PHsaq1VKUYNqiRQuxIR3a0HfffYdBCqpI0jVs1QEAtT+xWSsV+vqYVQOAUgBAJyFZQT2uwdWQf02ZzdpnOwaTJk0Sx6VDx/X5558rWbIOCCiJuWt2WW72bw9GluXtRsLArv+cj5999pnYkg5tacKECUrk/d7UTOVBwGuTZqjo+zUAKGnFIKArp8FTW7ViYpUrAUWC45u2ZFcEPz8/JKIxwn6e1fpIhzK5dZXau7fvEMuSvz0I6N5rkBJs6eqZ1fTUCOP99NNPlQTT6c1ba+L7qSSxAl/QyYoBwHZuIHNSeyhXgp+XrsUIBektqXqWEQzYan28e/cuVq7MX+chqlw0btn7pOUDAConXK58DLtTrVSpkqQH1uEKAPmPLl26sMs7qkww0j696q2ArI5d2fsOAJutFgCUAIDvuQOAE9PnK1eARwarOfz3zDPPSACgQ4elqrb52PRMy5O/fRVgzEQ1W2qvvPKK2JQOberIkSMqSBQf1+AwIG01cPMWAHxrtQCAvfQv1W5WHf1R+12r8x9cSk5ORiowY7XZtRHGS7cyuA2+fHScJQ/+2Qnf+XHHQ0eUpAqmu+dG0DGr9ZFW1apXr85uV3RXXwsOIK7h9gkAUM9KQUAuN4Bz23ZSLvxv5+dggJ8fu/A3b94sjkqHMxVyzA0aNGCX94ix02X2/9djf8AgbUwGO85NmjQRu9KpXVHCJm4OIN9MPlp1EDCzdXv2vgNAlpUCgBPcwn8jfaZywa/q2otd8JT29/Lly+KodOioKIUpHc7k1NWw8Ajctu/wH8jPeUZsxb8Jk1DmxFr+/v6SUluHdkWBNRVuCg/nT6S2rkdf5TzwyoRprD4h37+8Y5UAoCIA/JvTqVJGvtvL1isXPN0y4Ow3tTVt2jQhf506qccff5xd3p269hHyd5r92wOejp35A+wnn3xS7Eun9jVlyhR2+6oXl6CcB24tW4+xoWHcfSdOjLdCEDCOm0S1uAJC+QW4+03tffzxx+KgdOqg0tPT2WW+eNlmCQAKCQAW5vAvC1P2OavtsRtlvCdOnGC3L/Kp72TMUR4EjGvaQkXfR1ohAHiUm0ifHZOuXODTWrZlF3izZs3EOemU/MmJ1q1bl1Xm8YmVhPwLIX/7KkBsPG/t9fr164uN6djGGjfmL6c+q3UH5XxwdNREVt+Qz4kPWSEAOMcZAESWLqO8GARtL1SMiGQX+NatW8U56dQ53blzhz1tabee90kAUEwA0Lk7b+11Sj1LsjTKrNhq/dy0aRO7X60cGaU8AKB6MwrywXxn9gCgBif5U1tpDZooF/ab6fxXwcgx/fTTT+KYdBoAnDx5kt0xTZ+7TAKAYgKAqbOXsuN++vRpsTOd2hkdtKUaKNy8oMU2wOB6jdj7DQBVzRwEpHML+qGBacoDALpiyN3vwYMHi1PSqVOiWRh3spKAgADcvOegBADFBACbdx9Ef/8AVnuTJFu/6drXDBgwgFXe5KsXd+iinBf29B/C3m8AGG/mAOAJTiKlOurfaHDvU0X+Z3FK+nZK69atYzXuKsk1hfyLIX/7OYCkqjVYsd+wYYOuCdBqy/7O43366adZ5U0co0VdmK/n8a9WAcB+swYAlP73ImcAUCc2TnmU98G0uezKGR8fL/uSOp79k4MaP348q9xbtessAYCLAUCLNrwrblJlU9/B9u3btzEuLo7V3ohnPpqhPjV8Tf46FucBgLjSdD91OMmf2qKT+aqzPmV36saumLNnz5YZic4DgNTUVFa59x88RgIAFwOAfoNGsWJPxWecZ53yt76Cghkz+EvtLu9yr3J+mNKiDauu5nNkiunYHwCmcwcAh0eMVy5gSizB3e/jx4+LQ9J5AMCdAnjKzCwJAFwMANKnL2K1ObpqJoSvL8J3lsdrr73GKnPy2U0SKyrnh4NpY9n7DQBTzBgAHOIk0pL+/nhpySqlAj45ZzG7cBMTE6VMqc7Jn5xTxYoVWWWftXyLBAAuBgCULInTV1A5Z2fCkb/1FRBQMTTaGuWUO50R+2putlKOuJi1UkV9mCfNFgDQnsYVTuG2qlRFqWBpa2FLb/7TqZKZTF+OpzAiiIzkzfuwYv1eCQBcDACWr9vDSgRly5aVAMAAQffkyZNZ5U58s6PvIOU8cU/Fytz9vmS2cwDJnORPbS3u2FW5YPvU4s0ER/2WGuXGCADKlCnDatTrt+2XAMDFAGDd1kdZsQ8ODpYAwAABwEsvvcQqd/K399VtoJwnFnXowt5vAEgy0yrAUO4A4B8TpioV7M3cdUhZBjn7HRMTg7TUVdisU17XT3BAleQ4Zb9t3yEJAFwMALY+8BQr9pSDQWxLP7ZVmCwoY2P58uVZZR9VJhipeI/Kw+IvjuMvZQ0Ag8wUAGzgdKbBpUohpWJUKdTXJvGfSpXrSPp3QnbnxKmv1Jb9jrs8HnMJC2787XKVR33b4Lhx41gDANIjKuSmkiuIi8qULMXd73VmCgBe5zToNpWrKhUoKYuK63/PP/+8zEQMsBRJJMGpr9SWEL9rxG/HiRt/IX59E79dPseOHWO3vWWd1V8HpDNpzDr7T7MEAP4AcIsTnDltOioPAFpX5hUo7UPeuHFDAgAJACQYcGErgNNfUFt2gpFHfQcC169fR+7zN+2rJCvni5mt23MHADcBgLjT8D91uY358aGjlQr08pLVGBjAm4+8R48e4oQMQv5EEtw6a5/ZyqNrKwHc+Avx65v4HeXTuXNnVvsr5e+P5NNVbgPsH8KbvCpf/2sZnv0BYCy3MVMOZpXCPDScNw0sjX/jxo0SAEgAILN/F2b/FCRx+wxHgpHn+g4G8vLy2OV/dNREpZxxOnMJe58BYJQZAoAdnMacGB6hVJAUWExv1Y5dmJ988okEABIASAAgAYD4gWL8wIkTJ9j976zWHZTzRlxoGHe/t5ohAHifMwDoX6e+ckE2r8Cb2CEhIUGMvhij19usjFNnqS1Z+ndt6d+OEzf+etMv6U/RqxDkMzl1QIvEcb3588b8y+gBQCAA3OUU5OpuvZQGANeWrsUg5v1/utoiBl+0wesNH06dpbbsxCaPrgUC3PjrTb+kP0X7g5EjR7IGAKVLlsRfFF8dp+JDzHr7KwCUMnIQ0IAZEHxpfIbSAEDF/f/HHntMAgBZAZAgwMXlfwqSuP2GEG7RhKs3fB555BF2HXgzfaZS7vj72CnsfQYAOkRv2B/WDIABfn54JVvtac51PfqyCpEKUpw/f14CAAkAJABwMQDY+ZejrDZIwYTeCE76U3RAcu7cOSTfyRkIbuzZT2kAQMXp/P38WPts9IyAuZwCrBsbr1SAdACQckdz9rlGjRrifAxG/uScg4KCWPVg696nJABwMQDYvOcgK/Z0r1wIt2jC1SM+ycnJrHowpH4j5fxRKyaWtc8AsNSw038A+BsnmQ6up16AFcJ5q8CNGTNGnI8BA4By5cqxGjIVuJH9f9f2//O2PMyKPeWX1yPBSZ+KDkqGDx/OqgdVosoqDwAG1OGdQALAASMHAJ9yBgBLU7srFeDZeUtZFY7GvmvXLnE+BgwAKlWqxKoLVOJWAgDXAoDctbtYsU9KShIbNKANbt26lVUPyB9/Oz9HKYdkdezK3ecTRg0AKI0hnWJkA+SJYWOUCu/A0NFsfbWP+6OPPhLnY0DnU7t2bVZdWJR7vwQALm4BLMjZyIp9nTp1xAYNaIPvv/8+qx6QTz6YNlYphyjICHgHAPyMGAQk20mQ6/GTmQuVCm9Be94UlBEREVL+14COh5ZmmzVrxup8Jk5dIAGAiwHA+CnzWLFv0aKFBAAGtN5Lb8sAACAASURBVEMqnR4eHs6qC4s7dlXKIR9O59XdfO5MMmIA0IuL+Kkdupt/M3edUuH1SqnDqmzdunUTx2NAx0MBANVu4NTf3gOGSwDgYgDQq18aK/Y9e/YUOzSoHXbq1IlVF1QnkruRu469jgwAdDdiADCX04FqcQOgahTvwa+cnBxxPAZ1PFOnTmV1PM1bdZAAwMUAoFkL3lTcM2bMEDs0qB1mZWWx2mHN8jFKJ5F0k0zBTYDZRgwA9nEGAIPqNVQqOMov4Md87/To0aPieAzqeDZt2sTqeCpUrCIBgIsBQAJzKu7NmzeLHRrUDg8dOsRqh5RL5uela5VyCfdVcgDYa8QA4DhnAKD6BsDxybNYFY3GfvbsWXE8BnU8FLxx6i8lNdmw/TEJAooJAggj7gQwzz77rNihQe3w9OnTrHZINv2vKbOVBgBLOnXj7vObRgwAfuJ0oKpvAOzuP4RVaFFRUeJ0DOp06AzA559/zqoPZAvp0xdJAFBMADAhYz477qdOnRJbNKgt3r17F+kwNSeXPHhfmtIA4LEho1j7CwDnjRYAUAGD/+MU2onp85UKjcpFcva3TZs24nQM6nQoALh16xZ7NsD2qT0lACgmAGjXkffwJWUBvH37ttiigW2xZcuWrL45s21HpVzywTT2mwDEpSWNFARU4SRTakt1DYAu1WqyKtnkyZPF6RjY6VAQ0Lp1a1adiCpbHinPvSQEKjghEGETyXwQt23btmKHBrfDiRMnstphj5q1lQYAVBOAm/8AoJKRAoC2nACUCw5RKjA6uZkYzrvMtG3bNnE8Bnc88+axR/I4a8FKCQAKWQWYMW85u+NctGiR2KHB7ZAOcXLySaWIKOV8ElUmmLXPANDKSAFAGqfAGiVUUCowOhXKffDotddeE8djcMdz5MgRbiPGlm1SJQAoJAC4p1VHdrzlAGDR+fZppUvvv//4xz9Y9YJue/2Sk6eUU+rHJbD2GQCGGCkAmM8ZAPSuVVepsD6esYBVWBRMXL58WfeGpXfD93X/fvrpJ/RjLu8ZFFQaN+16QoIApyDg/l2PYyBzBUZ/f3+8cuWK2KEBSL4oWyc75OQTauuzWYuUckpP5qRyAJBppABgG6fAprZsq1RYR0fx7jHFxsaK0zG407E7pAYN2Kt7Yd+BIyUAcAoA+tw3gt3JN2nSROzQJHZIFR05OeXZMelKOWXyPbznhwBgk5ECgKc5hbW2ex+lwtrWZyCrcknucf0vK9oJvrjHpUv5K0SGhIbh5t0HJQjIDwI27zmIoaG8Od/J/6xYsUICAJMEAE2bNmX10Tv7DVbKKau69mLtLwA8ZaQA4APOAIDuVdJBPVW/89rx5pseOnSoOB6TOJ5PP/2U25Bt7Q0cNl4CgPwAYMCQsUow/uKLL8QOTWKHAwfyTtIWdeiijE+Ipx4ZzL6i9Y6RAoBLnAHAG+kzlQprcL1GrA5o4cKF4nhM4nhohaBevXqs+kG2ERwciuu2PWr5IIAy/wWHhLLj27BhQ7FBE9ng3LlzWXUkrUETpZzyz4nTWftrpGRAgQDwb84A4Nv5OUqF1aJiEquwdu3aJc7HRM4nNzeXVT/sttGqXWfLBwAtWvOuvtmxleV/82zDURC+fft2VhtsXbmKUk45O49969AwyYAS7EbI8RgYEIC3l61XKqz4MN79xxdeeEECABMFALSUzH0bgGyDbovMzcqzbBCQuWgN+/VbwpVkJel/zRUAPPfcc6wBQIXwSKWccmvZeizl78/aZwCINcI2QG0O4re3ERcaplRQdB+Uuwrgl19+KQGAiQIAmoF0796d25ht7ZWPibPktcBNu/+GMfx3pW2Y9uzZU+zPZPZHQbidEzge/f388LriXAAx/FtbKUYIAFpzCMjeBtVWVnX4j9r9am42q2IF0IqF5B43nQPmnoHY9ZseGzdrbblVgGYt2rHanSOesgJnrtk/BeA3b95EyuvgKGdvn9MyvUpuSYmOYe0vALQ0QgDQy1vBOH6+TeWqSoVEpSEdv8/b53FxcaYjPzJAq/9SVbLatWuz6oqjrqWNzrBMEDBkRLoyHOvUqWN5XTWrrXLnAnh/6lyl3NKyEu/ZMgDoYYQAYKSjY/P2ea+UOkqFRAkhvO2j4+fpxLhZDdDq49qxYwerrjjqjb9/AE7LzDF9EED5/mmVzHHsnM93794t9mfSgL1WrVqsevP3sVOUcsu9NdknDJRiX/c/0zkNelSjZkqFxH1fs0OHDuKATOqArl+/jomJiaxOyNFWKBXugpyNpg0C5mevx8DAIGX4VahQAUlGVg9UzTp+quzoaC/ePledX2ZEQ97kRQCQoXv2B4BsbwXj+PmZrdsrDQA29xrAqlSDBg0SB2TSAIAc6969e1n1xVHX6TllCcxetd10QUD2ym22sTmPl/Pvffv2ie2Z2PYGDOD11ZQBVuUZgOmt2M+5ZBkhANjIadQ5qT2UCim7UzdWhz5lyhRxQiZ2Qr/++itSkhlOHXduq0xwCGYuXmuaIIBm/hTYOI+T82/aeiPZmHX2K+P6DdPTebdrjcYtALDeCAHAg5yGvaX3AKUBABUa4uxvdna2OCETBwDkiJ955hlWnSlI/wICSuKkaQsNHwRMmbkES5UKVI4X3dIQkjT3Yd2srCxWPaIZusoVgE29+rP2FwD2GSEAOFyQQ/P0tYcHjVAqpGENGrMKafPmzeKITB4AENGkpqay6k1B9uHn749UJW/nX44aLhCgPvfqn6YkgZIzVl26dBGbs4DNkW91lr03fw9v2FQpt/x10HDW/hqlINCr3gjF+bPHRk9SKqSu1VNYhfTYY4+JM7KAMzp9+jSGhvLnsHfWf/q7Rq16mLflYcMEAVTjoHZd3sC6IFzoteDgYDx58qTYnAVsbv/+/ay+uluNFKXcwl1mHgBe0WoFoBQADAaAxwDgFADcKswA5XVgVUpP8CxdujRWqVIF+/TpYzukdvXqVXGIGjhE7hlJUbIPj4jCCRnzdR8EjJ88F8PCIzWzia1bt4qua6Dr5FP27NmDvXv3tvka8jlF6av8z+e8QJxN3E0cPggAiNNd+hkAAF+LAH0uQI8NLCYmBunOuuyJqt0TpeRAWmwFONpijZR6mLN6h+4CgeV5e7BWXd6qmo7jLuh5+/btkWQgeq5Ozwnfbdu2YXR0tMf+qCDZyWua88sZAOhfVATgn3/KUAQNmgtHCeZDhw6Ve9GKZ0dabgXYnSYdEGzXqQeu2rDP54HAyg37sG3H7kqT+9jH7fhI2y9fffWVkL9C/aacCkOGDFHimxxlKc815Zt1AOBXUCBAVwxE2CbDoF+/fjJLUugkafZJe5NU2U9r+6HsgS3bpCLdsd/112Oa/i5ZuRVbtOmE1Aetx01Yy1kbdbN+0mma+VNOE61lK9+nCQevdQ4AaNlfhG1SDDZs2CAzJcVBwNy5c31qP3EJFbDfoFFKDwtu2PEYpo3JwKrVeA/Ouut75s+fL/qsWJ/z8vJ8qs/u6oS8323+7msPAuhwAO0PiMBNikFERASeP39enKZCp3nnzh2k62i+tiM/Pz+slJSMXXoMwOmZubh590GPVwbos9QGtUVtUtu+Hh9hTFjLvr+6FYCLFy9iVFSUz2Xta10z+feftR8MpNP+ImyTY7BmzRpxmgoDACIkcpwVK1bUlS3RcnlU2fKYUqcBtk+917ZKMGzUFBybPgcnz8iy/dJzeo1WEOg9KbUb2D7ji22NonwRYUsYC/mrI3/CdtWqVbrS4aJ0Qv7nFXcPpFWAAwKiVyAawlhatWoljpMhAKDZ50cffWTb98/JycFhw4Zhy5YtsXLlyhgUpK7Qjdjof2yUME5KSrJhnpaWhrm5ubbzAB9//LGkAmbQbwoA7rnnHkP4NLEJr3nrUQoATguQXgOpe4MhxylXptyfOf3000946NAhnDFjho10QkJCdC9rq9ozyYYC3ZkzZ+Lhw4fx0qVLEvS6GRSQj5BA1vx8kO8jKE8A3LSqw7DauC9cuCAO0QWHeOrUKVy9ejU2b94c/f39hfANuj1GsqPZLG1/ffnll6L7Lug+nRWyml+08HiJ+yUAsIoCyP5p4SsARBB0W4KW8/W2920V/VQ9zpSUFKSCMrRdIOcICrYFmiSoloO0r5sVhusUAHwpAtGNQJQZH6XuFKf3R6d348YNfOCBB5SX9xX70p99NW7cGB988EG8efOm2IXDyoBsAehPVxX6j5MUAFCuYGXEI23rA9vWrVuLo8t3dOfOncOVK1difHy86L3Fbb98+fKYmZmJ33zzjdhHvn20aNFC7MIadvEIBQBUKEAEbnIM1q5da3kHR0u/w4cPx8BA9fXpxaaM5VNIJ0aMGIGffPKJ5e2Ezr+I/hpLfz2U130UAJQEgK88bEAUxQCBQ2RkJFr5AOCPP/6IGRkZmuerF5synhOlZEd0vfC7776zbCAgiYCMp7ce+Boq+Pd7hUCqEiRkblIMNm7caEln9vPPP9uW+sPCwkS3TarbqvxWcHCwbWvg8uXLlrSd9evXi82Y22b60Ozf8YeqBInQTYaBFYsB0UGmnTt3IpVFFp0Wm/ZGB2JjY3HPnj2Wy6FBNjR48GCxH5PxQb4trHEkfvtzKhGY542xyGf15WxpKZNKelrp9D8t3fbo0UMclzkdl8/kmpqail9//bWlbIl8B2W6FL+uL7/upTyoEmCB5YDtgQBVCZIzAQZ2oDRr2bVrl6WcFQU5VCKWzjt4aSDyeQPrvkrZh4eH4/bt2y1nV7SaRj5FJbbStvIggzj9T8v+dtJ3fqSDgVQogHIF011ByRaoY6dId/yTk5Oxb9++uG/fPqS9byvN+n/44Qfs1auXOCgd66iZHDxVJLTatUHyKZQzg3wM+RryOWaSqQnHQpxN3E0cTqf9idM1+XmFE8yjoybineUblP12q8Fb23z//v2WIl9fBxovvvgilitXTpyRkL+mOkD5A1566SWxdYckQqp9waOPPsoq4+41ainjFeIs4i5OLgSAVzVhcC+/5BDnoP86aLhSIaU1aMIqpM2bN4tT0Mgp0HJsyZIlWeXHqbvSlvJlTZ/KPiAgwHbLRDXxSfv/yeC5adMmVnmPaNhUKbc8MngEa38B4LCX3KzJx/dxOr7NvQYoFdK0lm1ZhbRkyRIJABQHALdv38YpU6awyo1TZ6UtcxO/s3zHjx8vKYUV2zwFQYsXL2a1+Rmt2ivllq2972PtLwD8RRMG9/JLNjgbiDd/L03trlRI1L43/XP+bHp6ugQACp0BJfVp25Y3aHOWofxtLQLnkDcVkaKzKDJb/2O9DU48Jk2axOqrczv3UMoty7vcy9pfANjsJTdr8vElHAZlb0N1lLal9wBWIQ0cOFCcgKIAgK5hVa1alVVedj2TRyF9b3WADsedPXtW7F+R/ffv35/V9rf3Gag0AJjbthNrfwFgmSYM7uWXTPPWkBw/P7JRM6VCenTwSFYhtW/fXhyAAgdw5swZrFKlCqusHPVMnksAwKEDlSpVQiotzTnzlbb+s6rAvfJ3YOhopdwyvmlLbn81x0tu1uTjwzkMyd5Gz5Q6SoX0/NjJrEKqU6eOGD9zAEAOlRyrXSf0/OjvH4BlgkOwXPlYTEisjFWSa2JK7Qby6wEGSVVr2DAkLAlTP39/Q+gA6erp06fFDzD7gZQU3htbL4ybopRbBtZtyK2v4zRhcC+/pCeng25VqYpSIb2TMYdVSJQwQyJ2vn3AL774AhMTE1llxKGfJUqUsJFTq3adsf+g0Th5RhbmrtmF2x88jLv+ekx+FWBA2BLG6dMX2zAn7OMTKyHJgkOmnG1UqFABT548Kb6AMQigq5ecMnp/6lyl3JKaXIO1v/m5ebykZ/Ufb80ppFoxsUqF9NXcbFYh0dUgOqUuQYD3QQDt+SckJLDKxxvdLB8dh206dMMJGfNx3dZHheQVkLwnwVPelkdw/OS52KZ9NyxXXj/1H0h35UyA936AfOnNmzeRKjV6Y7/Onz07b6lSbqkbG8/aXwDoqJ6+vf+G2s5Ae/N3XGiYUiH9kpOHfswzCNkD9N7or169ivXq1eM2ILfbK1MmGJu36oAz5i3HnX85KqSvE9IvKlBYlHs/duzcC0NDw92Wtze+qqDP1qpVC61aUZBzEkQrgQXh6+lrAX5+eCN3nVJuKR8cwtpnACBu1f1PgqdCKehzgTSjXrZeqaASwngdxQsvvCArAF4s/d25cwe7d+e9nlmQbhX1WrUadXDStIW4bd8hIX0DkH5BAQHJjmSYXL0WtyN2q717770XSac5CdFqbT333HNuYV6UbdP/KkZEKuUUCi64J5YAUFb37A8AgQDw7+IE4M7/v5mfo1RYLSomsSqXFQvxcDqkjIwMVnm4o2tVq6XYZvsFEYq8ZtyzDZmL12LdBk19plfTp0+XAMCLSQFl/XTHjot7b+vKas+WnWHeWgaA3wCghBECAOrjxeIE4M7/30ifqTQAGFyvEatyLVy4UIzdQ2OnVMru6AbXe2vUqocLczbKbN+gs31Xg7P52euxes06PtGxrVu3il/w0C/MnTuXVWaUAl5ljZk302ey9hcAvjMK+VM/3+dyzNTO/iGjlAprXjvehA1Dhw4VQ/fA0F9//XWkQ5SculNcW+ERUThu8lwhfpMTv2OAQGc5xkyajWHh2paOproVx48fF9/ggW+gBGvF2bI7/1/UoYtSTnkybSxrfwHgHSMFAFS0gA2ANd16KxUWZYTi7G+LFi3EyN00cjr0p2WWPzpR3LFLb9y06wkhfwuRv2MgcP+ux7F9ak9NrxFWq1bNcuW6ObYHmzVrxuqjd/YbbChOAYBjRgoAtnIS6tSWbZUKi7tso+QCcP8WwJgxY1gNvCj9Cw0Lx+lzlwnxW5T4HYMAej5rwUqklaCidIbzfxMmTJAJgpsTBO4cAM+NmayUU7hXlQFgj5ECgHmcBtO7Vl2lwvp4xgJW46fEJHL1x/Ug4ODBg6z4F6V7NVLq4drNfxXyF/L/gw5QXodaddgztxWq10899ZQEAS4GAT/99FOhOBZl60X977NZi5RyyqB67LqUY6QAYFhR4Lv7v4bxiUqF9fPStezLgP/85z/FwF0w8O+++w7LlSvHbuDOOkZBWc++Q+UuvxD/H4jfcTVgx0NHsEfvwey+wFkX6W+a0Ur1QNcmCS+//DKrf6DreZT/ReUhwKaJFVn7DACjjBQAtClI6T19rVxwiFJhkSJUYD4QJCd+XTNu7gpfBekY5ZAfOX5GoY7fkQTkuXGv+nHJbvjYaexZ5wrSS6kc6pqP4L4ZVDkySjmfKEgC1M5IAUBSQQrvzWtXslcrFVqXajVZI7b09HRZAShmBeCll15ixbwg/QoIKGlLBsNFDtKONQKEKTOXYMlSpZTrJ81uOQ7JmbmN8ePHs8qhR83aSrnk8pLVrP3N92sVjBQAlAKA/yvIIXv62ofT5ykV2qzWHViF1qZNGzHsIgIAyoxWv359Vsyddat06WCcm5UnM39Z9vdIBzIXrcGg0mWU6mjDhg3x119/FV9RhK+gW1XOtu3N35ltOyrlEioy5E3/Cvjs/wCAv5ECAOrrhQIG4jEwjyuu3bx3wFCP+1bQOCMiIsSoizBq7sxezjKgfAIz5i73yPHLLN8as3xX5Dx74SosWVLtSsDu3bvFVxTiK+7evYthYWGsvvnB+9KUBgAH+XMAnDEa+VN/33J2yt78vTS1u1KhHZ88i1XJaKxUzc7MS3Oeju3KlSsYE6Ouahvd8Z84dYGQv8z8WXSASj1zV6Jz9IV0IPDSpUviKwoIAqiwmiNWHM+pBLzKA4AruvTk7vNLRgwA9nEIy94GXatQKbSr2WvQn7nc5JEjR8SoCzDqzMxMbgP5Q3tpozNYHL8rM0R5jzVWC4aOnPwHHbP7Ja7H+fPni68owFfQdUkujKkdqgJ4belapVwyoiF7zYm9RgwAMjkFVyc2TqnQKLhILst7HS07O1uM2smoaabDvaTnqGeduvYR8peZvxIdoKyBjrrG+Tw8PFxyhzj5ClphXLRoESvmNcvHKOeRJvxXAOcbMQDoyWkgVBZYdf3mXim8RUK6dOkiAYCTUa9atYrVoB11rHJSNdy277AS5y8zfWvM9IuSM5UXrlg5WZn+rl27VvyFk7/o0IH3cHb/OvWVBgBUuj40MJBbR3oZMQBIdnTOHM8pY5/KbYAF7TuzCo4OAsoJ3//e9b116xYmJiayYmzXqzJlgnHF+geE/GX2r1QHlq/bg3S7xK53nI/x8fF48+ZNCQLygwC6KcS9Wri4Y1elHPJlZpYK3SAuNdwPXVv4ldNAVN8EoPY5+0ttnThxQgw636AfeOABdnzt8po0baFSx1/UzFD+Z63VgQkZ85Xp8b59+8Rf5PuLd999lx3np4aPUxoAHBk5gbvPxKGGuwJoj1Y+sTtojkfVNwG+nZ/DLTzcsWOHGPRvvyFd56lXrx47vqRXDZu0FPKXmb+mOlC/UXMluly7dm2brXh6w8ZMn9uyZQsrxpQO/PsFuUoDgNXderH2GQA+tpOpER+f4CB+exuqbwLQ9kIl5qpgo0aNkgDgt99QVda/wKAgXH3/Q5o6f5nxW2vGX5C8V23Yh4GBQdzO3tYe2YqZiNzTsaSlpbHiS4e8VW4hU9tpDZqw9hkADhiR+O19zrWTN8ejFjcBBtblreJUvXp1MebffsOxY8dyG4atvf6Dxwj5y+zfJzrQd+BIJTpNqW89JU0zfa5q1aqs+A6t31h5AFArJpa1zwCw1E6mRnwcwkH89jboDiflWVYZxa3r0ZdVgLTs9OOPP1raoOlgU1QUf7312PgKuP1BOfVf0AxVXlO/SkE3TmLiElj9Bfm6smXLIh2YNROZuzuWc+fOseN6f8/+SrmDuIk7lwwADDIi8dv73MBO3lyPL47LUCrE1yfNYFe8/fv3W9qYuZN52HVp3OS5Ppn5CbmqJ1ejYDxm4mx2f0H6/fTTT1vaZzz88MPsuFK2V5WTx39MmMreZwCoaSdTIz5SUaC7dofN8biya0+lQryek4elS5ZkFSQtf7sbAZvp/YMGDWLFk/SofHQc7njwaQkAZPnfpzqw46EjGB0Tz67fQ4cOtbTPGDmSd3ulTMlSyvPIcK8eA8BNAPAzIvE79vldDuK3t9G3dj2lAQBFiPdUrMxq0AkJCZY15mvXrmFISAgrnqQLI8dN96njN8oMVfqpfrVi+Bj+mV9wcDD+/PPPlvUb5DPtPp/jsXXlKsp5Y1iDxqx9BoDXHInUqM+3cwjQ3kZCWLhyQc5o1Z5bkPjxxx9b0pifeOIJdiwjo8pJxj+Z+esmAKSzAKSTdh/F9Xjw4EFL+owPP/yQHcvZbToo542UaPYDgPcblfQd+z2ayyDs7ZyZm61UmIdHjGdXwA0bNljSmCdOnMiOZc9+w3Tj/GWGrX6GbQSM7+07hF3P09PTLekz8vLy2LE8OmqiUs64mLVSxQHA4Y5EatTnte3EzfV4YOhopcKk05xUe4Crv9RO9+7dLWnMSUlJrDjSrQpKx2oEUpA+Wic4WJ63B0k3OX1GtWrVLOkzUlNTWXEMCgjAK9lqb48pyABIGKQYlfQd+02HGG5wGoYWyzltKvPeQaU9vRs3bljKoM+cOcNqyKRDydVrCfnL8r8udaBqtRR2fT979qylfMb169exdOnSrDh2qFJN6YSRzo1x15HJPwBo2BTAjgEAPafDDGxC1eJAB6Ud5uwztfXcc89ZypgfeeQRdgzpwJXMrK0zszaSrIeOmsyu7wcOHLCUzzh69Cg7hsu73Ks8AGiXxF4l8k1nEjXy3xs4yTS4VCmk63oq73SqyAdA++Fmut5X3FimTZvGasy0xLph+2MSAMgKgC51YN22R9m3AWbMmGEpn6EiY+hbiu///5KTh3TNkJPjAGCdkQnfue+sGQEJ6JfHT1UaANzMXYeRpcuwCjU6OhqpxGVxxGmW/7ds2ZIVv4qVq+rS8Rtplip9Vbt6kliR98xL69atLeMvyDeWL1+e1WeULROMt5atV8oV/5w4nbXP+YFEH2cSNfLfVZmjI1Rd15lWFyjnAHe/X375ZUsYNFX/i4iIYMWvc/d+EgDI7F/XOtCpax9WnY+MjLSEv6BJzwsvvMCKHfluLQrIrerKXgHw3wAQbWTCd+57CQC4wkmmLSslKY3qKADY2vs+doXMyMiwhEGrOAA4dfZSXTt/mV2rnV0bAd8pM5ew+4xvv/3WEj6Drj1ycgS1tbPfYOU80aNmbe5+f+lMoGb4+ylO4Zb098efslYpFe6pOVnse3qJiYmWqPd97NgxVqPw8/fHTbv/JgGArADoWgc27XoC/fz8WHXfCoeHf/31V4yLi2PFjc4Mqc4ZQ2fRQgMDWfsNAPvMQPjOY5jGGQBQW4eGj1caANAqQMP4RG7h4htvvGH6iH7Lli2suMXEJuja8Rthdip91GaFgupUcPq6HTt2mN5fvPrqq6yYEf7NK1RWzg8vjc9g7zcAjHEmTzP8zZ4QaGrLtsoFnJPag13As2bNMr1BZ2ZmsuJWr2EzCQBk9m8IHahTvwmr7i9YsMD0/mL6dP6DdCu6qC0cRxPEhe07s8o6P3CsYQbCdx4DnQO4yBkZ14qJVR4AfDh9HruA4+PjTX8bYPDgway4yQFAbWavskrgPc6p3fqy6r7ZKwPevn0bY2PZ8+jjp7MWKueHZhUqscoaAC4BAHGlKX+e4AwAaI/n7LylyoVcs3wMt5CR9sjNct2voHG0b89bUGn42GmGmP0JgXpPoEbHMG0077Jwp06dTO0rDh8+zO5f68bGK+eFC4tXqMj/f8CUzJ8/qHTOAIDaevC+NOWCVpDmEQcOHGhqo65fvz6rUc9asFICANkCMIQOzJy/glX3GzZsaGpf0a9fP1a8iBe0uCb+2JBR7P0GgLFmDgCqcwcAVIOZ9mJU/lImKe5+BwUF4cWLF01r2Nz1uy59nwAAIABJREFUvBcv32wI52/02av03/sVjEW597P6i4oVK5rWT5w/fx4D+U/R47sZmUo5gfhmTJN7WOWczzEVzRwA0NjOcZJpeFBppFSMKgMAajspsiy7sOmkfEHL52Z4jTsJEFVbE3LynpwEQ/UYLsvbzeoroqKiTOsn7r+fN1gibqkaVU45H1B2wZiQUFY5A8Aps5M/je8RzgCA2jo2epJygU9v1Y5b2Ni0aVPTGnaZMrxplPO2PCIBgGwBGEIH8rY8zOorQkJCTOsnGjVqxIoV8YEW1WIVpf/dZoUAgPY4WIU+sVkr5QHA21Nms/bZjsEHH3xgSuMOCAhgxWvL3icN4fxlhq1+hq13jDfvOciq+6VKlTKlj/jwww9ZcbL7VC2W/zPbdlTRd1Pl/y8smKkAAJTrmA3A+LBwvK244ANtA9SJ5U3wQRhMnTrVlMbNKV9qa+dfjkoAICsAhtAB0lVu/TfDtqDzGCZP5i+f3CA+UflkkLggJZr9Ztj/A4DwwkjTbK9/wG0gtCSj+hzAmm692Q07LCwMr1y5YroggFu+ep/1Sf9k5u+oA9z670yeRv/70qVLGBrKvoeO63v0Vc4DlF+AW74A8IbZSL6o8SzlBnBOm47KBf/dglykGgTcfaeDMEY3aOf+c2Pk6FzluZCt3nWAW/+d7cvof69bt47dj5Jv/n5BrnIeUFD9j7CYWxRhmu1/DbkNpFq58soFTysM3WvUYlfcatWqma5AELd89e7wpX8SlDjqALf+G53wHftPhX+qVq3K7kd7pdTRhANaVExi7zsA1DQbyRc3nm+4jeSDaXOVK8B+Nckf8OjRo6ZaBeCWraNzledCtnrXAW79dyRQoz8/dOiQCgLFvw0bo9z/f5nJXyEWAL4qjizN+H+68sCqCNmduilXgGtL12Jkad4rboRDly5dJAAoQh/07vClfxKUOOoAt28zOuk79j81NZXV7xPW5YJDNMkHQwWGuGULAOvMSPDFjakLN5B0MlP1QUBqn64dcved6hp8+umnpgkCuPFxdK7yXMhW7zrArf+OBGrk55988gmSr+PGZ0qLNpr4/vpxCex9B4C2xZGlGf9fCgCucyvCm+kzlSsC3TPl7je1N3HiRAkAClkF0LvDl/5JUOKoA9z+wcik79j38ePHs/tOCii02P79aMZ89r4DwBUA8Dcjwbsypse5DWXyPa2VBwC0CtCmMv8hFsqJ/e2335oiCOCWq6NzledCtnrXAW79dyRRoz4/e/askrz/7aska+LzqcAQt1wB4K+uEKVZ3zOMG9CoMsGa7AWpOgw4ffp0CQAKWAXQu8OX/klQ4qgD3H7NqKTv2O8pU6aoIFBNDv/RpE9FWXgA6GVWcndlXJEA8Bu3sTyhwWnQG7nrMDE8gl2hKYf+uXPnDB8EcMvU0bnKcyFbvesAt/47EqkRn//www9YunRpdn9ZMSISb+auU74C8Eb6TPa+A8A1AAh0hSjN/J4j3MbSp1Zd5QpBEWFOag8VSoHz58+XAMBpFUDvDl/6J0GJow5w+zQjkr5jn2fPVlNLhU7lky9W/TuuaQsVvv4BMxO7q2MbxG0spfz98YeFy5QrBX1HEHPRG8KC0gNfvHjR0EEAt0wdnas8F7LVuw5w678jmRrt+YULF5Sk/S1dsiSe08DPX81eg1R2nlumANDZVZI08/uCAOAXbnA39eqvPACgqHN4w6YqFAOzs7MlAHBYBdC7w5f+SVDiqAPc/sxopO/Y34ULleTOx9GNm2vi4x8YMEyFj78EAAFmJnZ3xvYQt8E0SayoiXIcnzxLhXJgVFSUoVcBuOXp6FzluZCt3nWAW/8dCdVIz8+fP4/h4eFKfCSVaFe99E/tt0tKVtH/7e4QpNnf24nbYKi996ZmGllBcM6cOYZdBeCWp94dvvRPghJHHeDWfyORvmNf6VYTNxbUXocq1TTx7Z/PXqQkcZFVk/8UFshQIoQfuRWFDm5oESE+M3qSEiWnU7N0d9bRoIzynFuWjs5VngvZ6l0HuPXfKHbv2M/Tp08rufdP2D4/drImvn1B+84qfPv3AOBXGBla9fUN3EZTpmQp/HHRck0U5Z6KlVUoCo4aNUoCAADUu8OX/klQ4qgD3L7MkViN8nzo0KFKfGKzCpU08enXc/IwPkzJ9sVyq5J8UeNuxG001N7a7n00UZaDaWOVKLu/vz9++OGHhgsCuGXp6FzluZCt3nWAW/+NQvr2fr7//vvo5+enxCceHjFeE5/+0MA0Ff3/NwAkF0WEVv7fZ9yGUyWqLN5atl65wtxeth4bxCeqUBjs0aOHBAB/FdLTO+lJ//6ro9x+zE6sRnlUUfGPMK0Xl4Dka7XY2m1eQcmq7qtWJvjixr6I23CovadHTNBEYR4eNEJJAEBjePnllw0VBHDLUcjlv+QiWOgfC279NwrxUz///ve/K/ODjw0ZpYkvf0vR7S4AGFkcCVr5/3EA8D/cxtO1eoomSkMpKauXi1ai/A0bNsQ7d+4YJgjglqGQnv5JT2T0Xxlx679RAgDyUfXq1VPiAykXvxarubS6MEJNfpebABBiZYJ3ZewHuY3Hr0QJ/GzWIk2CgN39hyhRfsJk8+bNEgDIVoAciDSADnD7MKMEABs2bFDm//bdN0wTH07ZBSnLILcMAWCvKwRo9fd0VAA8Tm/VThPloSJBNcqrWQWIjIw0TKEgbhnK7PK/s0vBQv9YcOu/EQKA77//XlnSn5ToWE2K/tDsf1nne1WQP7XZ0urk7sr4SwDASW4DolzOF7NWahIEHBg6WpUC4ejRow2xCsAtvxXr96L8CgZG0QFu/TdCADBsmJKUuTZfSrestDj4d23pWowNDVPhvz92hfzkPf9BYAa3AVF7WlWOIkVVlRegRIkS+Nprr+k+CFAhP2kTVDgmadOh5oRedUzvAcArr7yiKmMetqyUpAn5k9/e3megKnuYIOTuOgIRAHCL2xijQ0KRKjtpEUm+ND5DlSJhgwYNdH8gkFt20p6Qv5V1QM8BwO3bt5Ud/COZ/2PCVE18Nh0wpIOGCvTsGgAEu05/8k5CgGolswvj/p7aVAmkIKNbjRT2/tsx2bRpk65XAez9lEd+HRZMrYepngOAvLw8ZX6uZ0odTcif/LXCrduNQunuI9BAhaNLDI/AX3LyNFEqKkbkrygbVnBwMJ48eVK3QYAK2Umb1iM+kfl/ZK7XAODLL7/EkJAQJQEA+c4Pps3VxFdTAKAo8Q9l/qvuPv3JJwiBd1Q4gD39h2imVGkNmigxDsKlXbt2ePfuXV0GASrkJm1KAGBVHdBjAPDrr79i27Ztlfm30Y2ba+an/z52iqpxPCtU7jkCo1UYPF3T0yqhxKk5WarulNoUdtu2bRIAKNgqUqF30qYEMJ7qgB4DANqG9HQ8xX2OCrl9NTdbswCgU9XqqsZyr+f0J58MBIDzxSmLJ//fr1FKSVpaWtyxqyrlwtDQUPzqq690FwR4IhP5jBCk6EDBOqC3AICW/mkbUpW8clJ7aEb+L4+fqmocp6Xsr/dBzDwVSqZlUQm6W5pctpwqJcP27dvrbitAhcykzYLJQXAxPy56CgBo27FTp07K/FnVqHL489K1mgUA7ZKSVY1lovf0Jy2EAcAvKpzckxoll6BVAPouFWOwt7ljxw5drQLY+yWP5icnkbF6GespANiyZYtSX3ZkpDbF28gvvzBO2d7/RQAIEvrmQWC1CidTK0a79JKkbN3/f3tnAl5VdfX9ZQIhDEkEQggzJAgkzAgIyDyJzIPMk8zIKBhASCCBBBmDFqGWqm9btZYKDlCnFkVqtVYLteIILVJkUkERNKD91PU+6365vMeQm9x7z95nuv/7PHnuybnn7HP2b++91trTWo3TtTUcWYn77rvvOsYI0FFeSFO/ogFjZzJ2igHwwQcf+KYdddWTwenNLev5i0zuUj9Vl0xerkb1IRUhUJ2ILuuodA+OGGtZhZOARLFlyuiqcNymTRv++uuvHWEEJCQkaMunjnqANJ2p+FAuxBIDxAkGwKVLl3xOyHSViQTg+WBxpmXy+Lkps3XJqEtEJM7s8FFI4Bc6Kl7d6yuzzNGLNWjF34oefXVVOl+6d955pyOERZMmTbTmU0ddQJowApxYB9LT0x3RpufN07ZYzicrVvXqZ4kM9sv5jnUb6JJR+Qr1HpIqJJBCRN/raKAbbx1iWcUTV8T1K1fRVfF8/riffvpp2wXGlClTtOVRRx1AmlD+Tq0D06dPt7097927V5uvf+GeUqWqpQv/duoL2PZfIqoLra2HwO91NNKqFSpaFilQrM+9k2dqbUxJSUksoTntHDYUI0RHWSFNKOpIqwN79uyxtS0fP36cExP17WKSAGfPT7nDsk6YzpDtRPRrPaoPqQqBlkQkrhWVK5fl3ftYVgHFCJjcpr3yPBi5iJdA8dRllxEgz27durXWPBrzi2P1bQJM7WfaokUL29txjx49tLbj6e06WSp77xs0XFd+ZIS6MVS1XgJ/0iGYKsWU4+PLciyriGcz87hmvN6FcqtXr7bNABDDY9++fRwdHa2rsSFdDYawjraFNMMzJMqUKcMvvfSSrW04MzNTazurk1DZ0tHXz1fewxIVVlOd/JVe1YfUhcBNmgqPZ910s2UGgIwCPDVhuq6K6Es3KiqK7R4+3LRpk9Y86qoLSDc8pQVu6rjl5+fbqvx3796tdapShv5lOtS/KM+Kb42LsGXuPxUq2hoCe3QImjJRUSwR/KyoiP5n6AwWJIzEVfA777xjqyDZvn07ly1bFoYAeuyoA0HUAen5r1271tY2Kz5FdG/ltTLYj8jbj5dmc8WYGF11UMLX42MRgWZE9IMOI+DmeilcsGazZUbAp5lruZbmqYDGjRvzuXPnbBUor7/+Onfu3FlX40O6QSgWHe0Faarr8QvLLl26sLQVu9buyHPPnz/PaWlpWttUjbh4PrMizzI5KwbAhNbtdOVJev+ySw0fCwk8pkv4PDJqoqUV88kJ03RVzKvpDho0yBHxAl577TVeunQp9+nTh2V/c4MGDfAHBhFbB6QNSFtYtmyZ7YpflL/4+R82bNhVuaFLxj4xboqlMvaVmfN1TmfssFDv4VGFBGS+RSwv5ZVVeuSyWMQ/TG/F90R91ulVPnYvCrSzV4Nnf2drrxL83cF/5cqVV+WFDtkqaVo99P/16k3cqmZtXfn6jojqQSvbQ+ABXZX0ri49LTUAxOC4IbGarkrqS1cWBe7atQuK4Dt3CGMoTZSTlXVg586dLDJCl0yVdBtXS+JzK9dZKlu3Dh6hM0/32qP68FQhUIOICnRU2JjoaH57wTJLK+pf71jE5TTGChBO5cuX5wMHDsAIgBGAOoA6cLUOyNRchQoVdCpKn2z725zFlsrU0ytyWRy96dARRHSBiKpCFdtLYKOmwuWeqY0srawy1bC+32BdlfVquuLV67333rva+K3sZeBZ6NWiDjirDnz44YdcrZre0UeR0VsGDrNcnk5t2+Gq3NOgJ5baq/rwdCEgFthXGgrXV3F+N/Z2Syut7EC4pZHeFbjCqmHDhnz69GkYAegFog5EcB04deoUp6Sk6FSSvrQHNGlq6e4q6Uy9OmshR113na68nSCiWKhgZxBYocsAkGiBVi8IPHH3ak6Oi9dVca+m27FjR/7qq6+gACJYAaA37qzeuJXlceHCBW7fXq9LcpHLsqj61PI1lnakLuZs5GbJNa7KOg36YZIzVB/eQgjEENFRDYXsq0BWewgU6/XFqXM4WvOCHOE1YMAAvnz5MowAGAGoAxFUByRWx9ChQ3UqSF/a0gO3MtCPf8dWdu9bdebtn0QUBdXrLAJDdBkAUon/OG2OpRasVGQJUKQrT8Z0Z8yY4QgfAVb2fvCsyO35RnrZy15/q8J1r+rVz3K5+c+FyzhW72LqPs5SfXgbP4HnjYpN5XH9ylUsnwr4Zs1mvrVxuiVGwNy5c9EDjKAeYKQrwUjO/6JFiyyRKQPTmlk+7y9rqLqnNNSZv6f9ygbfziNwAxF9q1LxG9Oa16mr5dbsZ1n3cJNq1XVW6KtpL1++HEYAjADUAQ/XAfHCaZRpuo4bJSaxuDn3D8lb9b1tyEid+btMRA2cp/bwRkYCm3VVapkK2D9jvuWV+tD8pRxXrpzOin017by8PCgADyuASO75RnrexROoLtloTDc+NpZlGN4qpe9/zid3r+aE2PI685hjVDQ4diaBOCI6Y6yQKo/Fsv1i1XrLK7f4zpbwmSrzEiit9evXwwiAEYA64KE6cO+991oiO0RGWb112m8AzOnYRWceZdtfBWeqPLxVUQJTAik3FecXd+lhuQEglXxZt946K/jVtKURSwjfSO8xIf9YKOiFOrBt2zbLOg+ZPW+xRTZ+mrVWtxfVoUWVDP53LgHZovE3Fcq+uDRke96fZy20vKLLokArnARJnsUI2LJlC4wAD/UCvaDMkIfQjLLNmzdbpvzF2Y/IKH+P3Mrv346ZfLUDU5zMNnnuReeqOrxZIALtiOgHkwUfsFKlVKnKYnVaWcnlWfLMptW1Orj4SZ6xJiA0gQsFBV5OqQNWzfmLjG1RoxbLgmWr5aH/eXd27v4TuaVQ7sui8kaBlAzOO5vAzxRWhGsq2IhmrWyp8MeWZnPthOuveR9dec3IyMBIAEYCUAdcVAeysrIskw814xP4aMZKW2Sh3wAY2/JGXfnNdraKw9uVRKASER3XpRgl3QdHjLWl4r859y6OLxerq9Jfk+6CBQvgLMhFCsApvVC8h7UjIuLkR3x66JR5xrRlxf/BeUtskYF+5S/fmgyA9wu9zJakY/CbwwmI16YfjZVW5bFszzt853JbGsDeyTO5bHS0ZY1dPAaKC1EIdWuFOniDdzB1QFx6W+XhT2SohEx/bspsW2SfUfnLsSzMVinXC6ePOzlct+H1giTwsOLK8ZPK1rpmbf4qZ6MtDeGBYaN/8i468ylpDx48mCWISDACCddAcaEOWFMHLl68yLfddptlskAWCf9y+BhbZF5R5S//P65+EeD9QeoWXOYCApV1+gYQxSiLUIqrmFacsypmgN+46NChA0IJYzoARqBD6oCE9LUiqp+//ct3lk3b/QLJU1mAqND//0kiineBXsMrhkBgmLECqz4Wi1iG5ANVUJ3nxf/1pDb6w3oamTVs2JA/+OADKAGHKAH0tK3paTuN83vvvccpKSmW9fxFBkxp28EWOVeaDJ3fqasqDoNC0Cu41EUEnjAqMdXHSZXi+OOl2bY0jq9Xb2LZlaA6TyWlV61aNX711VdhBMAIQB2woQ4cOHCAExMTLW3zo1q0ZpE1pSljO34XV8DVKlYyy+MxF+kzvGqIBKoT0fmSlJrZ3zrWbWDbeoCLORu5f5OmZhtASPdXqFCBd+3aBQVggwJwWm8U72PdKMTOnTs5Nta6XUAiFwelNeNLDlX+foNj3/S5vsWJYcrxQ3D3G6JGdeHlE8OsHEErxhntO9lmIX+ZvYF7pTYK+l1VsIiKiuKcnBxsE3SZEXDmzBmWPyhu6xS3WdayzW/lypWWeffzy4feDRvzhewNtsk1v4IP5lumYuNjY0Pd+fUXIkpyoT7DK4dBYLe/Yuv6/vnQUbY1lvOr1vHN9aydFxSOQ4YM4fPnz0OhONQQEGV/zz33cMeOHbmcIbqk9CQ7derE69at47Nnz6L8HFp+586d44EDB1pq3Eu77lI/lUWmBKN8nXLNY2MnzSeivUHI90tEJFH+YsLQI7jFpQSqENEnQVSOsBtbuTJl+FUb4gX4G6C4DL6xVp2w3z9cNmlpaSwLk8z2dHC/ul6p9Bo3btzI119fuvdIuUb8x8s9KAN1ZWCW5eHDh7lRI2tH9kQGtKtd11YXv355Fsr3ldz8Xxj0Ulsi2kBEB4noLBFdLnQO9wIRzSWiaoZrcRhBBLoR0ffhKrpg7qsVn8D/WZZjm+V8ekUuN0+uabkRkJCQwE8//TQUiAN6krI/fMSIESHXAdlTLveaVVy437wRsXv3bo6Pjw+5DIORUSVdI/79z6zIs01+haL0/ddeyc0/zDk7ELY3ghS5mazmldQAVPwmQ/GyOM9fQa3+FiPAjpEAWReQnZ0Nz4E2GgHSix8zZkzYimPcuHEwAGwsP/Hsl5mZafl8v8g96fm7Tflfzs2/9N09m5uYUQi4N7IIlNUZNthvQMy+qbNtBoAYHDIdYMeaAMl/z549+cSJE1AkNigSiQPvr4Phfj/wwAMoOxvK7vjx49ytWzfT5RdOucucv52R/cLsJP14OW+L+HrBBwRCIpBKRBfDaSih3LN9yEhbjYBzK9dZvjvAz0f8BezduxeKxEJF8sUXX3BSUpJpBZKcnMxffvklys7CspPpM6v39/vbqqz2d9uCPzEYCtZsXh2S1MfFIGAgMMnfAHR9R0dF8a7xU201AiReweD05qaVQjiMxFOiRCm7dOkSlIkFymTHjh3Kyvmhhx5CmVlQZtI2JPS2TJ+F08bM3nNr43SWbcRh9sBtu68gL/9P/MQT0QZ5jkMQCJnAb802oNLul8iBb8xZbFtDkYYt6xGs9hho5NKmTRt+//33oVA0KxQJ2mTkbuZ46NChKC/N5fXuu+9yq1bWevI01gnx8Od0Jz8BDJP/XMrZnBiytMcNIFCEQAIRHTM2Ch3HNeLi+UhGlq1GgLjytDp2gJFlXFwcb9++HVvNNCoVlf7hU1NTYQBoKitZqLl161auVMm0C9uwDT7x7e9U974BlL5ffl4pWLP5xiJyHP+CQNgEWhfuEw27MRkVXaDj9OrJ/GnmWn8ltuVbAgit6NFXaz4D5d9/XhYIHj16FMpFg3IRF81+zma/JS1s5zO/na8owyNHjti20E/qhEzLOS2qXykK/yey8krulilhS3rcCAIBCIw3KzCDuV9W2jrBtabE9C4bHa1MWQSTd+M1olzWrl2L7YKKjQAjYxXHRZUX/g/fIJBev4yA2dnrLxMVxXYvTA5F2Rdz7bYA8hunQcA0ga0qhGZpaYxs3lpWr/7Eqi2momv//bkps8V3tm1GgHC6+eabsTZAoRFQWt0L9Xco/PAVvpGd3b1+KXdZi7Rn0gztckWXLLuSl/8i5+SUMS3lkQAIBCAg/gFeDVVIhnP9sm69HdEQ35qbwTXjE2w1AqRHtGXLFhYHKEahiePQlU84dbGke1AGoZeBkVlBQYHPHbPKqZmSyivQb7UTrueD85Y4QuaEYyBcyc1/78v162W9Fj4goJWAhA4+GaghqTyf23eAIxrksaXZ3LJGLVuNAOHaokUL3r9/P4wAEyMCKuunpGVUZjgOzRh4+eWXuVmzZra3q6bVa/DRjJWOkDXhKP/LufmnL+fl19Eq9ZE4CBgIdCCi71QL06LpyWKc+wYNd0TDFK+B/Rqn2S6shMnEiRP51KlTUD5hGAJF65jZ/6H0Q1P6wuuTTz5hcacsddksf7P392/S1I3e/Ywy8dI3a+9tZZDNOAQBSwjMMtv4grlfhIRTFuXIugQZlYhygOCS6HT5+fmYFgjRCAimzoVyDQyA4A0AGe6XOitBsUJhrONakSt3denJ3zhgrVGYvX4xAr4vyM0fbIm0x0NAoBgCD+lonEXTFG+Bj46eaLR6bT3eOfZ234Khou9px/8tW7bkffv2YTQgSENAdRnBAAjOAHjxxRe5eXN7vG0WLXNZ2LvbZu+jgZT+2cw8PjR/KX90V1apu6EKcvMlbC8+IGAbgVgi+mvRBqbjf9mS56RG+48FS/mGxGq292T8rPv168eHDh2CIVCKIeDnpeobBkDJBsBbb73Fffr0cUw7aVKtOv9z4TJbOxBFlb8sNJ7RvhNLmHRjvZSRxpvq1Od7bhlU3DTFetukPh4MAgYC4m7yqLHi6jqOiY7mZyY6Z5uORAazK4ZAcYzFV7rEuP/oo49gCAQwBIrjZuYcDIDiDYBjx47x9OnTOdpGXxpFy1V8+tvtaMyo/OVdxra8MagpxcSKlXjH8DGFhsvm33NOTpRBBuMQBGwl0IiIzhdtcDr+rxgTw/umz3WMBS9ziOI50AnrAvy8Y2NjedGiRXz27FkYAkUMAT8jVd8wAH5qAJw5c4YXLFjA5cqV+0lvVhXvcNKRKcRVvfo5wreI3wB4f/EKblwt9KiUo1q0+eTkokXlbZX2eDgIFEOgMxFdCaeBhnqPGAHP3j7LMUaANGpxGpQcF+8YoSdMZaFgVlYWDAGDERBqXSvtehgA/98AEMW/YsUKRyzwM5aZDKu/OHWOo2SFjBymJSWbkRUI8VuMAsIp+wmMJKIfjA1Q17FMB8hiPL9F7YTvk8vXsAwz6spzuOmKIyEJOXzixImIHxEIl2Gg+yLdAJDtqGJkOmFlf9EyGtCkKZ9avsZRMkLklAz7F33XEP//kYi62S/u8QYgcC2BZSFW5rAbgwztPTRinKMauGwV3NR/KJcrUybsfOniJ8OyMi/78ccfR6whoJptpBoAJ0+e5IyMDLbbg19x5SltT9qgE9yJF+2Y/H1ehqrpwjeJ6LprxS/OgID9BH5RXMPUcU6MgP9bHJPvGGPgr3csctQuASN7MQRmzJjBEms90hSYkYOK40jjd/jwYZ8RGRMT4zgDV8pT5tXfnHuXY+RAUQNgertOKrkh5K/9ug5vUAwBCUjxnAoBG0wa4tTDKR4DjQ3+85X38MTW7VQ2eKVpCTfZorVnz56IiToYTH0K5ZpIMACuXLnCzzzzDPfu3dsR3vsClc/tN97E51auc6zyF9lQdKtfoLwEeT6nGNmLUyDgCAKViOhQkBXZtGITZbb2loGObPziv6CGwxYIFi2Xhg0b+gIOnTt3ztOjAkXzbfZ/LxsAn3/+uc9zX2pqqun2aZZzSfdLsK6nJkx3ZNs3dgjOrMhTzXG3IyQ9XgIEAhBIIqIPSmq8qn+TKIJOnPuTxj/BwaMB/nKIi4vjOXPm8D/+8Q9PGgL+fKr69qKiQ0oyAAAXBUlEQVQBIA6lZs+ezVIXVHHSkY4Y/ZPbtHfU3n6jwi96/PaCZap5vh5A7uI0CDiGQC0iOqZDAARKc3izlvxl9gZH9gj2Tp7JdRIqqxYEWtJLS0vjtWvXeirwUKA6E+55rxgAn332GW/fvp07dVI6R62lXkpZyYiakzyDFlX2xf0v7n3DrWcB7tvnGCmPFwGBEgjUJaL/BKjEqhuFL71uDRqy+NUuriHafU4iC05t28HR86nGspJFg/379+fHH3+cv/nmG1ePDBjzpeLYzQaAzO2/8MILPH78eC5fvryWdqiCsTEN6fVL25E2ZHc7DvX5F7I3qNoB4C+r35Qgc/ETCDiKQGMi+tTYmHUfp1dP5iMZWY4VFH+4fRY3qFzV35hd8V2jRg1euHAhHzhwwJULB1XXObcZAKL0X3nlFZ+3vuRkU85oLK+vqVUS+fkpdzi2PQdjEHSoW18ltymOkvB4GRAohUBzq1wG+wW9eOd7/Y5FjhUaX+Vs9O1ZrhTjHNepfnalfVerVs3Xe3zqqadcMzJQWp5C/d0NBoAo/f379/ucQdWsWVOlArIkrfJly3Jmj76OndYLRvH7r1nXb5AqZt8RkayxwgcEXEWgHRFdDFXQmrk+rlw53jPJOUGE/MLA+P3B4kwWz2Vm8mnnvWIMTJs2jZ999lm+ePGiY6cJVDNyqgHw1Vdf8d69e3nq1KmcmJjo2nolwbZk7tzYVtx8LFuDkyopWVy51VVSHy8LAgYCEjegQLUwLim9MlFRvH3ISMcLkqcnTmcZ6iwpL07/TbzDiX+BTZs28dtvv+0oY0A1OycZALJzY+PGjb79+m6Z0w9UHg2rJjreaA/XEBHHZYHyHeT500RUzSBPcQgCriPQx6rgQcZGNfumznwxZ6OjDQHZwbCyVz+WoU/ju7v1WIadJ0+ezI8++qjtOwpUM7TTABA//I888ghPmjSJZW2G6rzZkV6FsjGc07s/y4K5cBWsG+4b3bLNqTD5SsC1m1wn7fHCIFAMATECvgmzIYQt8DrXT+H/LMtxvICRBYziSVDcHVvNSOfzxOnQhAkT+P777+eDBw/y5cuXLRslUJ0vqwwAYSSstm7d6lt34XTnPKFyljoue/r/tWSV49ulAgPjieM5ObFEJHFTQgmeJj3/DsXIUZwCAdcS6GL1mgARTuKS89VZC10hbA7OW+LIKIOhCvlA18fHx3OvXr04MzOTZUHh0aNHtRkEgd4h3PM6DIBvv/2Wjxw5wk8++aQvxG7Pnj0d75QnXH5y38C0Znxo/lJXtEXTyn9N/s84JyfKIK0lqt8bpfCTBX/3Y9jfQA2HniLQhojOldIIlPeCJWrYz4eOco3gOTBzAcvohdWc7HieGAVt2rTx9Xbz8/N9+9VlyNuswlWdF7PvI+5233jjDX744Yd9q/RF2bt50V4ofNvXqcd/nDbHNe3PpPL/vmDNljklSG2RgdlE9CQRiYe/l4no10Q0Fav9S6CGnzxDII2IZIjLcgUnjkVkO57JBm7Z/c/ePoubJXtjzjfU8q5cubLPMBgxYoQvHK0YB+KgSJTohQsXSjUQQn1eadeXZgCI46SPPvrIZ8CIkhfPihKSWRR9gwYNXOMMqjQOofwuEfseGz3JkS67NcmArwty8wd6RlIjIyCgiYA4CzoZijBRdW3Hug3446XZlilxs4Lm0upN/MvhY3zhT1UxcHs6UVFRnJSUxOnp6dy1a1cWI0F82mdlZfF9993Hjz32mHLjUtKUtOUZ8ix5pjxb3kHeRd7J7VxVvX9aUnV+aMQ4/nr1Jte0M7Pt9HJu/pmCtfdK7x4fEACBIAjUI6J/qRI6oaSTWLGSK6KKGYXSN2s2+3yi31irDhSNDaNHodSvSL1WRqseHDE20hQ/X8nNf/dK9n3iBh0fEACBEAgkE9G7dghM8TU+p2MXV00J+A0CmRq4qY5SV6MwKmBUhF0HxO2tBOxxYnROf5vR9V2Ql/+nL9evTwhB5uFSEAABAwFxc3nIDiNAntm6Zm0+fOdyVw5Vir/07ikNwxbcdjHHc61f/6KDeY+UG/iFqe722W/SMNjGOTllDLIMhyAAAmEQqEhEf9AhpIJJUxzxbOo/1JVGgAiwN+Ys9kVOE+cqweQX13hDAdtRjrKjRsJwy04Vk8rTzfdfubImX1bt4wMCIKCIQDQRbbNDqPmfOaxpC8eGFg5G2EpYZDFk6l5fGYYAhvSV1oEacfG+QD0nl69xs+JW8e4nCtZsljgn+IAACGggsJSIfvQrZau/U6pU5T+7xHFQIKNAVl//buzt3LVBqlIlYHVZ4Hn2jlTIOhmZYto59vaIW9hXXNu6smbL8xdztlTRIPOQJAiAgIHAKDviB/gVjrgrXdS5B3+xar2KHoOtafx9Xgbf0aEzV6lQEcYARgWCqgOyS0YWyB6av8TWulucEg7n3KdZa/m3YybznZ2787hWN/LYljfy4i49+PExk1mi9gWR5o+Xc/PXF/HsZxBXOAQBEFBNQCIJnvcrZTu+GyUm8csz5gUjIBx/jThAkp6chCIuGx0dlCKwgzmeaU+vPyY6mgelNeMnxk1xfBCtIBS2rz1+cvdqntuxC8u6hUD1KrZMGZ7fqSsHmtooyM2/eDlvyzDVwg3pgQAIlE4glYiOBGq8VpyXYVDxIBhkT8HxhoAIzzMr8njbkJEsTpGsYIhn2KPUg+EuTnty+w7gE3evdkXdDUb5y3ZE8UcQyqhX1QoVr93RsCb/w+9y7xXPpfiAAAjYREDiYf81GGGm8xpZG/DiVO/5M39rboZvuqNB5aowBiJkiiC1SqJvCFymh4JRqG665p2Fd4cdR0NGQfZOnuljciVvyw7O2VHBJpmHx4IACBgIlCOiB3Uq+GDSltGAGe078WdZQc0buk64vjn3Ll7Roy+nV0+GMeAxY0C89GX26Mti8LlJoQf7rhdzNnJ271tZhvSDacuBromPjf3xV6MmzjbIHhyCAAg4hMBMIvo2UOO16nzthOt9i4qCFU5uvE6cI8nQcNvadSMykI1VdUnXc8RYlSh8eX0H8ruL3OnoKth2I+G+FQfN2usQeYfXAAEQKEKgAxGd0iU4Q0m3Z2ojfnvBMk/2qIzC919LVvnCKd/WvBXLXGkojHCtdfP/snp/ZPPW/MCw0fzvJas8Xy9PLV/D09p15KjrrtNRJ7HXv4jgxb8g4BQCiUT0khOUi6yoly1TstXIqDS9fCzbw2R0QAwgs0OuTihDt75DmagonytrGdp//Y5FLAGjvFzv/HmTfMoiPzF4NJbdBqcIO7wHCIDAtQTEB/d9GgVASMKlZnwC/3rkhIgLiHJ+1TreM2mGbyHhzfVSWNwqO6VMvPYe4upZGMsedlmsJuz9SjFSvvfPmM+tata2oo4dvFbk4AwIgIDTCIwnogKnCHvxvndwnjccqISjVGQx1muz7+QtA4fxmJZtWHZPOKVs3PYeslpfnNbcO3C4r4d/afWmiFP4/jr48dJsntC6nZXrUT51mqDD+4AACBRPoCUR/dspAl6GZmW3gAgtvwCL5G/ZYy7hYmWoWuItNK6WxMLIKeVl93sIC2EiQXYye97iYyVObCK5zvjzLv43ZGdKxRjLA11JpwIfEAABlxCII6JH7BbmxueL0FrWrTd/mhk56wP8gru07wvZG/hvcxbz/9w2njO69uRbG6dz/cpVdC3ocoSxIYvVJI+SV8nzr0aO9zEQL42l8Yq032W0Y+vgEZxUKc6usjvuErmH1wQBEDAQGEdEF42K2O5j8Ui2vt9g/jJ7AwR9bn6JDEQZyra156bM9q1mX969j89/u8x910mozBKnwe7yDPR8eTd5x871U3h8q7a+nqusyJe8vLdoBUPRl1z2fiPn9+Om+EZEAnG26PwLBpmCQxAAARcRaOAE74FFBZUohx3DxyCyWilGgF8RFPctawxkakXWWfxx2hxf1MP7B9/GOb3784Kbu/nmiaWHXZS92f8lTZmDlmfIs8SVskRclHeQd5F3iuQ5+uLKKtRzz0+5w0nuqee6SN7hVUEABIoQkF0Ca4joe7PCX/X9aUnJvGv81IjbMRCqQjBzveoyM/MuuLfknr8YUTJqorrMTKR3iYhkqzE+IAACLifQlYhOmBAG2gRTixq1+NHREyNm/7aVilB1eVv57pHyrJemz+PuKQ21tS8TdSDH5TIPrw8CIGAgUJmIdpkQCFqFlIQd/sWw0Z4Jw+oEBaa6rJ2QJ6+8g/T4e6U20tqmTJT/X4goxiA7cAgCIOARAhOI6LwJ4aBVaMkaAdk//8Wq9SUulPOKItCZD9VlrPNdIyFt8d4nayba1a6rtQ2ZLPdDRJTkEVmHbIAACBRDQBr4700KCq1CTLY+iavdSHIvrFoJqi5f1e8XKenJds+fDx3FMsqlukwUp/coESH8bzECE6dAwIsEhhDRacVCRKmQS4gtz/M7dfV8NDcdylB1uep4Ry+nKYF61vQZwMlx8UrbhOpyJaJPiGiQFwUc8gQCIFAygQQi2kFEP2oQLMoEnziQkcA7j42ehC2EQW4hVF2eXlbWKvP2xpzFPLVtB5a4BarLQHF60ual7ceXLCLwKwiAgNcJyE6BI4oFjBYBKL71ZXpAelgqBbfX0lJdll7jozI/4uBIjFMxUlVz15TeUSLq7nWhhvyBAAgET6BiYXTBHzQJHaXCUXpY0tN6a24GDIFiRgVUl6FKhemVtN5fvILv7t7HDcP8/rb3LRFlY5V/8EIRV4JApBFoS0RvqFYgOtO7sVYdzh8wjE9iVOCqMaSat1eUttl8yA6Vh28bx90aNLQyMp9fgZv5fpGIGkWaMEN+QQAEQidwHRGNLFwgZEboWHqv+KKXYdgHR4yN+K2EMABK9r4XqiHw+h2LeE7HLixxLVSz1ZzeSSKaFLoIwB0gAAKRTkCmBcQrmAwdukrwyQ4CmSIQb2sFazZf7RmHKvjder3q8nIrBzPv/eFdmb71JhKqWDVPC9K7TETriahSpAsx5B8EQMAcgcZE9LwFQkuLoBUBntXzFv77vMhZL6C6rMwoUjfdeyQji9feMpBb1qilpS6qLpcA6T1DRBIQDB8QAAEQUEZA9gv/K4DQcYXAlF0Ed3buzvtnzPd0DALVZeQmJR7qu0r45XX9Bvki8V133XWuqMcByvdtIuqjrLUjIRAAARAoQqAcEd1NRBcCCCHXCNDqleJ4WruOvHfyTM/FqlddNqEqVSdfL255/zxrIS/p2ovTkqq7pr6WUKYS7Evm+aOKtFX8CwIgAAJaCFQpnGMsKEEwuUa4ypqB0S3a+BYQHlua7fo1A6rLxMkKPZh3O5uZ5/PFP6VtBxbDTzUfm9ITI3wpEcVqaeFIFARAAARKIVCt0BBw3ULBkoR2g8pVfYsIxcGLKI9glIyTrikpb+H85qS8BfMuX6/exLJyX5xGyc6QstHRXlH6ko//FnrxQ+CeUoQTfgYBELCGgCw6+g0RfR+OgnHyPWWiorhD3fq8okdf3jd9rivCFqvmGYzStfOaizkb+cDMBb65/P5NmnJcuXJeUvj+vIji/yUR1bOmSeMpIAACIBAagTQiesLp8QXMKEjpTbauWdu3L1x8Dhyav8RxIwRm8lfcvXYq9+Ke/fnKe3xbPKWHf2vjdI6PjfUrSS9+i+J/hIgahtYUcTUIgAAI2EOgHRG9UJwy8eK5GnHxPDi9uW/I+Y/T5rAoqOIUl1XnVDO26r2Le875Vet8uzbE2+P4Vm05LSmZxemT6jw6ML3/R0S/IqJUe5owngoCIAAC5gi0IqLfeXFqoCSFIQoqvXoyj2jWilf26sePj5nMby9YxpdWb7LEMCjp3cL5rTjFrOOc7MOXXRnr+w3mCa3b+RhGiLI3GjTS4/81Ed1grunhbhAAARBwBoEUIvo5EV0JRwF55Z6Y6GhuWr0G39b8/wwDmUKQXq5Khaqal8p3O7dyHR+ct4R3jZ/qc7ozqU17blu7rlfn7Y2KvbTjS0SUT0R1nNFk8RYgAAIgoJZAdSJa6wU/AqqVrPiZFw90A5o09a0vEOc0j46e6Fvc9vHS7JBcGqt+t2ANABnhkG2UsgL/yQnTePuQkbysW28e1aI1t69Tj5O8swWvNGUeyu+fEtEKIqqstqkhNRAAARBwJoE4IsogotOqlZVX05PRA9nDLs5rOtVr4DMUJrZuxwtu7sarevXj+wYN59+MmuAbQlfN4NnbZ/li3m8bMpLz+g70OdGZ0b6TT7H3uaGJb1RDlLvLPemForRVXHuUiGZiH78zBRTeCgRAQD8B8Sw4mYj+plppIT13BXCKkPL6oTCuxgB47tMvXPAEEAAB9xCQLYQ/I6KvI0QZqOhFIg13RKq8WOi8J909zRFvCgIgAALWE4gvHBp9B4YAevEurwMfEdFCIpLQ2viAAAiAAAiEQKAbEe0kou9crgjQU3dHT11FOUlv/0Ei6hRCPcelIAACIAACAQjI7gEJfHIYhgBGBRxYB34kogOFUfnQ2w/QiHEaBEAABMwSaE5EG4joEwcqAhU9SKThntECqYO58NZntknjfhAAARAIjYDEP+9cuHDwHIwBjAxYVAe+KPTNP4iIokOrsrgaBEAABEBANQHZTigCWYKmFFikCNBTd09P3WxZXTAo/bKqKy/SAwEQAAEQUEMggYjGENHj8DiIUQETxuD5QqU/mIjEwMQHBEAABEDARQRkiFamCdYTkWzJMtsTxP3eZniscEqpNxGhp++iho5XBQEQAIHSCLQgokwieouIZOU2FHpkM5CQu38p3GHSpLTKg99BAARAAAS8QaBG4bYtCb16AsZAxBhDMhK0jYiGEJE4ncIHBEAABEAgwgmkEtF0IvotEZ2FQeAZg+AzIvodEU0joroRXseRfRAAARAAgSAIiN/2uUS0m4iwzdA9UwXSw/8fIppKRBjWD6Ki4xIQAAEQAIGSCaQQ0Wgi2lTo9e0SRglsHyX4hoheI6LNRDSUiJJKLkL8CgIgAAIgAAJqCIhRMKlw5bgoosswCrQZBRIlUhhLxEhh3hSOeNRUYqQCAiAAAiBgnoBsHZOdBqOIaFXh3PPbMAxCMgq+JaJ/FgaByi5kKUP54vkRHxAAARAAARBwFQFRXjJacCsR3VUYLU62n50moh8icNTgv0T0byJ6qZDFMiIShzsN0at3Vb3Gy4IACIAACJggIKMG9QodFokHw4zCYe4niehNIjrjMiNBQjefLPS18AcieoiIcohoMhF1LVyJDx/6JioMbgUBEAABEIgcAmIkJBNRWmGc+f5ENL5wl0JW4SK4h4lIjIb9GkYUXiGiZ4joN0S0tTACnhgqM4hoJBH1KJyTT4ycIkFOQQAEQAAEQMB5BFR7OHReDvFGIAACIAACIAAC1xCAAXANEpwAARAAARAAAe8TgAHg/TJGDkEABEAABEDgGgIwAK5BghMgAAIgAAIg4H0CMAC8X8bIIQiAAAiAAAhcQwAGwDVIcAIEQAAEQAAEvE8ABoD3yxg5BAEQAAEQAIFrCMAAuAYJToAACIAACICA9wnAAPB+GSOHIAACIAACIHANARgA1yDBCRAAARAAARDwPgEJnavKCLjofVzIIQiAAAiAAAh4g8ARhQbAh95AglyAAAiAAAiAgPcJPK7QAHjU+7iQQxAAARAAARDwBoFRCg2A27yBBLkAARAAARAAAe8TkPDB/1JgBBwjohjv40IOQQAEQAAEQMA7BIYrMACGeAcHcgICIAACIAACkUNgkwkjYH3kYEJOQQAEQAAEQMBbBKKIaGMYRsAGIpJ78QEBEAABEAABEHAxgaFBrgmQdQMY9ndxQePVQQAEQAAEQKAoAVkYOJKIHiMi2dsvzoLkT47lnKz2l2vwAQEQiAAC/wvENHrlrKxvMwAAAABJRU5ErkJggg==;" parent="1" vertex="1">
          <mxGeometry x="139" y="200" width="82" height="82" as="geometry" />
        </mxCell>
        <mxCell id="ZZgn1tA-toSKhas2N05g-5" style="edgeStyle=orthogonalEdgeStyle;rounded=0;orthogonalLoop=1;jettySize=auto;html=1;endArrow=none;endFill=0;dashed=1;" parent="1" source="ZZgn1tA-toSKhas2N05g-2" edge="1">
          <mxGeometry relative="1" as="geometry">
            <mxPoint x="180" y="720" as="targetPoint" />
          </mxGeometry>
        </mxCell>
        <mxCell id="ZZgn1tA-toSKhas2N05g-2" value="Victim machine" style="rounded=1;whiteSpace=wrap;html=1;" parent="1" vertex="1">
          <mxGeometry x="120" y="282" width="120" height="40" as="geometry" />
        </mxCell>
        <mxCell id="ZZgn1tA-toSKhas2N05g-6" style="edgeStyle=orthogonalEdgeStyle;rounded=0;orthogonalLoop=1;jettySize=auto;html=1;endArrow=none;endFill=0;dashed=1;" parent="1" source="ZZgn1tA-toSKhas2N05g-3" edge="1">
          <mxGeometry relative="1" as="geometry">
            <mxPoint x="660" y="720" as="targetPoint" />
          </mxGeometry>
        </mxCell>
        <mxCell id="ZZgn1tA-toSKhas2N05g-3" value="Attacker server" style="rounded=1;whiteSpace=wrap;html=1;" parent="1" vertex="1">
          <mxGeometry x="600" y="282" width="120" height="40" as="geometry" />
        </mxCell>
        <mxCell id="ZZgn1tA-toSKhas2N05g-4" value="" style="shape=image;verticalLabelPosition=bottom;labelBackgroundColor=default;verticalAlign=top;aspect=fixed;imageAspect=0;image=data:image/png,iVBORw0KGgoAAAANSUhEUgAAAgAAAAIACAYAAAD0eNT6AAAAAXNSR0IArs4c6QAAIABJREFUeAHsfQeYFFW69ri64e5eJlb1IEMSEZAMA8xU1QwMOSMIQxIxoKgEE0xXA6KjrjmtCsY1iyIKKgiIigEwgIAM4qqLaRUJ7v53997ddXdN53++HnrobqZjpXNOvTwPT/d0pVPv+b73fevUCTk5+AcEgAAQAAJAAAgAASAABIAAEAACQAAIAAEgAASAABAAAkAACAABIAAEgAAQAAJAAAgAASAABIAAEAACQAAIAAEgAASAABAAAkAACAABIAAEgAAQAAJAAAgAASAABIAAEAACQAAIAAEgAASAgL0IdKz9RV5FqKC4ItQmUDa/a5+rHp068IE1V1XdvfLmfktX3TrwwRfupf8DHlj9YP8HX3hq0KPrV9J/+k6/RbbTvnQMHUvnKNbMLnROOndOx9pf2FtonA0IAAEgAASAABA4CgGlcuHxRVqwT0APjVeN4JyAHqpV9dBSVTefVvXQ64pu7lF186Cqm9+pusmi/2s3Psmm1NVZ+k/niD7n4e90rYP11w69rhrmCtUwl4TLRmU0gqcW6aHeau+apkfdEH4AAkAACAABIAAEcnIKy2pzlYpQqaKFpiiGeblqmI+omvmaqpufqLr570bEtzFBbvQ3Bw1Ao9dLUFa6h72qbr5K90b3qOjm5PA9G8EmiAEgAASAABAAAlIjkKtdUlikhwYoWvBiVQ/er+rmG6phHkggmpkIbMJ9OTEACcsXvvcwBqHXw5ho5kWKEexPWEkdDLg5IAAEgAAQkBMBel+uGqFJqmFep+rBtapufuWk0Cc6txAGIO61xZF7CX6p6uYLqha6VjXMicV9558gZ7TgroAAEAACQEBIBBQj2EQ1zApVMy8KvwvXzUNHRCz2nbzbv4ttABrF7m+KYb5MfQ2UCnN0SZ8FRUIGDQoNBIAAEAAC4iFQrM8PqFqomjriHe6A96Pbwp7u9SQ0APGvE35U9eD7qha6U9WDE5pWLlDFiyiUGAgAASAABLhEgJ4ySVyol/thwf8pXQH2ej8fGIB4Q/BTxBDQqAm0EHCZUigUEAACQIBXBGp/Rj3UVT1kUnNzY8PrvBb2dK/vQwMQbwh+VDVzu6oHry8uDw3Kqao9jteoQ7mAABAAAkDAAwSo13lAN6cFDHOZqpt/Tldged8PBuCofgTfBPTQ44oRPC08qZEHsYZLAgEgAASAgMcINKuapwQ0c7qqh9YEdPM/vIt5NuWDATjKAES3EPygGsEt1HlTMYLNPA5HXB4IAAEgAAScROB4fV4rRQ/NCxO/bnLbeS8bsW/sGBiApAYg2gxQLGxWdPPSAsNs6WQM4txAAAgAASDgEgLU1EtP+off5wvTga8xQc/0NxiAtA1AtBlg4X4DmnkRjfhwKUxxGSAABIAAELADgdZVtb+iceI0Ll/W5v10zAAMQJYG4MjkRD+E5x3QzOnFXef/xo7YxDmAABAAAkDAAQRoAZqAHrxX1c3/S0cgZd8HBsCyAYhuGfhfRQveTSNEHAhdnBIIAAEgAAQyRaCg1MxTtNBMVTd3yi7omd4fDICtBqDBDAQ08wMaJop5BjLNVuwPBIAAELABgYBm6ooeelTVzW8zFUa/7A8D4IwBiIqfb2mFw2IjWG5DSOMUQAAIAAEgkBCBjrW/qJ+G13wzioQbnszwW6zgwQDE4uFwfOyglqjm2iX/lTB+sQEIAAEgAAQyQ0DtXdOUmlxV3dznMIlLZSZgAFw1AJHYOUQzDxaWBZtnFuXYGwgAASAABBoQCJTN73p4dr7vIPyZixkMQOaY2RVnNPqEXlEV6ws7NwQ0vgABIAAEgEByBMLL6+qhNapu+mrcvl3iEzkPDIB3BiBSB+FPI7glvBZB8rDHViAABICAbxE4Jjx2X8f7/RjxODImPdLEnPYnDAAnBiBSh0ZwC8V4Tk7OMb7Nctw4EAACQCAKgWPCy+3Suu4RosRn2iKfDDMYAM4MQCSujVBdwAieCiMQxQL4CgSAgL8QoGZRVTd3JBMxbMtexGAAssfOnbgLvk+jWmAE/MV7uFsg4GsEDgv/u+6QLO8i4Fz5YACcw9bW2DVCdTACvqZE3DwQkB8BRavpF9DNrbaSZ6RZFZ9HvTaAARDEAByJ3bdVo6ZSfibAHQIBIOAbBBQj2J4W5oHwuytIMADu4m1XfNMCRMWa2cU3BIEbBQJAQD4EmlXNU1Q9dLuqm9/bRY44T/qiBgOQPlYcxtWPNI+AUrnwePmYAXcEBICAtAjQdKiKYV6u6ubfOSTWo5rKZS0jDIDQBiASp39XtOBiTDEsLV3ixoCAPAiEx/Jr5meyiqpI9wUDIIUBiBiBrwKaOV0epsCdAAEgIA0CSsWCdqpmrhNJIGUvKwyAVAYgbAQCurmxqWF2koY4cCNAAAiIi0Bx1/m/CeihWpr7XHZBFe3+YADkMwCHY/A76ltTWFabKy5zoORAAAgIjUD9DH7mftGE0S/lhQGQ1gBEXgt8fXhGQaF5BIUHAkBAIASoZ7Kqm8/4RUhFvU8YAOkNwGEjEFpT2HdRC4EoBEUFAkBAQASOUbTQTFU3/1dUUfRTuRs1ALt3s2l79rDpH37Ezvio/j99P23PHjalru6o/3QOP2Em8L3+r6qZF+VUVx8rIK+gyEAACPCMAHU8UvXgWwITpO+ELGIATtv9Pjv7j3vZeX/6is05cIjNPfhNo/9p23lffsXO2ruX0TFkCGAABGtFMIJbisqDJ/PMJSgbEAACwiBQ+zN6slB1898Qf7HEoN+SZ9m5n3/RqNgnMgGR38kM0LF9l6zynXGSIM7/peohE60BwpAsCgoE+EOguO/8E1Q99LoEhOgvETNCrOK6FWz2VweyEv+ICaDPWV8dYMZvlzPVCPkLwyPz8wt838G31LKak/hjFpQICAABnhGIvOvHTH6CCUGzQYvZ+LXvWBb+aBNA30994W3WbOBigcVQrNYbG033t+HWgJzan/FMOCgbEAACHCBQpC0qocVIbCQgiIZLJqL50Fo27a33bRf/iBk47a33WcnQK1CfLtWnzTn4ItYV4IBgUQQgwCsCihEco+rmX2wmHgiGC4Jx/IDL2NTNdY6Jf8QETN28mx3f/zLUqQt16kAe/lnRakbxyj8oFxAAAh4g0Hb43F8eXrXvJwdIB2LhgliMXv664+IfMQFjntmEOnWhTh3KxZ8o1ynnPaAaXBIIAAGeEFCMYHtVN3c6RDYQCheEolfwIdfEP2ICSuc/iLp1oW4dzMsdtH4HT1yEsgABIOAiAqoRPEPVzH84SDIQCYdFgprjz/nwc9cNwIwPPmNN+y9C/Tpcvw7n5t8DujnNRcrBpYAAEPAagagmfxC42ATOKm942nXxj7QC0FBDhwUK53chPgN68N6cjrW/8JqXcH0gAAQcRoDmDFc08x0QtwTDwowQO3v3J54ZgLN378X8AC4ItCu5qpnbm5aHWjtMPzg9EAACXiGgGMH+qm4ecoVQZCFGju+j4zl3eib+kVaAk2fcjqd0jmMkw1z/c0APDfGKn3BdIAAEnEHgGEULLlZ188cMCQHkzjG5D1y6xnMDMOCO5xEjHMdIFvn+g6qZoZycnGOcoSKcFQgAAdcQaF1V+6uAYS7LgghA7JwT+6SNOzw3ABNf3o444TxOssp9w1zRrLT2164RFS4EBICAvQgoRrCZqpvvZkUAMpKaZPd07kfZLfQTab634/OcP3wGAyBZXEXxxXvUZ8heVsLZgAAQcBwBVQv1UPXgl1HJDKKWiKgDFSE2N8nSvnaIezrnmLP/EKOyIM4k6FTaeH58XaSHejtOWLgAEAAC9iCgGuZEVTf/CVKWlpTDC/OkI9Bu7INFguSNs8Mc8i/MF2APN+MsQMBRBA539sOUvo0/zUjzpFrcd6Hn7/8j5qJp34XS4ArTnNDM/KQa5kJHyQsnBwJAIEsEqquPVbTg3SCwhAQmnUjN+nK/5ybggi++lg5X5FDSHHogp6r2uCxZCocBASBgNwLUW1fVzNUgrqTEJZ1QTd/2oecG4PR3PpAOV+RR8jwK6KHnMULAbhbH+YBAFgjkapcUqkZwC0grOWnJiI+bKwBGmvvjP0ctfw0GQPLXTY3lTkA3tzatXKBmQVk4BAgAATsQKK4ItVF184+NJSh+k98Q9LnsMc9bAHovegQGwIcG4DC/fITpg+1gcpwDCGSIQJG2oIOqm/sg9PILfaI6bj6kls3ed8AzEzBr3wFWMvQKGAD/GgCq+/3F+sLOGdIXdgcCQCBbBOrH+JvfJBIG/O4fU3DKys2eGYAxT2+C+Ptb/CP1f0jVa7pny2c4DggAgTQRoEk5Arr5/yDy/hH5ZHXd7rRbPJkQiCYAOmnqzREBwCeMwF8DmqmnSWPYDQgAgUwRUCpCVapu/l8yQcA2/xmDUU++5norwMhlGyH6EP3YGNDMfwSM4OBMeQ37AwEgkAIBRTdHqrr5bwi8/wQ+VZ03H1bLaE7++B76Tv0944PPWPOhtbHkDzEEHvUx8C/VWDAiBZ1hMxAAAukiENDMoapu/iuVEGC7f81Bp3OXMOqU55ToR85L1+g44w6IHQxPwhgI6OZ/FK1mVLr8hv2AABBIgEBADw2B+PtX2DMxdb3Mh9ic/QcdMwF07l7BhxISfyZlxb5yx3TYBOjmyAS0hp+BABBIhQC9T4P4y02Udgthz3kPODI0cPZXB1iPS38P8ceTfyYx8G1xeWhQKp7DdiAABOIQoMRRdfNbuwUC55PfULSfdis7670/2tYScObOjxmNNkDsyB87DtTxt0V6aEAcveFPIAAEEiFwuLc/xB9PW1mLbtP+i9iAJavZrD9lv2AQLfTT/47nWdOqRVmXwwFBQVlEywvN/IdqmBWJ+A6/AwEgcBiBQIXZTdXNv4I48bRlRww0H34l63/7c+zs3Z+k3SJwVt1e1v/25xmNLrCjDDgHYlnVzf9Vymt6guiBABBIgIBaVnOSqpsHQZggTNtjwAixtlNuYsZvl7MRj7zCqtdvY1PfqAv/n7BuW/g3/erlrO3kG5lqhCD8oj1li1Heb2gK8wT0h5+BgH8RKCwLNlf00Be2E78YxADBQT0hBnwRA8EvCwyzpX+ZHncOBOIQaFY1T1F18w8Qfzz5IwYQAz6IgY+L9fmBOBrEn0DAfwioVbX/rermuz5Iejzh+eIJDwKOXE4dAwHd3Frcdf5v/Mf4uGMgEEGguvpYRTefA2GkJgxgBIwQA9LFwAs51dXHRugQn0DAVwioWuhOkJp0pIaWDrR0IAbSjIGAYd7jK9LHzQIBQiCgmfMh/hB/xABiwO8xoGjBi6EKQMA3CKh6cIKqmz/6PfFx/xA/xABigLgwYARP9Y0A4Eb9i0BAX6Bhil+QHoQPMYAYiImBfxZpwT7+VQbcufQIKJULj1d1c5/siX9i9Q2sz6JH2aC7XmAjHt/Ixq7awkY98SobfN86pl35BGt/+m0sULEA70nTfE8qe7z4/f4oFzpMv42VX7mMDbl/fThXKGcodyiH+ix8lJ044Qb588UwDxRpi0qkFwLcoP8QaF1V+ysa+iIr2bUee22YrGZ88GlaU86e9+mXbPijrzBauEZWTHBfMU94qOc4w0dGmESecmHuwW9S/j97zyds4F1rWOux18iLpWZub65d8l/+UwjcsdQIqLr5gIyC0GLkVeEnltlfZ78OPU1F23bijfKSWhzxyxgHuKf0zQ5Nt1z94rspBT+RKZi97wAbuWwjo3UeZMRd0UOPSi0GuDl/IaDooXkyJmqv4ENpP70kIrPI70RqVbc9ywIVmIdexljBPZnh1160yBLFeiTurXxSy0Hp/AelNAGqZl7kL5XA3UqJQHF5aJCqm99LRYBGKPw+3wp5JTp2/Np32PH9L5OT1NAS4Nt6pZimlq5EcW/l98H3rpNxAacfVC00TEpRwE35AwFa9ELVzb/IJv7U/GiFsFIdO+X1XTABMAvSmAUSf1p5MVXcW9lOfQkkXMXxz4V9F7Xwh1rgLuVCoHTmz1UjuEUq8dfNcCckK0SV7rHUEoDXAem/V5YtzmS5H+rh79STf3wuDbhztTSmKVL/ima+k9Ox9hdyiQPuRnoEVD10eySIZfnsduF9bO6BQ44+yUSTGvUJkAU73Ic/zQy984+OaUe/HzjEus25R7qcCejmLdILBm5QHgSaVV02VtXNn2Qi/WYDF7MZH3zmHpkd/IbRyIK2U26SjtBkigvcS2Jjc+KkG23r8JeucTjnw89Zs0GLZcuZn47vv2i8PAqBO5EWgarbVwzreMEd/5CNGGn8cbokZOd+1HwqG5a4n8SiKRM2Vob6WckhGV8FdJp15z/63ffscGmFAzcmPgKl16/IO+Wlzd92nrtUKtFqNvhydv6nX3liAIgIMVmQPwRTJvGnmf2siLiVYylXZWsFIE4d+8qWb6tueyhffKXAHUiJwODH1+6aUlfHZDMANH2vFUKyeuzwR16WylDJJHS4l8bNGfXKtxr3Vo4vv/xxqXKGOJW4dcjj63dIKR64KbER6Lt01aIpu3aFg1Q2AzDxle2ektnMT/6EtQMwLFAYQaOe/+lO72tF5JMdO3HDdmHwSsdERgwAcWy/u59dLLZaoPRSIdD3zhVdJrz97o/kUGVrAWhatcj1jkyNERteAzT+pJkOeWIfd7Hzsvk/kjuzvtzPivstlMYENBiAujpGXNt/yTOdpBIR3IyYCNQy9rPRa14/FBF/2QwALVgSIRUvP8uvWCYNmUGQ3RVkt/GmVf28zJXItdtNu0WanIk2AMSxo9a+/ufqFSuOFVM1UGppEBjwyNqV0eIvmwHoZT7EBZkNvmedNGTmtiDheu4aDlr2OiLCXn6W1sizTkC8ASCeHfDIC09JIyS4EfEQ6HvH00Mmbd8ZbvaPNgEUrLKQrn71ci7IbOSyV6XBVJbYwH00bixGPfkaFzmjXfWkNDnTmAGYvGMnG7D06SHiKQdKLDwCVbWvHTdq3Rt/ixb+yHeZDEDlDU9zQWZjntkkDZlBOBsXTllwoVj18sk/cm3KXVkwbcwAEN+OXrfpf6tqa48TXlBwA2IhMOjhNc9HBD/+UyYDoF3l7RDACJmNeOwVachMFlLGfTRuZKi1KhK3Xn7S8F1Z6iiRASDuHfTI2pViqQdKKzQC/Zc8O7Cxpv+IEZDJAPS49PdckNmAJfItdCILOeM+Yo2AV7NmxpuN7pfc7wsDQK8CKu9+ZqjQooLCi4EANTeN2bCp0aZ/GQ0AzWceTyxe/N174SPSkBkEM1YwZcOjz8JHuciZthNvlCZnkrUAEO+OXo9XAWIoqOClHPzYulURoU/0KVMLAA+TmpDhOGH8ddKQmWyCh/uJNTQnTrjBcwNAExFR7spSN6kMAHHxwEfXPiO4vKD4PCNQeeuKPhPf3flTIuGP/C6TASACGffcm54S2tm790pDZLIQMu4jVvTj8Zjx/iee5szYVVukypl0DMCkHe/9VHXXynKeNQRlExiBEc+9uj8i8sk+ZTMAPeZ52w8A7/+Ti028+OBv7/Hyuh+ATO//KZ7TMQDEySNfeG2/wBKDovOKwIDfr/5tMtGP3iabASjuu5CdvcebJ5rZ+w6wVqdcI9XTDATae4F2ug5aj73Gsym0z979CaOcdfoe3Tx/ugaAeLjq3ud+y6uOoFwCIjD6iTXK+M1bv48W+WTfZTMAlOheTW86/FH5hv/RUq20xoKbBMrztQgL2ZavJbxHLvNmRUAZp83OxACMf3Pb9wPvf75YQKlBkXlEYMgT695JJvjx22Q0ANShaNpb77v6XpNWAWw+rFZooWw37VZW9bvnWPWL7x7VikKtG2fs/Iidsmozo1nbWo2+Wuh7TcdktBr9W6Zf/SSjd9R074RBw6iSA4fCGFWv38aqbnuWiT6XffPhV7q+KuBpb70vVee/SExlYgCIj4c88eJbPGoJyiQYApV3rRw5+b36ZX7jhT7R3zIaAEpEGhI460/7jxD2wW8c/U7rEEQIQKTPpn0XsrLFj7Hp2z7MCJ85+w+yCeu3sk7nLhHyvpPVUeeZSxkJ+5z9hzLCZPrWP7A+ix4Vtkm75/wHMrrfBjOURW5d8MXXTKahf9HxlKkBmLxrF6tYsnKcYHKD4nKFAGPHjH5x018TCX2i32U1AJSQvYIPZUzi2ZDaoLvXCimCnc9fys7c+bFl0h//wtus9dhrhcQgmrhPGHdt2NRkEwPRx5yx4yNGJiL63KJ8H3yv84sDkbEqnS/P4j/xdZupASBuHr3ujb/mMHYMV5qCwoiDQP8Hnr8lkcgn+11mA0CJSc3VmT7JRZN5qu/haX+NkFBkX1y5gNGKhXMPZPaEmwyL8z/bx+gJMp4MRfmbzOL5n++zbIYaMDpwiJExFG58uxFiIx53rj8A5SJN2S1KXGRTzmwMAHH0wIfW3CiO4qCk3CBgPPB8k/Gb3vkumdAn2ia7AaAEJnK3+3UAEVn/259jqmDiT53YTn3hbfuELrr598AhVnnjM8KRe9+bV9pqhhpMwMFv2Kmr3xavE6URYgPuXG07JtTsL/OTf8QsZGsATt30zvel967I40ZYUBAxEBj8yNp1iQQ+1e9+MACUmG0n38imvbXHFuE758PPWJfZdwsndDTcavzad2zBIFrk4r9X3ijOym5kWOLLb/ffhDm1ukQEQpTPbnPuYed8+Lkt+FCHP1nf+cfXZ7YGgLh60KNr14ihOiglFwhU3LeqXfW2HSln/EtkBPxiAChJqTl2+gcfsln7o3pzRz/BpvhOHd9mfPIpa1Mt5lS/wx7aYAuZpxTIA4dY94v4X9ylx6X32/6UmwiboQ+8KJwBoJxpU309m/HpZ4xiP9G9Jft91tcH2PQ9H4n3KkTPfv4HKwZg4rs7fhp4x4qOXIgLCsE/AsNWvPxBInFP53c/GQAitAlvv8um7N7Nzvz4Y3beF1+yOQeSE9ucA4fY+V/uY2f+cS+b+v77jDBtOUa8IXAkyMmI2u5tNL97y1H84kTDGKmMdt93wvMdOMS6XXifcCaAYp1inmL/rD/uZed9uY9RTiS8z4PfsNkHDrLz/vQlO+Ojj8K5RjkX/5Qs899WDABhPXTFhj38Kw9K6DkC+pJVp9AQknSEPtE+vjQAdXVHMNu9m0374A9hQ0AEd/beT9hZe/eyMz/+Izv9gz+wqdH7Hv4umgE4vv9lR43rT0bgdm0b8/Qmbomf5jOw6z7TPQ/Nud+0v1iTKkUMQDx/UG5QjlCuhHPmj5QzH7PT93xwJLcO5wsMQBTfNMIn8djSUO5+dz+HYYGeKyznBRj29EtfxQdPpn/73gCkkZDxmIpmAOidfLoiZet+Bw4xmlyIt6e9k6be7FrTfzyeFdet4A6PZPWTyADE50Syv2EAMjMAhOWwZ176knP5QfG8RECpCJUOXb7hKLedLBEb2wYDkHlyimQAqN/DjA8+88YAHPyGjV7+OneCN3rF657hMeODT4V6Hw4DkHlfAKuvAIinidtVLdTDS43BtTlGQNXNDTAAmSdnuA9AFk/90eZJJAPQdc7dnokdPf3S8MtmAxdzYwJoHv9ZX7o3Q2R8CwD93WXWXdzgkezpn7bBAGTOMbYZAD24lmMJQtG8QkA1aiopOWEAMk9OvxmA4Q+/7KkBIMHrfjE/nd96XOrtctGEx9AHN8AAWOhln8q0eL3dPgNgMqUiVOWVzuC6nCKg6uabFOSDHl9n+RVAl0vuEYaM7EhsvxmAM97NbI7/xp5Yrf425P713MTY0N+/6LkhojUD7IhlN86BFoDMHzK6XnqvZV4mbg/XrxHcwqkMoVheIKBoNaMiid//96stB1rPhfLOyR3BKfrTTwaAJv6JWcEuxTwHVoU+0fG0umB0HXj5feJL2z03ALP2HRBmYiAYgMwNQOllD1rmZeL2hjwxzOFeaA2uySECqm5uiwRG36UrLQeacetTRwJN4ma5CGZ+MgCtTrnGc7EjU0ALDkXw9/rTjsWPEhmdTH5vPeYabjBJVicwAJkbgIrbn7bMy5VLVjbEh6KZ73AoRSiS2wioWmhYdLKW3/CE5UAb9vRLDYEWfW5Zv/vJALSdchMXBuDcDz/nJsbO/egLLjChqalFyDEYgMwNAHFqdKfhbL6XX78sJj6KteBAt/UG1+MMAVUPbYomjW7zrL9rmrR9JyvutzAm2KKvIdt3GIBvXBdAGICjMYcByFxYReAi4tLJO3ZaNgDUjyDmfjXzNc7kCMVxEwHFCPaPCQjdZCedfpPlQCN32mn2kthgk/hVgJ8MAF4BHC0yvLwCaDX6t0LkHFoAjo6heB6O/tuOEQDEyW2n3XR0fBg1lW5qDq7FEQKqbr4aHWj0vdngy9kUi1MBU7ANXsZPL+34e7T7bz8ZAFqBjotOgOu3HU1mHpnMiRvQCTCTnIIByMwAEJdm0+Qfc8yuXYzmq2iknjZwJEkoilsIBDRTbyQYwgEy5sVNtgRc6/HXNhZw0v3mJwNAMTN9G4YBRucOD8MAT3/nA2HyCgYgfQNwwsTrbXkgG73ujYTxUaQF+7ilO7gOJwgouvlcNIlFf6+8w3qPU3KfQ54Uc7nSaCzS+e43AzD84Zdcf+cf3xuep6WBw0sAezQcMoKLSEsDwwCkbwCGPPGi9YexujpW8buk60U8zYksoRhuIFBcEWqj6uYPicSt05yltgQdmQA/9AXwmwHoMtvbqYAv+OJrdvyAyxI+0SSKa6d+p2mJaXriiBh78dn5gqXc4JEKZxiA9AwATagW04xvYbrxjrPuTBYfPwT0mhPd0B5cgwMEVMNckixJaXnRidt22BJ8E97axlqMuipZ8Am/zW8GoH4xoE89E7zRT3K4GNByLAaUjFOit8EApDYArU+9xjYOrt66nRVXpRyV9TsOpAlFcBqBvIpQgaqbf49OyMa+2zEjYMS9jt6wOdy5sLHryPCb3wwA1Vnl9d4tB0xzEfAWN14uB2xcK9bEWzAAyQ1A82Ers/pLAAAgAElEQVRXsHGvvmXLAxhxcP/7nksnX/4vv+rifKf1B+f3GAHVCC5IhzxPnnm7bQFIQTji+Ve5WsEtHQzS3cePBoBaiWa8/4nrrQBjnkrcmSnd+nJqvzFPb3Idj7N372VNqxalQ/Dc7AMDkNgAlAy7gtnSCTvqdUGHc36XVt0HjFCNx/KEyzuKQOnMn6u6+VU6BBgwQuyUl7fYagJGrXlNypYAPxoAiqFuF97H5h445Jronbf3S9ZiJL+vk1qOvIrN/ORPruFB2HebI97CWzAAjRuAkqH2i/+YDZtZoCKUlgFQdXNfTunMnzuqQTi5dwgoWmhKOuIf2aeHeb+tBoBaAka98Lp0JsCvBoDixK0hcHP2Hwobjkhs8vpJoxPcMkU8rYiYSX3AABxtAJwQf+Lbo2b/SzVXhmFO9E6hcGVHEYif9jdV0gb6LmSnbt5quwkYufrVRJNSpOtUudrPzwaAOgSOe+5Nx596qc9BqnjlZbt+9XLH8Rj/wtvCrP4XXy8wALEGoGR4re3N/iT+4157K+MYCejmRkdFCCf3BoGi8uDJqm7+FJ+Mqf7uXnOf7QYg3BKw9nXWbMjlwpB6Mpz8bAAIF3oHferqt50RvQOHWOWN4oh/JE4qb3zGsZaAU59/S+i1NmAAjhgAp578iWO7XHx3VvxaWLmgozcqhas6hkCqoX8R4or/pPdHI59/FSYgSdOZ3w0AxQxNETz4nrW2it75n37Felz6+6xILD6Ovfi75/wH2Pmf7bPNGNFrkIF3rWHU6uLF/dh1TRiAegPgpPgPX/UKU4203/3HxFNAM291TIhwYvcRUKtq/1vVzb9lm8AnTrmBTX5vlzMmQIKOgTAAR55oOp+3lM381HpHuNPerGO08FC2McvLca3HXstOe/t9yyZg5idfsE7nyrHAFgyAyZxq9qcn/0k732MnVF9nJXf+2qy09tfuKxWu6AgCihaaaZUQy69b5ogBaHgdMFjc1wEwAEcMAMXZwIdfYGd+/Ec2a1+Gs+MdOMTO+/IrNv0PHzLqgGo1Znk5nu6F7onuLdMOghfs28/O/OMfw5jycj9Wy+F3A+Dkkz/xaekVD1vPHSN4hiNihJO6j4CqmdutJi29Chj69EuOmYDR1CdAUBMAAxBrAAY8uKYhTk7/wx/Y2Z98ys7701ds9tcHYp6E5xw8xC74ej+b+cWf2Fl7P2Gn7dnTcJxsBoCImf5P27OHnbV3b/ie6d4Jg+ipg2d9fSBsFGZ88ik7/YMPGvAgTK3mMC/H+9kAOC3+tHZAtk3/sfERfMt9pcIVbUegqWF2iq3YWLLOZFuLkVey8Q6MCoiQo6gmAAYgNqaiDUCkbqM/p+7e3SBs0b9Hf5fVAETfY/T3VJjAANQbqAhmlHOZcBcP+5Y41Ns/ggnNHmhnx+oibUEH2wUJJ3QXgYAevNnO4Kd3SxPeeTclgUeCMtNPEU0ADEBmBiCdmPCbAUiFCQyA2AbA6Sd/WnOF1g+wk+tVLXStu2qFq9mLQFXtcapu7rc1KHSTtT/zVjZ5x07HTABNhUlu2e5yO3U+GAAYgGSxRWYmlcCn2g4DIK4BcFr8J727k7U9/WYn+HJfTnX1sfaKEs7mGgKqsWBEMmKysq3TrCXh3qapiCvb7aPXvWFrc5aVe011LAwADECyGIEBiI0PP/UBcFz8t+9k7c6+zQnxD5+zuDw0yDXBwoXsRUDVg8uTEZPVbU6bAJrHWoSWABiAWIJP1QcgHVNIomk1Pnk5HgYgNj78YgDcEP/2M5wTf8ofRTcfs1eVcDZXECgoNfNU3fzWaRJ0wwTQ8phO34eV88MAxBI8DEAsHjAAsXj4wQDIIP6HOfGfihFs4opo4SL2IaDqwbOsiFomx/rdBNgxMqL1+Gu5NjmZxAMMQKzgwQDE4kGxnk4rULJ9aI2STGLSzX2dFn/qf0XLtbt1TwE9eLp9yoQzuYKAagTXuxUgdB0/m4CxG9+0TGgnTr7BtYR2Oi5gAGIFDwYgFo+2U2+0nC9jX9nCZb7IJv5hrtDM1a6IFi5iDwJ5FaGCgG7+x2mijz+/4ybgpc2sOYejA2jUQrKnlXS2ueno4+vN7r9hAGIFDwYgFo+OF9xpOV9ouLDdcWv1fFKKv24y0hLSFHvUCWdxHAHVCM6wGszZHu9HE0ALb6Qj8sn26bHgAe4ILdsYgAGIFTwYgFg8ei58wHK+DHvmZa7yxWnxn7TjPdbxvDs8u+eAZk53XLhwAXsQUHXzxWzJ247jHDcB6zexZgMXe5YM8Rj1v/95y4RWeYd4S97G4xD5GwYgVvBgAGLx6Lt0peV86X/fc9zkf7NBi9mY9dZbARM9IEzavpN1OPd3Ht9vaI096oSzOIqAV83/EfKPfDptAkY8t5EVVy30OCnqia38hicsE9qI51/l4l4i9WflEwYgVvBgAGLxGPXC65bzhRYnsxKjdh1b3G8hG77yZcv3k1D8PX7yj+CE1wCOyrZ9J1e10NmRSvP602kTMPCRF2xa+CKWoDLFrXvQ+kxvtNwyT60amWIQvT8MQGw8wQAcwYMW/Jq8y/rS4t3n3+e9ATBCbNAjLzgm/tTbv8O57vX2j87hxr5jNIB9Ou3YmQJ66PnGKs+r35w2AaWLH/KcCE6ccoMtJNB5zlLP78WOOIEBOCJ4hCcMwBE8ul58jy25wsOomV5XPGzLvTT29O/1O/8EPPC0Y8KFE1tHoO3wub9UdfPvCSrPM3Fx0gRM2vkea3vaTZ7dG2Fd3HeBLWsjhFs09CNkyVs9plseGIDYOoQBOILH4GXrLYsmvRMvrlzgac6T6SeRbky8rf4WFv/z7/T0/hLk+t9JY6wrFc7gCAJOzv2fICDSDlInTcApL29hgb7e9gcYueY1y2RAiW/ncp5W6yzb42EAjggeYQgDUI9H8xG1tjT/e91fht770zwEVoW+seM5ffJv4PmAERzsiHjhpNYRUHTzrmxJ243jaKy7U6sI9rn6sYYgdeNe4q+h3/qULYRQdu3jnt5H/H1l8zcMAAxAY3Gj3/SkLTlC52ns/G79VnbN47bcR7wBCIv/BVw++UfhHbrdulLhDI4goOihL9xKgmyv45QJoGbBFqOvigrUWBLOtrzpHkcrcsUndDZ/07rexw9Y5Nl9pHu/yfaDAYiNPbQAmIw6/1Vv3WFLjrQ74xbP8qPFqKsYLb+bTW4nO0YM8TeZqpmfOSJeOKk1BAIVZrdkpMzTNqdeB1Td693YYOoHUL11uy3E4PUTjtVYgQGAAYiPocrbn7YlN8hEePn+3445P+KNQFj8+Xzn36jRamqYnaypFY62HQFVD5nxScfz3060BFCHQC9bAewQPiIHek3S+tRrGk0+nus0UjY7cKCn5sj5RP/0ewtAm4nXMxrmGi982fzd//erPYuLlqOvtu0+IvdOnNVx1hLP7imb3Apo5nzbBQwntIaAYpgvZ1OZXh7jhAmouH2FZ8lEY3YjiW31c9Sa1zx90rESFzAAaAGIxA91zqV5+63mQ+T49jNu8yy/abbOSDns+BRR/MP1agTXW1MrHG0rAq2ran+l6ua3kaQT6dPu1wETt+1gTft78w49YITYqW+8YxtJ0AyDItVlpKwwADAAkVgwbOocS4I77vW3WaAi5ElOHD/gMlvf/deLP+8d/mLjOFKnqm7+E8MBbZVwaycr1oIDoyrHkwSxcn2aAMeuJkIiii6X3OMZBjRFqR1PB3QOwsT7OcATkkBCjGEAYjHz6yuA8Kp/Nsz6F8knL0fIdL30XvvyetcuJsGkX32tqRaOtg0BVQtda0WAeTiWZvSLJLrVzyFPvphQnJy+V1oVjEYkWL2HyPE0KoB6HjtdbjvPDwMAA0AxO+HNbbblAfW893KOjKHLX7TtXnouelCofG6MGwKaeaVtAoYTWUNA1c1tjVWSUL+F59Vea0uSeT2vvt3vCsMLH3k881kmsQQD4G8DQL30Rzy70ZZcjhhh4zbv+vbYtX4B3cvAh9YIL/5hLjCCW6ypFo62BQFa/U/VzR8yIWhe9y0ZdgWrfseeoXRerp1NIxHsnvBIu9HbyU8yiRkYAH8bADvf+5Nohuf48LAVjHrpR4yIlU8awth82BVyGADd/E4xgk1sETGcJHsElApzdCbkzPu+NKOflSSLHEsz83l5r3bNeha5nym7djF6p+rlPaV7bRgA/xoAMt4Uqw1xW1dn+bvXnWHtMjS9r3xEiPxNN88DemhI9sqFI21BQDXM69KtMBH2O37gZbbMGDZi9WueJhv1Gj5181bL5BdNpBPeftfTeQ7SjR8YAH8aALvf+1Psj9+81fOZMe1Y54NaNkWf4TM+/wN6qNYWEcNJskdA1UOb4itG9L/73b3KsnDSrHyq4c2QoQj+dvYcjhiBEate4X5+ABgA/xkAmgmTFumJxKldn10uvttTI08cQkOLrd5P36Urvb0PB1YZpblnslcuHGkdgdKZP6cxmRHBkeXTrgl1mg+v9TzpaIlfq+QRf7xx83LP7ytZrMEA+M8A2NVMHh3rgx5b63mctxh5pS356+UERsly1eK2v+dU1R5nXchwhqwQKDaC5RYr0PMEa6z8NJGPHfMCtDvzVs/vj4YuUTNmNLFZ/k79ATiePhQGwF8GwIn3/jT8lToFN8YPbv7W/sxbLecuTfrTtMqbyckcx0oL9chKvHCQdQQU3bzU8Qp2oOkonTKPeWmz5cTrNGep5wRC9xruRWxzxyie5weAAfCPAaARL9Q3xbKpje4syFGH185zl1q+t9EbNnPBQ+nwbsb7aOZs60qGM2SFgKqbT2dcYR4JeqblHLxsveXE6zbvXm4Sj8Yx20qSdXWM3rnSu9dMsXV6fxgAfxgAJ8b7U47Q6wSnYzTd83ebb30GwEGPr+PmftK973T3CxjmsqzECwdZR0DVzc/TrSjR9rNj2c2eCx/gJvH8QJaRGIMB8IcBcOK9P43e4cnUll72oGXj7uUy5ZGcdPDzI+tKhjNkjMDhCYB+crBiPRVP6jVr9Ym5Vy1f426dGCYVnh9gFl/zA8AAyG8AHHnv/867jJbc5YnTiEOs8pCMIwCi6uhHTAiUsXxbP6C4PDQoqhK4Sho7ylW5xLoB4HHiDT8QJwyA3AbAL0aWeIw4xKoBIC6zgxO5PYdRU2ld0XCGjBAI6GaQ24CwoZ+BrAaA6oxmKbRKKvHHU9Mprb3OQ0zAAMhrAPz0KotyCQYgNpYb5RfNvCgj8cLO1hFQdfPJRivDBvHl4bwyGwBa03z4KnsXSyFDQNMP81B3MACxpCnTcsC2T3FNnVk5e+8fnUMwALGxHI1Nw3ct9LB1RcMZMkJA1c2PGypAEtGPvh+ZDQDdJ00wQkP54p/krfxNcyfwMPcBDEAsacpiAE46/SY22e7hrBy+94/mIRiA2FiOxibq++6MxAs7W0OguOv836i6+WNUBXDx5GdneWQ3AISVE/0Bxm58k9FESnbWRabnggGIJU0ZDADFFMWWFYN61LGcT2hFcQ8DEBvLCbjg+7bD5/7Smqrh6LQRUCpCpQkqwlPit7NMfjAAhJd+83J7SbWujnm9dDAMQCxpymAAnGj652m8fyLuggGIjeVEOBVrZpe0BQw7WkMgoAdPT1QRsvzuFwNQ3x/gFVtNwKQd77FWY3/rmRmEAYglTdENQMsxV7PJO3baGqM8v/eP5lAYgNhYjsYm5rsRmmRN1XB02gioWujaGPDRB6BRcqLkFQEnJ/oDDHrEu4VUYABiSVN0AzDI5gWtRFnWmrgDBiA2lhPxKZYGTlu+re+o6OaziSpClt/90gIQqS9aAdGOBZCi37O2mXyDJwYIBiCWNEU2AG0mXs9osqnouLL0Pfzen6+JqyI52NgnDEBsLDeGUfg3zXzKurLhDGkhIPsIAAoovxkAumd6d2+JXKMXVKmrYyTECRPWwVYjGIBY0hTZAAx8aI2tMSnCe//onIEBiI3laGxivwffT0u8sJNFBDrW/kLVze9jwU+3ksTZz48GINwfYOXLthEuDdnyoi8ADEBsnolqAFqPu8bWVileF69KxqUwALGxnAirgG7+J6eq9jiL6obDUyFQpC3okKgSZPrdjwaA6q9keC0bv+kd20yAfov7K6vBAMSSpqgGwM7FfiZwPt4/EXfCAMTGciKcwr9robap9AvbLSKgGgtGJK0EB5t23byuXw0AYXzyzNtte+86fvNWRtO3ull3MACxpCmiAaCYGb9lq21GtNOsJa7GoF3xDgMQG8vJcKX1aSzKGw5PhYCqmbOTVYIs2/xsAKgO7bj/SH+Cjhe42+kKBiCWNEU0AB1nLbFN/PvdvUpI8ac8hAGIjeVk+qLo5rmp9AvbLSIQ0IM3J6sEWbbZIYCUvKLicfzAy2x7Auv/wGpXcYABiCVNEQ0AxUzEQFr5nPDmNtZs0GJX48/OnIcBiI3lpNhqoWstyhsOT4WAapirklYCXgE0EJfIBoDq2A7hIPKmNQcCRsg1EoYBiCVNO+qRMHUr76kzKo3VtyL8kWN7LHzAtXI7gQ8MQGwsp8D4yVT6he0WEVB1870UlSB0wkXuze8tAIQDvYcd99pbthAxLeQSwdbpTxiAWNIUzQCcNP0WW2Ju3Otvs+K+7vY/sTu2YQBiYzkZvgHd3GpR3nB4KgRU3fxrskqQZRsMQH3i9Vz0oC1kXHbdMhgAj1rHRDMA5dctsyXmShc/5FrMOcV7MADpGwBVNw+l0i9st4CAYgSbOBXovJ0XBqA+8agvwKTt1udhH/LEetfIGC0AsaQpmgEYunyDZQNA61E0G3y5azHnFH/BAMTGcgqcf2pdVfsrCxKHQ5MhoJbVnJSiAoRPuMj9wQAcSTw7BJU6Y0WwdfrTjvKSaDpdTrfOL5QBMEKMYiXyDj/bz4GPvCBF/cEAHOGhdPLleH1eq2Qahm0WEFB1s286lSDDPjAARxKvyyX3WCZkIvIWo65yhZRhAI7UHeWiSAag5eirbYm1rpfe60qsOc11MACxsZwK72IjWG5B4nBoMgRUIzQpVQXIsh0G4EjilQy9whZSbj/jNldIGQbgSN1RPopkAChGsn3qjz6uZHitK7HmNN/BAMTGciq8A1pwbDINwzYLCCha8OJUFSDLdhiA2MQb++qblom5+/z7XCFlGIDYuhPJANhRVopVWXgIBiA2llPVa0A3L7AgcTg0GQKqHrw+VQXIsh0GIDbx6J1q9BNWNt+pd7cb8QEDEFt3dogqYepG3ZXf8ITlOJPl/T/hDQMQG8upYjBghK5KpmHYZgEBVQs9nKoCZNmeyABMrdvNpu3Zw07/4IPw/2nv72FTdu9ulLQoeWXBgxb1yUb0o4/pe5c7U7LCAMSSpkgGoO/dqyzHmXHzcmnyLpEBmLp7NyPuaeChPXsYcVN0vkW+E5fJwkOp7yN4vwWJw6HJEFD10JrUFRBLPqLu32AAdu9mZ3z0MTv38y/YrK/3szkHDrG5B7+J+T/n4CF2wb797NzPPmfTP/yoIQllMgCll1mfD6D//c+7QkQwALE5KJIB6P9761MA09wVovJOfLmjDQBxyzmffR7mGuKco3jowKEwRxFXEWdFHkx8ZQA0c2UyDcM2CwioRnBLfIDK+ne/e59nMz75lM3Zf/CoRItPvPi/Z319gJ21dy8ru/oxaYio27x7G4xN5Mki089BLg3NggEQ1wAMemyt5TijWJWFl/r89jF29h/3MuKUeJ5J9ffs/QfZ2Z98yqrueU4aPNKo11ctSBwOTYaAopt70qgA4YOtl/kQu+CLfRknXHxCnvvR56zzeUuFx4PqvPPcpZaJmSZ4cSN+YADENQB2TAJEsepGnDl9jc4XLGXnfvyFZR46/4t9rLRGnlaRFLjvTKZh2GYBAVU3v04BvtCJV9xvIRu1/DXLCRdtBObsP8QG3Lma0QInImMHAxArqiLVpUivAGAAzDBXDLxrDZvbyOvGaG7J9PvIZa+y4r4LheahNPLucwsSh0OTIaDq5rdpVICQAUZLhk7auMNW8Y9O0DFPbxI6+WAAYADcyH2/GwAS6DHPbHKMh4jjRF4eOY0Y/FsyDcO2LBFoO3zuL9MAX0jxb9p3IZu44V3Hki5iBMaseEPYlgAYABgAN/Lf1wbACLFRT9rbAhnhnuhPMgHU2ulGfXpwjZ9yqquPzVLmcFgiBIr1+QEPKtOVIKWmsegEcfJ735vFHJIDAwAD4Eb++9kAVN36rGs8NPzRV1zhVjdiJv4aeRWhgkQ6ht+zRIAWWYgHWoa/e857wLWkI2Mx++uDrP20W4VLPhgAGAA38t2vBqDD9NvC3ODkw0f8uXtcKs+CV9GxqVQuPD5LmcNhiRBQjGD7aJBl+H58/8vYjA8+c9UAUBJO3VzHVEOsToEwADAAbuS8Hw0AdRA+7a33XeehGR98ypr2XyTcw0iqOCyuCLVJpGP4PUsEVL2meyrgRdteecPTriddxIV3v0gs9w0DAAPgRn770QDQk3iEF9z+rLhuhXQGoKlhdspS5nBYIgRomUU3CMCta5DrJgfsdsJFrjfp1Z1CJR4MAAyAG7npRwMw+dWdnvHQ2Xs+EbZjcqJ4VCpCpYl0DL9niYBSEapKBLiIv3c+f6lnSRc2AQcOsdZjrxHGBMAAwAC4ked+MwAnjLvW9vH+kYeMdD87z5Rj4qSG+DTMiixlDoclQkA1zOENAOvikmHkHobcv95bA3DwG6Zd9QQMgAOxhJkAY/MTEwHF4hHhAB4+9auXe85Dg+9dJwwPpVNnxeWhQYl0DL9niYBiBMekA74o+0zdstvzxKPJgUTBCy0A/IpIqhiCAeC37k5ZudlzHpq6ebcwPJQq1mm7opsjs5Q5HJYIgYAWHJsO+ELsY4TY+Z9bn+s/3Sa2RPtNe3uPMIkHA8CviKTKORgAfutu+tY/eG4Azv9snzA8lCrWabui1YxKpGP4PUsEZDIAJYOv8DzpyBSct/dLYRIPBoBfEUlFijAA/NbdeZ9+yQUXNRt8uTBclCreYQCyFPlkhwW00LhUwIuyvdXo33KRdLP3HRAm6WAA+BWRVHkHA8Bv3REHJGohdPN34sRUcSTKdhiAZEqe5TaZDEDLUVdzkXSzvtwvTNLBAPArIqmIGQaA37rjxQC0HHmVMFyUKt5hALIU+WSHBYzgqamAF2U7zQDoprtOdK1zP/xcmKSDAeBXRFLlHQwAv3V37kdfcMFFMs0ICAOQTMmz3CaTASDCnPmx94k35bVdMAAYBuh4DMAA8GsApm6q89wAnCPQg0gqs0vbYQCyFPlkh8k2DHDihu2eJ96IR8RZkQstAPyKSCpShAHgt+5oVb5ELYRu/V794ruOm9BUMWrrdsMcnkzLsC0LBAKaOdTWSnLgyS+T8rm59GaiRC6d/6AwiQcDwK+IpIp7GAB+666X+ZDnBkDUJcoTxb1iBPtnIXE4JBkCilbTLxHgIv7eduKNnibe7K8OMJGG3sAA8CsiqfIPBoDfuiMOoM7AiR4S3Pj9xOobhHkQSRXrtD2gL9CSaRm2ZYGAbIsBUaB4+f5t9IrXhUo6GAB+RSQVKcIA8F13Y1a84ZkBmPpGnVA8lCrWabtSXtMzC4nDIckQkHE5YM+W4TxwiJ009WahEg8GgG8RSUaMMAB81x1xwdwDhzwxAaItS54sziPbCisXdEymZdiWBQJF2oIOEYCl+TRCbNLGHa4n3qgnXxNK/Km+YQD4FpFkOQkDwH/djXnK/VaAya+9x1QjJBwXJYt12lZcEWqThcThkGQIHK/Pa5UKeBG3t518I6P38W68a6Nr0Ljf5sOvFC7pYAD4F5FE+QcDwH/dtRhxpatDk6nfAfWDShQzIv+uGMFmybQM27JAoKTPgiKRgyJZ2cuvWOaKAZj99UHW+QIx196GAeBfRBLFOAyAGHXXZdZdbM7+g65wUdnix6QUf8oBxQg2yULicEhSBKqrj1V186dEJCP674PuesHZxDtwiJVf/riwSQcDIIaINJaHMADi1J1Wu8zx/gADl64Rlocai++4377Pyck5JqmWYWN2CKi6+X9xYEsVSH1vesYRE0CunhJbZOxgAMQRkfg4gwEQq+76LHyUUWuhE68lB929Vmgeio/tRv7+c3bqhqNSIqDqwS8bAVyqgOox7/fs/E+/si35aMphatoTHTcYALFEJDreYADEq7tO5y5hNEWvXSbg/M/3MZp0KDouJP2+N6WQYYfsEFCNUJ2kQROTGK3HXsNOXf22peSjp36a5rNk6BUx5xYVPxgA8UQkEmswAGLWXfOhtWzkso1szn5rQwTHPfcmaz3mGil4KBLTST7fzU7dcFRKBFTdfCMJ8NIFWIczfsdOWbU5o1EC1How4rFXWJsJ10uFBwyAmCJC+QoDIG7dUf3RTH0jHt/Izv9sX9oPJTSy6ZSVm1n702+TiodS6Y9imC+nFDLskB0CAT30fKoKkHF7yeArWM95D7ChD25gE1/azs5674/hITvURHfGzo/YhHXb2OB71rJuc+5hTasWSZlwMADiiggMgLh1F82nxC3d5t7LBt+7Lsw5xD20pDi9Zjxz58eMFjgb+sCLrMelvxdqmvHoe7Th+9PZqRuOSomAqgfvt6GCpBRI2XGBARBXRGAAxK072XnF9vszzCUphQw7ZIeAqptX215hHq8KiPtJjxxhANLDicd4ggEQt+54jCeey6RowcXZqRuOSomAqpmzea58lM05ooMBcA5bp+MWBkDcunM6NmQ7v2KEzkkpZNghOwQCemi8bAGD+0mPHGEA0sOJx3iCARC37niMJ57LpGg1o7JTNxyVEoGAZuo8Vz7K5hzRwQA4h63TcQsDIG7dOR0bsp1fMYK9UgoZdsgOAVplSbaAwf2kR44wAOnhxGM8wQCIW3c8xhPPZSosCzbPTt1wVEoEmmuX/JfM6wHwHNhelw0GQFwRgQEQt+68znvBrv9jTsfaX6QUMuyQPQKqbtD0naAAACAASURBVH4jWFBg2KENIy1gAMQVERgAcesOXJtR3X2VvbLhyLQQCOjmVgRlRkEphQGBARC3zmEAxK07cG1Gdbc5LRHDTtkjoOrB5QjKjIISBqCujk2pq2NDl29wBYsBD64JX4+ume1/Ek1Z4hwGwH/5KkvsZnIfih56NHtlw5FpIaDqweszqRTsKwf5oAVA3HqEARC37sCf6dddQDOvTEvEsFP2CASM0PkIyvSDUhasYADErXMYAHHrThb+cOc+Qmdmr2w4Mi0EApo51J3KRNLyhDMMgLjxCAMgbt3xxAG8l0XRavqlJWLYKXsEVC3UlvdAQPnsJzwYAPsxdStOYQDErTu3YkSG6xQYZsvslQ1HpodAdfWxqm7+W4aAwT2kT4wwAOljxVtcwQCIW3e8xRLH5fl7Tk7OMemJGPayhICqB9/nOBCk6b3NE8YwAOKKCAyAuHXHEwdwXpZ3LYkaDk4fAdUwV3AeDDABNkz+E13HMADiiggMgLh1F52D+J64HhXdfCx9BcOelhAI6KFaBGPiYJQRGxgAcesbBkDcupORSxy5J8NcaEnUcHD6CKhGaJIjlWjzUyvKaB/xwQDYh6XbcQkDIG7duR0rol4voIXGpa9g2NMSAoGy+V1FDRSUOzsyhAHIDjce4g0GQNy64yF+RChDkbaggyVRw8HpI9B2+Nxfqrr5nQiBgTLaQ34wAPbg6EU8wgCIW3dexIuA1/xXTunMn6evYNjTMgKqbr4nYKCgc2CWr1lgAMQVERgAcesOHJu67miBOsuChhNkhoCqmw8gOFMHpywYwQCIW9cwAOLWnSz84eR9KFrw7szUC3tbRkA1gnOcrFScmy/SggHgqz4yyQ8YAHHrLpN69uu+ihaaaVnQcILMEAiULzD8GnB+vG8YAHFFBAZA3LrzI9dkes9Feqh3ZuqFvS0jUNx1/m9U3fwh08rC/mKSEQyAmPVG+QYDIG7dgS9T1t33ratqf2VZ0HCCzBFQdfMPCNCUASpFx0MYAHHrGQZA3LoDv6asu92ZKxeOsAUBVTcfQoCmDFAYgLo6NqWujg1dvsEVLAY8uCZ8Pbpmtv9JNGWJbRgAf+SoLPGayX0EdPM+W8QMJ8kcAep8kUllYV9xiQgtAOLWHQyAuHUHzkxVd8GzMlcuHGELAsX6ws4I0FQBKsd2GABx6xEGQNy6A78mrzvFCLa3RcxwkqwQOCagm/8PQZo8SGXABwZA3DqGARC37mTgDgfv4S85OTnHZKVcOMgeBFTNXOdgBUvzHlZ0jGAAxBURGABx60503nC0/Jq52h4Vw1myRkDRgosdreQsp651pUzl81hR9xmssPNprKDTJFbYZRor6nkeUzX5CAcGQNw6hQEQt+4aeEwzWVHP88McU9BxIivsPJUVdj+bqeXz/PuQZAQXZC1cONAeBIr00ICGIOVZrG0sm9J7LstvO5LllpSxJs16H/U/t4XO8juMY7SfLNjAAIgrIjAA4tad0udClt/hVEac0hjXNGlWxvLaDmdFvWdLwzXpcqai1fSzR8VwlqwRoEkYVN38V7qVJvp+BZ0mM0q6xpMx3gz0YXknDmOFPc8VPjlhAMQVERgA8eqOWhLz245gTZr1SY9rSvqwgpMnCM8zGejDP2lV2qyFCwfah4Cqm69mUHHCBik58fSEP94I9GZ5rfqzwi7TmaLVCHn/MADiiUgkJ2EAxKg74obCrtNZXuv+WfNMfvtThOSXSKxm8LnBPgXDmSwhoOrBRRlUnJABSomZrfhHH5fbwgg7daXsYqFwgAEQQ0Qay0MYAL7rTim7lFHLYm6LCls4pqDLaUJxS2Mxm+q3gG4GLYkWDrYPgWIjWJ6qwkTerpRdwpo012xJziNmoIzltxvNlNJZQiQrDADfIpIsv2AA+Ky7ol6zwxyQqC/REa44ukUx6baScibaA0ay+G1sm1IRKrVPwXAmawhU1R6n6ubfGqsoGX6rf++fYRI20jkwUdLmnjCAFXY7g6lakFszAAPAp4ikk18wADzVXTDcJ4j6BiXiAzt+Lzi5mlsuSSdmU+zzPznV1cdaEy0cbSsCqmauTlFpwgZkbqt+jiZrJOFzW1WGh/eoGn9De2AAeBKRzMoCA5AZXo7wWPm8cG7nturrDpe0qBCWb9PA/xlbxQsns46AagTnpFFxwgUlNaVFBNq1z+Yay28/lqthhDAAHIhIlkNZYQC8qzul94XhPj/2v0JM3SJJrxik5GTNPM+6YuEMtiJwvD6vlYzBVtj1DPcNQMPrgz4sv83Q8GRDXmMLA+CdiFitexgA9+uufhjfSNakJM1hfA05n1rY030QoVeXVmOHw+N/KiwLNrdVvHAyexBQdHMPhwFjKQny253ioQE4QgY0NIhmGvRqGCEMgPsiYlcuwQC4U3d2DONLV9zT2S/vxKGWuM+u+LP5PDvtUSucxXYEVD14vc2V7XkAu/XOLp2Epn1oRjCa8MPtXr4wAO6IiBP5AwPgbN3ZPYwvXS5IuV/zcummJQ8YoatsFy6c0B4EVKOm0gkC8+qcSp+LuHj6bzzRy8LTEReVnu+KSYIBcFZEnIxxGABn6i48jK/92IRTgjeet0da9dzYLls/gOKKBWX2qBXOYj8C1dXHqrr5FyfJzM1ze/v+P32iyGszhBV2n8FU3blhhDAAzoiIG/EMA2Bn3QXDi/DktRnM8cPBEe6g14ZuxJhL1/gmJ6f2Z/YLF85oGwIBw1zmUjA4HtjU1O6GS7frGvS6Itzxx4EVwmAA7BQRd88FA2AD3uXzw31wcltVCcUJtCiZLHysaqGHbRMqnMgZBFQ9OEGWgKtfjOOIm7ZLqB0/T/Ny24cRwgDYICJZDuOzmk8wANnXndL7Is+G8dnBEzJ1BFSM4BhnVAtntQ2BZqW1v1Y18x9WSYuH492aAMiORG/8HPatRggDkL2IeB3LMACZ1x1N0U1TdXs5jK/xnM7wgaRlpSwtAP9HK8/aJlQ4kXMIqJr5lNekZ/36wfSX4nRgDK8tyR9VLqvDCGEAMhcR6zFozzVhANLFsYYVdj+L5Z0wUKhm/lRcoTrwStDt2FZ08zHnFAtnthUBGV4DKL3nSkUCEZLIdhghDEC6IsLffjAAyeuE22F8UQY+kr/ZfBb1EmPBsWSmAs3/tkq0syeT4TVAYfezpTQAEQKhFchokqOi3nPSaiKEAUguIsnIy+ttMACN1139anxjuB7GF8lXK59FtNCYR/1PbLoumv+dlWz7z64a5gqbKt+T4C3oMk1qAxBNKHknDA43fapa40RJ9QgDkBgb3uMcBiC67txZjS86v7z+Xth5qiccaldeBPTQ4/YrFM7oKAKivwYo6DjZNwYgQlC5LRMPI4QBiBYRsb7DAJiM3oPTmHjxO/Zm2AmwWW9W0HGi0AagWDdPcVSscHL7EaAem6pu/o9dLtDt8xScPN53BiBiBGjlMho/TDMhRnCHARBL9CP1Rp9+NgCiD+NryEkL/QEEnwvgL22Hz/2l/QqFMzqOQMAw74kmIpG+57fnYxEgOwgg+3McGUYIAwAD4Eb+Dl2+gU2pq7P0n2JVmmF8FoQ/kvf5J41uMPJu1KHN17jDcaHCBZxBIKCZus3B4Fog57cd6d8WgEZIp7DjMKZfdweb+O72rMmZyN2NeBjw4JqsyxgRH3pqdqOsblzDLy0Ak3bsYP2WPMCUziOQu1E5nNd2uLCxXKSHejujTjirKwiouvmRGyRn9zXy2wwFiUSRSORpQuk0kJXWXM3Gb34zY5GFAfCmFUF2AzB+0xbWe9H1LNB1CHK2kZzNazNIVAPwsSsihYs4h4CiBRfbLc5unE+UxT4iwuz2Z35rnXWaMY+NWr0+bSMAAwADkCp3M3kFMPK5tazjmZcwikW341+k6+WdIKgBMIILnFMmnNkVBJqWh1qruvljqsTnbTvNoS1SkntZ1laDpoSbXie/tyupGYABgAFIleepDMDk995jgx5+krUdO0P8aXobeVp3Io/pYSYV7hxu/7Gw76IWrogULuIsAqpuvsRhgCVNirwTh8EAZEhQTXuNYuVX3sImbt3WqBGAAYABSMUDiQzAxHe2hvugHF8+BnmZYV7S68xUuHO3XTPXOatKOLtrCAT00HjuAizFzFj5J6EjUbZPIwVtK1mXC0Js7MuvxhgBGAAYgFQ8EG8ATtmwkfW4+HJW2F6sZXizzR0njqOHmVS487YdY/9dk2cXLlRVe5yqm/t4C7Jk5ck7aRSeNDJ80ognr9zmZeGmWmqypd71MAAwAMlyjrZFDMCIZ1azDqdfyHJblCEPLeYhLWueCnfOtn+VU1V7nAvKhEu4hUDACF3FWZAlTYrwUqAWEy9eEP38d/N+E1jP+TcwVQ8mxd2OGMEwwFijIc4ogBpWuuAW1nLAJIi+jdyTf9Iox3POjryNnEMxzMvd0iVcxyUEqEOHqps/RCqZ90+aPcvPgu3Uvee2qGAFnSaHp2Z1KgZgAMQyAErZJayg0yRGseFU3Pn5vDSpmVO55sB5vy/SFpW4JEu4jJsIqJq52oGAcSS4CzpNARnZ+BQST8D1qxGOZrQim90xAQMghgGgJbfDRrukHLnmYK6RubI7xxw7n2audFOTcC0XEVANc7hjgZOiU1+m16UlNONFC39nvhBJOpjRaoRF3WfYRlIwADwbAP+txpdODji5T2HX6bblVqY8mun+ASM42EVJwqVcRuCYgGZ+kGlQeLF/Uel5MAAOPpU0Rni0GmF46dLy+ZYICwaAQwPg49X4Got1N38r6jnTUj65x7/B93Nyco5xWZNwOTcRULTQTPcCKpYIM7pun4tgAFw2AA2kWFK/GqEatRphJnUHAxAb9152AlTKLg4vR0srTDbUr1dx5dPrKn3mimIAznJTi3AtDxCgpR1V3TyYCaF7sq8WxExjXhNmSW9GY5ipNSaTGIAB8N4AYDU+Z16XZWOiFK0mo/zJJNds3PcQLSHvgSThkm4jENDMK20MHMeCO7dVJZ5avDYBh69P85kXdjuLqVrqYYQwAF4ZgBpW2PUMlnvCAOQNJ3lDIytE4FpaM8ZtHcL1PEKgWJ8fUHXzX7wHJpYE5ucpJvLkEx5G2HEiU8ovTUhsMADuGoD6YXyTWW5LGOZInPLyKcgkQP8OlC0s9kiOcFkvEFB18wHeDQCGAvJnACLEGhlGqPSac5QRgAFwxwBgGB+/+RHJExGGAAZ08z4vNAjX9BABVQu15X1ioKKeGAkQIRKeP2mxk+hhhDAAThoADOPjORfiy1bU49yjDDJnD14/KBUL2nkoRbi0VwioenA5Z8EYmyzl81iTZn3wPpOT95nx5Bb/d26rfuFhhFX3ropZhIjWIcj0P/Wc5zo2M5j3wo5RAFX3rGSFnU9jNFQzHnf8zW9LgFKW+FUZD/Ed0EOPe6U/uK7HCDQ1zE6qbv7IQyAmKkNuK6xCJhrB559weDXCV17LWPgjRgEGoN40jXt9EyutuZoVnAjhFy0Pclv15d3E/lSsL+zssQzh8l4ioOjmc4nEl4ff89th/XHRiC9S3ryWGuswbS4b8fTzGRsBvxuAYU+uZO0nXYDV+ARp/YrEfPRnXjvuFwF6xkvtwbU5QEDVQj1U3fyJB7FvrAyF3c5Gk6fAJBghRFqNsPLWe9jkne+lZQb8aAAmv7eLDbjvUdZyENbBiMSNyJ+F3c7kugVAqQiVciBBKILXCKhGcH1j4svFb+XzGPU4F5kIUPYj72jVzoPDTdoTtryV1Aj4yQBUv/0OK7/yFqZ2H4Y4l8DshvO9pI+jK25a5+bQGq91B9fnBIHiigVlPLcC5J04FMQoCzEevo+CtpWsy/kmG7P+pUaNgB8MwOi1G1jnc+azvBMMxLdk8Z3XZgjPT/8/Femh3pzID4rBAwIBPfS8dVcZO/zJrvNR72c8RR95ipYJi9wWZazLzCAbv/nNGCMgswEYv2kLO/n0C1luc7RsyRTL0fdS2HkKvwYAS/7yILl8lYF6g3I7IgALA0lvgALdh7HRL7zYYAJkNQAjnn2BqV0GS1+f0WLox+80SZNdD0A2n+cHGv3Fl/qgNFwgoOjmYzYHm21JkNt6IEhTsmbSeGEo6tCfjX3p1bAJkNEAjFn/Mitsj2Gt8fUu2995raps4z3b+VgLPcyF2KAQ/CHQtDzUOqCb/7E96DKYNCXRtQu7nA4DILkBICGgHvA0UkA2A0A9/Ev6TkAM+yCG6ZVlIh7z+PfviitCbfhTHpSIGwQU3bzL4yBtPHloVkCsae4LAel7x/3SGQDjxqW+qDvZnuYzvR8asaSWz2ucw2x4ELLEzYa5hBuhQUH4RCCgmUMtBZmDQZ7fbixI1AdPUGq3UazFqKv4JNEs4ptaM5pXnIrY9UHs5rcbzW3cErfzqTooFTcIBHRzI68GQCmdBRL1AYnSUxe3T1FZGIAuF/4OceuTuC0qPY9bA6AY5svcCA0Kwh8CxeWhQbyKf6RcuScMAJn6gExpJchInYv+2W7aYsSsD2I2tzXHnf8OG9ciPTSAP+VBibhAQNXNt3kn28JuZ4FMfUCm0csL8x6TqcrXcviFiFkfxGxh1zO4N60B3dyak5NzDBeCg0Lwg0BAC45NRWR8bA+yvNb9QaiSE2pRjxnck2m6+VDU7QzEq+TxmtuyH1O1oBAxq1SYo/lRHpSECwRU3dyVLqF5vV9hd7QCZNo7WbT9lT4XCUGm6eRCUen5MACSGwARnv6jYnUnF6KDQvCBgFIRqooKDgGIN8jyWqEVQDRRT7e8uS0qBIjB9Ke9VrQaDGGV2ADktqKn//TjgQuuNcwKPtQHpfAcAVU3n+YiKDPoYY1WADnXBiCTUNBxolQGgHIrv/0paAWQ1AQUdeV72d8E3P6k58KDAniPgGIEm6m6+V2CIOGaiHNPwPTA6T5VC7NficaUsku5jrtscoVeaWBZa/lMK/VHEu7pv/5B67sibVGJ9wqEEniKQMAIXZUNofFwTFHvOaxJSR88WUn0ZFXYZbp04h/JlYJOkxCrEsVqk2Z9GPXviNSvaJ+KHrzCU/HBxT1GoHTmz1XDPCBa4EaXN7/DOJCqJKTK+Rrq1oleCzLMYyFPK0BB+7HWYyKD157RvGfT969zqmqP81iFcHmvEAjooSE2BZJ3iVA+n1GnMWGauCURa9vxLilnSu8LvYsjl4g43GrVrAzxKnge5LbQmVIu/quqYi040Cv9wXU9RiCgB+8V3gDoJkOHQPGfqgq6TJNe/CO5Rp0cbTdQgguqaHgINuwvYW7R4m8eyxAu7wkC1dXHqrp5KEJKon/mtR0OUhVUBKRv+j+qdQGTWYkm+NHlzTtxaEJBFZBHD+ZUVx/riQbhot4hoBjB/gIGa+LEK5/HcltWwgQIZgJyWxhMKbs4cb0eJZ6CjbdOUH6l1xzWpHk54lXIeL1Erng1aiq9UyJc2RMEVMNcIpUB0E1WVHoBo5650W4d33l+PdCHybToT6b5VNj9bMSqUAagDyvqca5c4l9vUH/niQjhot4hoOrmJ5kSlgj7F3ScDFIVhFQLO58mI5lmdE8FJ1cjXgWJVxknqDrM6R97p0S4susIqL1rmoog5tmVMcjoHR2e/Hl+8u/N8tuNzkgos4sFEV4XULwOQ7xybgLy2gwWdcKf9PKsd01T14UIF/QGAdUwJ8pLqCZTyi5hua3QH4BXE0Rj4Wl+fJljMKN70+Yxmk+e1/rye7mob5Hs/VQCRvBUb9QIV3UdAVU378iIoBJ0ZOL5HEqfCxmN1fU7efF2/7kt+0pPptnkRX28Yj4L3uK1SXONFfWaI71ZDWjmra4LES7oDQKqbu7MhqREO0ahToEl6GnNDanSk5REy/zanQ9K77mMRkVwU1+cN8s7jROt3VDUU9ypfjOMz3e9USNc1VUE1Kra/1Z184cMg0NYB1zU4xysF8ABkdNsjX6Y6c9qXhX1ns1ym6PlymlxT33+PuEJxqzWp0DHf9+stPbXrooRLuY+AooR7CVQUNpiPGiBmdQJz3enOZHLH542tfdcW+rSD7Fb1Gs2o6Znketc9LIXdp7qw3it6e6+IuGKriKgaOZUP5Bo/D3SVLOYI8B9k0NP/n54hxofb1b/Lio9DybAo5arws5TfCj+JlON0CRXxQgXcx+BgB6qtUpOoh5f1O0MmAAXSTW8Vjre+WctJjRbIGa3dNG0lvRmhV1Oz7q+ROXFSLkVLbjYfUXCFV1FQNXNJyMV7sdP6hNAnXtEb6Lkvfz5bYYwVZvnWzK1K7fCQ1pPGIB4ddy4lvntnf9RuanooUddFSNczH0EVN3cYRc5iXoemn4W71ide7Kqn+QneBTBiBovnpe7fD7LbzsCJsApE1BSLusUvxnloKKZ77ivSLiiqwiouvkXzwmNg3kFqKMVJguy2QSU9GYFHSdlRDqIxTRnK9RMlt/hVJgAm01AeJKf0gsQs/WcfNBVMcLF3Eag9md+GgKYUlzK57F8LCNsi6gQkfpozLRngkGL0WCuAHuMK03vS69YUvIEBw8sLpXxO7cVCddzEYH8qovzXQokoZKqoBMtIIRVBLPtV0DN02o53ve7lVskWlg/wJoJyO8wjqkaXlPFx2xx1/m/cVGScCk3EWhaHmodX+H4u74Jtqj7OegXkGHzKnWm9Od46TSb7R1+ciTsmzRDh9aMjGvzclbY7SyhHlDc5OjCsmBzNzUJ13IRAVUL9XAzmES7Fk1Tiyer9J6sCCeav160OpatvErpLJbbeqAtr3EyEtIMzSIP56ZVQpXeFyFmkxjTYs3s4qIk4VJuIqBUhKpkI0An7qew+1lYSCgBwdPEPoXdzgCJJiFRJ2Iy1TmpTrD4VQLz2lxjhV2mIWbTi9m+bmoSruUiAsXloUGpiATbDzfvUgfB9mPxZNVgBPqw8HtTvOvnV0goZjuMY01KEghhQ136Z3u4parsYn7rLD1Rdq38ihHs76Ik4VJuIoAWgMzf3YZ7Xbeq8q8RKOnD8k8aLUdzvxZktEIkPQ0WnDwhLJYkmAUdJ4RngKPmdFXLPEZ4M800xDXP56Nbclv2YzTpF291w315jJpKNzUJ13IRgUD5AoP7AOTMEdfjFQw3e/tr+FUfRhP60BK1oscMrUWQ325sWk3k1Ixe0H6sJPc9O1yHvmoRaK4xGtWjaDXCx60XeVdsBMtdlCRcyk0EirRgHy+CSpprls8Lk4vMRoB69tNTMXWIFL3elLJLWV67UdkN8SzpXd/yUXap+Dj0nhO+lyYl8g51pSWUSfgxHNVaC5ZSESp1U5NwLRcRwCgAa8nRIIjafFbY+TSWK9Ec7XQvtGKiLARa1GOGLRPmkNkr7Hmu8CaAYlcpu7jewLbqJ80rrdxW/VgBrd5XPl+KOmrgGI9aQgNl87u6KEm4lJsIFFYu6Oh1gMl2faX3HFbQcSKjd448DHXKqAzNtXBHR6XXLKnIs7DLdGbv024fVthVrpEPtB5GfrtTWJPm5YLG7RhG9yAbn3h9P0Xagg5uahKu5SICzarmKV4HmMzXJ0Ki98c8m4HcVlUsv8P48OInMr4npUlenJnVsQ8r7H62fIJTPj88MU5++1MYDfHMyEC6OKqAppqmMtZ37MMMfk7xaF5FqMBFScKlXEbgGFU3/+VU8OC8Ua8Y+lzECrtOD3fC8pJYqVMb9Qin5n3ZJ0FRes1xdqnnknI5RkMkaV4u6j07/Jogr80QT2fGpLjNP2lU/egMTDjllvH81mU9wuXcRkDVzc8h1FFCnYQM7cSJetPTBEP0uoCILS88tNDOaVz7sPBTEol9x4msqPuM8DtfO++B73MFGS3u4vQTLF2DbxzsjO1geDREYbczWcHJ4xnNpGf7ZEMlvVluy77h5Y4LOlazom5nMhrG6B+M7awvy+f61G09wvVcRkA1gluQXJYTxR6ConHpfS5kRT1nhpthw+PTO04KN9HntxvD8tuODPdipwmJIv8L2o8Lj2GnToiF3WewotIL6oXe5wub0Dt6p8U/cn4SKV/nUPk8Rn1fwnHb9YxwiwEtVVwfo6eE45Zit+H/SaNYfdxWh9eOoLqitTdI6GV8DSVwbGx2WY5wObcRUA1zhcAB6m/idam1Qrz4qGG5rfq6ZgByW1UyVcc4c/HihBPjz2sea+ZTbusRrucyAooWvBGJCyKQKQbqV8Vzd3rb8JBJXokc5cKDQhYxoOjmDS7LES7nNgKKZk6VifxxLz43M+XzbBnvH2neT/eTOnZi7LnPYy8LkeWZrwJ6aLzbeoTruYxA0/6LOxX3WwiHLFny8kwsTpaNOjymK9p271fQcTLyCHkkRQw0H17Lmg26oqXLcoTLuY5Abe1x49/c9tPoDZtZ5ZKVrOul97DW469lqhGSIpCdFBucm68nPprqt0lzzTMDQNeWZeZExDZfse1kfQQqQmHO72Hez/rf9xwjLah+690fXdciXNAbBIav2vi3KXV1LPp/9Tvb2dDlG1jZtY+zjufdwZoNXAxDgKcbrmOAep7b/VSf6floVUEnyRrn9o8wO1XXzYddEeZ04nbi+Enbd8ZwP+nAyOc2HvRGjXBV1xHof//q7dHi39j3ybt2hZ0hOURyitRKQM7RqSDFeUF0mcQALVZECxdlKth2709loDn2Myk79kWsOxUDjT3dN8bv8b8NemTdK64LES7oDQIVtzx1e3wApPN39dYdsa0Egy8H8aGVwJMYoHkS7BbzbM9HSw07Reg4L8xCshhI5+k+HW7vd9+zC7xRI1zVdQT0a5Z1TycoUu0z+b1dbMz6TazvXatYt/n3opUAZsAVIaRZFe1d7MfiEMKS3uGJcZIRNbZByK3GQKDvQtZ22k2sdPFDbMBDa9i4198+qik/FWcn2j5q9cvoAOi6Ent4wbGvvPltomCw8nv11u1s+KqNTLvxyfq+BGglcEUUrZKLSMfntx3OzdN/pNWApncWCUOUlX9DQj3zqT9Wsnf3Vrg6IuauLAAAGghJREFUcuzY1976Hw+lCJf2AoFBj6zdEgkApz9P3byVDXhwDSu97EF20uk3s+K+C0CWaC3IKgaUXhdwJ/4RE6CUyrWsMkyCeyaB3t2fOPmGMEdSv6uxG9+07ek+Fb8PW7VxpRcahGt6iEDlkpXnpAoMp7ZP3LYj3EpQ8bsVrPPcpaxk6BVZiQEIyj2C4gXr8Cp1Li5DGxH3dD5psRxecEI5+M6NyNM9tZRSi2ljPfOd4t/4857yytuDPJQiXNoLBKpqXztuwpvbfowPBq/+jm8loPddIDG+Sczt+qG14NMRYi/3oQVy3MYF1+M7T4orF8Q+3b/q3tN9Kj6v3rr9P9UrVhzrhQbhmh4jMPTJ9R+nChCvtk96dycbvvJlpt+8nHWcdSej3q4gOr6Jzun6yW09gHsDkHvCQMSpz19vtRh1Fety4V3MuG0FG/n8q2zSjvdca87PlK9HvfD6Wx7LEC7vFQJVd606P9OA8XJ/aiUY9Pg61vvKR+r7EmBKY9+IDa1J7+WTfSbXLux+tm/qxWnTx/v5eX66T4erx27YMtwr/cF1OUDglI1v/iudQOFxHxqGeNSUxj5/+uCdMLMqnxZkua2qhDEAua36MVULwgRImIs8vbu3ysnjN2/9aw5jx3AgQyiCVwgMeGD1s1YDiafjI60ENHSm/YzbWHEV+hJkJbockTctvZvJEzgP+xZ2nQ4DwFEMZZMD8U/34159i9um/Gw4eNTa12/xSndwXU4Q0O9YfuLkHUfPDZ1NQPF4zKSd74V72dLkGc0GYX2DbIjQy2MUrYbR0rs8iHomZaAyU9m9xA7XzrzPTMmwK1ifqx5lI57dyIg7eOQ0O8o0aed7P51eVxfgRIZQDC8RGLZ8w6d2BBXv55jw1jbW5eK7QcoCPZnRkruZCC9P+xZ2noJYEyXWjBDrdcXDjIYo885jdpRvzIubN3upObg2Rwj0ufqxsbT4jx2BJcI5yq55HMQsAjGXz/N2uV+L8w3kttCxXLAAcUaT8FTd/5xv+I+4/pQ3tnfhSIJQFK8RGPLki1+KIN52lREtAZk3j7rdpExL7fL0RJ9NWQo6ToTZ5NwElF+3zDfiT/w5eu0bW73WG1yfMwTKrn10hJ9aASa8uY0dP+AykDOn5ExL7DYpKRfeADRprjGl7BLEGadxRsucy/yuP/6BCU//nAkvT8UZ9MiavTS0Lj5oZP2bOga6/VSL66XX8kBL7GbzxM3jMfkdTkWccWoA+i5d6Ru+I24fuebVl3nSHJSFIwSUigXtiisXfB+9KMW41+Qa+hJtZoY98zKImUNiVvpcyJo06yONAWjSrIwpvS9ErHEYa9QSGM0JMn0fv+kdNujRteGJ09qdcQsrrlr0h5yc2p9xJDkoCm8IqLr5UPxTavzkF7IMG5zwzrsgZQ5JmZbW5fFJ3kqZ8tuNRqxxFmvNR9RKI/70GmPE6tdYxe1Ph0c6tRx99VHxFtBC43jTG5SHMwSaVc1TVN38Jt4ERP9d3G9heCre0iseZoMeWcto8h0hnfOuXSxghI5KlOh7xff0muztwqmo12zJnv57HzYzfRjdm1044TzW45Le/wvJW3V1LPx0//g6lvaEZ0ZwPWdSg+LwioCqB8/KlGDiWwm8XN4y3aSe8DZaADKtZ6f3pyV1rTxp83xsftsRMAActQK0GHmlEAaAnu5pUSFaXIgWGaLFhjLMw38WV4Ta8Ko3KBd/CByj6OYrGQZZTFDWtxLcxHpd/hAb+PAL7NQ33uEu2UY8tzGmzFbuF8dafyIr6nmetOIfMSZFpecj5ngxAUaI8dgH4KjpzC0ueqZowYv5kxiUiGsE1LKak1Td/JedwkaOu/Ocpcy49SlG4uv1Mpm9ah8BGfNCxrrJ8k4YJL0ByGszCDHHUcxV3evtBEDEgcSFxInEjcSRdnKuqpvbcqqrj+VabFA4PhFQDXOhzcEYE9w0A1f0iANa2S/d5nur+1EHwGaDL48pj5P3inMnbyGgJXQjT8myfxZ1Pwdxx4kJaDP5Bubm0Odxr7/NBjy4htEQ5LbTbmKBvo4uVvZdoGx+Vz7VBaUSAIHan6m6+aKb4kUOuNOcpUynVoJVrzCn+hJ0vfQekDAnJKxqJstrLc5yv1YNSl6rKqbqWC7YTV5Jdi16t271gaKx44m7iMOIy4jTHHi6T8phih6aJ4DIoIg8I5CrXVKo6KEvkiWQk9uK+y5gbU+7KeyYyTnbMS8BTf3pZJlx7uRP+/H40NK5VkVVtOOLup2BGOTEgNKyv4MeW2vZBBA3NTzdn3YTI+6Kj3W3/g7ooedzcnKO4VlbUDZBECiuWFAW0M3/uBW8qa5DIw46zVrC9FueCi/1m24rATX7d5t3r2dJmeq+/Lm9huW2qvSdAaB7VnUsF8xLzNPryPLrl6X9OoA4Z/iqjWEOIi4iTuLlXlTd3FtQauYJIi8opggIqHrwQo4CPCbZyMG3nXoj67noQdb/96vZ2I1vNnQwDDfDPbsxPBtWs0GLY47j9X78VC5aMle0p3e7ylvQZRrikZNWgEjO0QQ69GAx5sVNDWaAOuoRpxC3EMcQ1xDnRI7h7PNfqhbqIYKmoIyCIRAwzGWcBXvSJGzaf1HS7SLdi5RlLZ/PclsYvjUAuS0qmKrNR4xyZgKic024BcOM4BmCyQqKKwwCpTN/rmrmuugEwffM3ncDryN4+fnpP9KKUIhWABggmwxQQA/VCqMlKKiYCDQrrf21qoc2QciOCBmwyA6L3Fb9fPv0HzEANPoB8ZNd/AC3I7gpunmXmIqCUguHAHUwUXVzBxLwSAICi8ywUEpn+V78IyZA6T0HJsCmp2A/5mFADz6BVf6Ek1GxC9y0coGq6uZHfkw43HNmYt8YXgUdJ8MANKtfKKiw82kwADAAWcWAYpgvtx0+95diqwlKLyQChX0XtVB0c09jBI/frIukzBjmtR0OA3DYANDyxzLXNe7NGS6g9VqKu87/jZDigULLgUB+1cX5qh56HUnuTJLLimuuj2b+izT1J/qkNRBkrWfclzO8oOjms62ran8lh4rgLoRGgJqgVN18EsnuTLLLiGuTEg0tAIdbAMLDAdEEDhOUfgw8mFNVe5zQooHCS4cALSF8g4xihXuy39g0KSmHAWgwAAbEL33x8zlWweulUw7ckDwIqJo5W9XNf0M07RdNmTBt0hwtAJFXAjQZkkx1i3uxP/dpKnZFM8+TRylwJ9IioJTX9KT5qEEE9hOBLJjmtvLP6n8RoU/0mXvCABgAtAAkiYHglwF9gSatYODG5ENAMYJN0C8ABiCRYclrOwyvACKjANqOTEL+iKFEMeST31+gFVnlUwjckS8QCGjmdFU3/+mTZAWRp/kkV9BxIgzAYQNQ2Hkq4ibNuPERj/xQP7Vv7c98IRS4SXkRKKxc0FHVzTd8lLwg9BSEXtTzPBiAwwagqNcsxEuKePETd9DcKmjyl1cP/XpnxxxuDfjGT8mMe03UhB1kuS0rfW8CaD0ExEiiGPHd79+pevB6zOznV4n0wX3nVYQKVD10u6qbP4L4fEdwMWJX0GmS7w0ArYiIPPB3Hhyu/81F5cGTfSABuEUgkJOjGjWVqm5uBvn5mPzK57Hc5rpvTUBuC52p5fNgAHzd/B/8UtWDZ+Xk5BwDXQACvkNANcwKTCXsXxNAC+EkGh4n+++FXU6H+PtX/P+s6iET0/n6TvJww40hUFweGhTQza1oEfCbGQiy/DZDfWcC8tsMYarmt7rG/QZ08/9R7/7CstrcxngQvwEBPyNwDBkBVTefUXXzO5gBfxCmUnYxo/nwZX/ij9wfdX5Uyi7F07+/nv4/VozQJRB+P8sb7j1tBNTeNU2piUzVzM9gBOQ3AkrvuYymxI2IpKyfdI9K7zkQf3+I/4+KYb6sVJij8Y4/berHjkAgCoHq6mMVrWZUQA89rurm/8AMyGsGinrNYbkt+0prAmj6Y6XPhRB/+cV/t6IHryjSFpVEMRm+AgEgYAmB6upj6zsNBq9XdfNjmAEJzUD5PJbfdrh0JiD/pFFMLZ8P8ZdT/H9UjeAWarEs0hZ0sMRxOBgIAIH0EAhUmN1UPXhhwDCXqbr5KQyBPIagqPsMKVoDcltXsaIe50L45RL+71XdfE/RgncH9ODpzarmKekxFvYCAkDAMQSK9fkBet+m6qHfqoa5ipJU1c2/wRiIagyCjIxA3onDWG5JmTitAiXlLL/tCFbU4xwIv+DCT732Vd3cqerm0wHNnE/zlzQrrf21YySGEwMBIGAvArSallIRKlX14ISAETqfmuoCmnmlops3BPTgvYoeelQ1zBXUYae+Kc88CNPAl2lQtJrwkzTNnJffYRyjJvX8tiO5+J9HZekwjtGiPoU9ZzIqK+KHr/hR9XBOvx3OcRJzPfhEOPe14N00/W79/3Cn49nU56ipYXZSq2r/214mwtmAABAQAoGCUjMvYAQHh1sTdHMXCJ07QofICv507XBO7aDcLdaCAymXhSAdFBIIAAE+ESjW/397ZxtjRXXG8QVjP7Q2tfGeWQTbGKTFAqlarDBndnVXJAiKQneXhfrShrSkxZKaCHNm11pvbSkI1rZUYnFDURvEqDQsiEpXQFtEW+StiWljY2LTxA/2hVjfKzrNs+u1u3K9e1/3zpzz+0Ducu/cuef5nef8n/+cOTPTPUVp8zPlm9dqLFwUNgobOVBeDrzq+eZ2OXpPporQKghAINUExl3QdZpMF3ravI0RYFaAHKh/DvSPxcCskrGZanGh8RCAQDoIZIJwotLmSQpA/QsAfeB0HzwpYzEdqkErIQABewh0dJwkiwmVNscpQk4XIabsy5uyr4Tbu14Q3dLQ0XGSPYJCJBCAQOoIeH44T2nzBiYAE0AO1D4H3p/yX5A6oaDBEICAnQQyQdiKCai9+FNgnWf8pjwwzE4VISoIQCC1BOT6YaWN3CWskqlNvgs/ciB/Dhz3dNSWWoGg4RCAgN0EMn54PQYAA0QOVD8H5HG6dqsH0UEAAmknMMrTUS8FoPoFAKbuMs1os41H6qZdGmk/BBwgIM8kUNoco2C5W7Do+6r2/SuZ5u7THZAOQoQABGwgoLRZRhGoahHgvHj+8+LWc/F0uNQGTSAGCEDAFQJTl5yc0dGLmABMADlQfg542vytYeqSk12RDeKEAAQsIcAsQPnCT9GEneSAp823LZEDwoAABFwiII8TVdq8TjGjmJEDZeXAqzyS1yXFJFYIWEZAabMF8S9L/K0/t01eDJMXgbnHMjkgHAhAwCUCSoftCP0wQu/o4jbyonBeeH403yWtIFYIQMAyAmOau5TS5j3EvrDYwwc+H8qBd3m8r2ViSDgQcJGA0uYvHxI3prc56icHCuSA55vnXNQKYoYABCwjIHcxwwBwhEsOlJADvtlqmQwQDgQg4CKBTGDWIv4liH+BI0M4usExo82tLmoFMUMAApYRUEHYReFyo3DRz1XqZ99ElskA4UAAAi4SUEH4HQpDlQoDswNurB3wzXUuagUxQwAClhHI+NESDAAGgBwoPgdkzFgmA4QDAQi4SAADULzwUyRhJTmAAXBRKYkZAhYSwABQ1DA2peUABsBCISQkCLhIAANQmvhTLOGFAXBRKYkZAhYSwABQ0DA1peUABsBCISQkCLhIAANQmvhTLOGFAXBRKYkZAhYSwABQ0DA1peUABsBCISQkCLhIAANQmvhTLOGFAXBRKYkZAhYSwABQ0DA1peUABsBCISQkCLhIAANQmvhTLOGFAXBRKYkZAhYSsMUAjJ35/fjMth/Hn537w7jxou5U35J2TMuN8ZlfWRmfOX9lLH+n2XRIX0ifSN9IH6U5llzbMQAWCiEhQcBFAmk2AFJQpq/aHF/Zty9edPToB/86Dx6OZ92/K5689I5YBVEqio53YXf8pe5fxXN698SLjhz5IJaFh4/El/Xuic/r3hg3XtiViliE+eTr7ujvA+mLwX1zxW9/H09btTkee8lN6Yglz/MdMAAuKiUxQ8BCAmk1AFLc2585MKS4DC40ub8vfagvHjc7m+hiM75zdTxv91PDxjLv8X3x+AWrEx2LsJ69tW/YWNqfPhBPEoOWp8Am/T0MgIVCSEgQcJFAGg3AuWHPkKPkXLH/qNf5e/fHZyTUBHzumtviBX88OGzBzMUm20645rZEFs4z5mRjYZ1r63CvMrtx7vK7EhlLIROCAXBRKYkZAhYSSJsBkOLXeWjotPJwhUY+n7Ntd+wl7HSAHC237ftD0QUzF2fb756Jx826OVGFU9jO2b635FjkFMFZX12TqFgKFX/5DANgoRASEgRcJJAqAyBFZtvukotMrnCec8OGRBWa5ju2lh1L87oHExVL/6zMoHUYOebFvMq6h7Ss1cAAuKiSxAwBSwmkyQBMuHpt2QVTCtHlDz+RmKI5pvXGuPPZQ2XHs/Dgofj0i7+XmHjm7nyi7FikbyakaBaAGQBLxZCwIOAagTQZAFnxX8wR5Uduc+RILOeph5viHYnPZQHcR7azyCPpSd/6RSJi+cxlP6g4FrkyYCS4V+M3MACuqSTxQsBSAmkyAK0bt1dcaD7/tZ8kotCcf/PdFcdy/k2bEhHLxK/fXnEsrT29iYilGIOAAbBUDAkLAq4RSJMBmHX/YxUXGrk+vRiRr/U2/potFcci+6h1O4vZvzCtdDZD+raY30rCNhgA11SSeCFgKYF0GYBdFReaKcvWJ6LQ2GQAhGnlBmBXIvqlGIOBAbBUDAkLAq4RwADU5972GID/37lRzIPcubGY4puEbTAArqkk8ULAUgIYAAxApUWVGQBLxYGwIAABuwlgADAAGIDScoAZALs1kegg4AwBDEBp4l9pscx9n1MAnAJwRmQIFAIQSCYB5UeLc0Up6a9ynrjSxWYsAqy+4XHtFICMmWSOZloFAQhAoAQCnh/OS3rhz7UPAzD0qDkplwG6ZgAyQXhFCUOMTSEAAQgkk4AKVjTnCmzSXzEAGIAk5KjnG53M0UyrIAABCJRAwJvW3ZgEUS2mDRgADEAxeVLjbd5r1Mu9EoYYm0IAAhBILgGlzfM1Fs2qXOONAcAAJCBP/5zckUzLIAABCJRIwNPmrgQI67AmAQOAAah3nnqB+WWJw4vNIQABCCSXgApMU72FtZjfxwBgAIrJk1pu0xiE05M7kmkZBCAAgTIIKG3+VEvhrMa+MQAYgGrkUdn7CKKjZQwtvgIBCEAg2QSUDtvLFkZd/WvL87UFA4AByJcXI/We50fzkz2KaR0EIACBMgmoIHx0pMS0nN/BAGAAysmbanwnE5i+MocVX4MABCCQfAKeXnGW0ubf1RDMWuwDA4ABqEVeDbdPT5t/NTZF45M/gmkhBCAAgQoIeEE4U2nzznCiWI/PMQAYgDrk3TuNfjijgiHFVyEAAQikh4Dnm2uTaAIwABiAETYA/80E4VXpGbm0FAIQgEAVCDROjy5R2vxnhAW34L0AMAAYgBHLR9+8poKuOVUYSuwCAhCAQPoIyJoAT5vdIya6w1xNgAHAAIxILgbhvtP8rrPTN2JpMQQgAIGqEsiOzgTRN5Q2fx0R8S1gAjAAGIAa5+Dz7z/qd1RVhxA7gwAEIJBuAtnRch200tEOpc1bNRbivKcCMAAYgBrk3VuS0wPX+GdHp3uM0noIQAACNSYwdmr245kmMzejo3uVnCstcNRezc8wABiAKuXTmwNF31z76anmUzUeLuweAhCAgJ0EMkH4yYwfLfICs1lp83KVBJoZgKNDi/2iPP/312zJy6mWfZBv31OWrY/zta+U98Tc5dt3Fd97WXI0o81CyVk7RyNRQQACEKgjgTGBmax0ZOTOaZ42b1dRwGNmAIaaAgxAwVtQH1e+eVbpcLU87Kqhgen9OsoCPw0BCLhGQI60GrW5UmmzbkCMK7vBEAYAA1DAUMrNqw4oHf08E4RXcJTvmtoQLwQgkGgCsnag/9HDvvmuCswDSpt/FBD0E6aEMQAYgEH58srALFOUlfUonMtP9NCncRCAAAROIDDqtOnhF+TSq4wf3qm0earQzYcwAM4agFckN/pzxI8WS840NDRwqd4Jw4k3IAABCKScQCYIx8pRXf9aAh3d6/nmOaXNcQyAEwbgpYFLTcPVcktqWVPC+fuUD2iaDwEIQKASAo1fXP6JaWvvu/qiO7dumnHPI/sv3fr436/s2/dG58FD75Wy2lxWrA+aRq7b37KAr5R259s2rYsApc+k76QPpS+lT7986+arpI8ryRG+CwEIQAACDhHIxvHo1o07zmnd9PDSGXfv7Jl536N7Zz/U9/zch584Nm/v/nc6Dx4eUmgxAAVXzpdliD58GaAwn79n/7uXb9/76qz7H3txxj07n27t2ba5ad2DpnndAxdInzmUooQKAQhAAAJ1IRDHo1o2PHR2y52/WXjxht7spCXrbpBTC/2rxXV0b/9CsoFTDMdGcmYgpTMAbyptXhq4oiPa4elwg6ej7MTFP73lwnUP3qbXbvnmtBt7pjd0ZD9Wl77mRyEAAQhAAALlEFAt2VMyQThRBSuaPR21yTMQPN8sV9qsVDpa33+zI988onS4XwXRUaXNC0qbfyptXi/VPNTRAEhbpc0vDMQQ7lc63DlwI6dovdLRjyTm/th11CYs+pm0ZE8phynfgQAEIAABCFhP4NSW60+VBYyNTdF45UfnZZqiqZ5vtDxaeeDxymG78qMOWdx2jtm4qmVD768H/7uop/eBizfueCTfP/ls8Lbyt+xD9iX7VDpsz/2O/Kb8ttIrzpW2SJukbdZ3AAFCAAIQgAAEIAABCEAAAhCAAAQgAAEIQAACEIAABCAAAQhAAAIQgAAEIAABCEAAAhCAAAQgAAEIQAACEIAABCAAAQhAAAIQgAAEIAABCEAAAhCAAAQgAAEIQKAGBP4HbOXJmttuJ4wAAAAASUVORK5CYII=;" parent="1" vertex="1">
          <mxGeometry x="619" y="200" width="82" height="82" as="geometry" />
        </mxCell>
        <mxCell id="ZZgn1tA-toSKhas2N05g-7" value="" style="endArrow=classic;html=1;rounded=0;fillColor=#d5e8d4;strokeColor=#82b366;endSize=6;startSize=6;strokeWidth=2;" parent="1" edge="1">
          <mxGeometry width="50" height="50" relative="1" as="geometry">
            <mxPoint x="180" y="360" as="sourcePoint" />
            <mxPoint x="660" y="360" as="targetPoint" />
          </mxGeometry>
        </mxCell>
        <mxCell id="wPkDNqUjau9xObqX3euB-2" value="[sessionId].base32(init).base32(filename).base32(checksum).[domain]" style="edgeLabel;html=1;align=center;verticalAlign=middle;resizable=0;points=[];" vertex="1" connectable="0" parent="ZZgn1tA-toSKhas2N05g-7">
          <mxGeometry x="-0.3083" y="1" relative="1" as="geometry">
            <mxPoint x="68" y="-9" as="offset" />
          </mxGeometry>
        </mxCell>
        <mxCell id="ZZgn1tA-toSKhas2N05g-8" value="" style="endArrow=classic;html=1;rounded=0;fillColor=#d5e8d4;strokeColor=#82b366;strokeWidth=2;" parent="1" edge="1">
          <mxGeometry width="50" height="50" relative="1" as="geometry">
            <mxPoint x="660" y="390" as="sourcePoint" />
            <mxPoint x="180" y="390" as="targetPoint" />
          </mxGeometry>
        </mxCell>
        <mxCell id="wPkDNqUjau9xObqX3euB-3" value="&lt;div style=&quot;color: rgb(204, 204, 204); background-color: rgb(31, 31, 31); font-family: &amp;quot;Droid Sans Mono&amp;quot;, &amp;quot;monospace&amp;quot;, monospace; font-size: 14px; line-height: 19px;&quot;&gt;&lt;br&gt;&lt;/div&gt;" style="edgeLabel;html=1;align=center;verticalAlign=middle;resizable=0;points=[];" vertex="1" connectable="0" parent="ZZgn1tA-toSKhas2N05g-8">
          <mxGeometry x="0.0552" y="-1" relative="1" as="geometry">
            <mxPoint x="7" y="-9" as="offset" />
          </mxGeometry>
        </mxCell>
        <mxCell id="wPkDNqUjau9xObqX3euB-4" value="Response with TXT record with content &quot;hndshk&quot;" style="edgeLabel;html=1;align=center;verticalAlign=middle;resizable=0;points=[];" vertex="1" connectable="0" parent="ZZgn1tA-toSKhas2N05g-8">
          <mxGeometry x="0.0234" y="1" relative="1" as="geometry">
            <mxPoint y="-11" as="offset" />
          </mxGeometry>
        </mxCell>
        <mxCell id="ZZgn1tA-toSKhas2N05g-10" value="" style="endArrow=classic;html=1;rounded=0;fillColor=#f8cecc;strokeColor=#b85450;strokeWidth=2;" parent="1" edge="1">
          <mxGeometry width="50" height="50" relative="1" as="geometry">
            <mxPoint x="180" y="620" as="sourcePoint" />
            <mxPoint x="660" y="620" as="targetPoint" />
          </mxGeometry>
        </mxCell>
        <mxCell id="wPkDNqUjau9xObqX3euB-9" value="Query with TXT record: [sessionId].[chunk].base32(end).[domain]" style="edgeLabel;html=1;align=center;verticalAlign=middle;resizable=0;points=[];" vertex="1" connectable="0" parent="ZZgn1tA-toSKhas2N05g-10">
          <mxGeometry x="-0.0571" y="1" relative="1" as="geometry">
            <mxPoint x="8" y="-9" as="offset" />
          </mxGeometry>
        </mxCell>
        <mxCell id="ZZgn1tA-toSKhas2N05g-11" value="" style="endArrow=classic;html=1;rounded=0;fillColor=#ffe6cc;strokeColor=#d79b00;strokeWidth=2;" parent="1" edge="1">
          <mxGeometry width="50" height="50" relative="1" as="geometry">
            <mxPoint x="180" y="440" as="sourcePoint" />
            <mxPoint x="660" y="440" as="targetPoint" />
          </mxGeometry>
        </mxCell>
        <mxCell id="wPkDNqUjau9xObqX3euB-5" value="Query with TXT record: [sessionId].[chunk].base32(data).[domain]" style="edgeLabel;html=1;align=center;verticalAlign=middle;resizable=0;points=[];" vertex="1" connectable="0" parent="ZZgn1tA-toSKhas2N05g-11">
          <mxGeometry x="-0.0452" relative="1" as="geometry">
            <mxPoint x="5" y="-10" as="offset" />
          </mxGeometry>
        </mxCell>
        <mxCell id="wPkDNqUjau9xObqX3euB-1" value="" style="endArrow=classic;html=1;rounded=0;fillColor=#f8cecc;strokeColor=#b85450;strokeWidth=2;" edge="1" parent="1">
          <mxGeometry width="50" height="50" relative="1" as="geometry">
            <mxPoint x="660" y="650" as="sourcePoint" />
            <mxPoint x="180" y="650" as="targetPoint" />
          </mxGeometry>
        </mxCell>
        <mxCell id="wPkDNqUjau9xObqX3euB-10" value="Response with TXT record with content &quot;done&quot;" style="edgeLabel;html=1;align=center;verticalAlign=middle;resizable=0;points=[];" vertex="1" connectable="0" parent="wPkDNqUjau9xObqX3euB-1">
          <mxGeometry x="-0.0222" y="-1" relative="1" as="geometry">
            <mxPoint x="-11" y="-9" as="offset" />
          </mxGeometry>
        </mxCell>
        <mxCell id="wPkDNqUjau9xObqX3euB-6" value="" style="endArrow=classic;html=1;rounded=0;fillColor=#ffe6cc;strokeColor=#d79b00;strokeWidth=2;" edge="1" parent="1">
          <mxGeometry width="50" height="50" relative="1" as="geometry">
            <mxPoint x="660" y="470" as="sourcePoint" />
            <mxPoint x="180" y="470" as="targetPoint" />
          </mxGeometry>
        </mxCell>
        <mxCell id="wPkDNqUjau9xObqX3euB-7" value="&lt;div style=&quot;color: rgb(204, 204, 204); background-color: rgb(31, 31, 31); font-family: &amp;quot;Droid Sans Mono&amp;quot;, &amp;quot;monospace&amp;quot;, monospace; font-size: 14px; line-height: 19px;&quot;&gt;&lt;br&gt;&lt;/div&gt;" style="edgeLabel;html=1;align=center;verticalAlign=middle;resizable=0;points=[];" vertex="1" connectable="0" parent="wPkDNqUjau9xObqX3euB-6">
          <mxGeometry x="0.0552" y="-1" relative="1" as="geometry">
            <mxPoint x="7" y="-9" as="offset" />
          </mxGeometry>
        </mxCell>
        <mxCell id="wPkDNqUjau9xObqX3euB-8" value="Response with TXT record with content &quot;[chunk]&quot;" style="edgeLabel;html=1;align=center;verticalAlign=middle;resizable=0;points=[];" vertex="1" connectable="0" parent="wPkDNqUjau9xObqX3euB-6">
          <mxGeometry x="0.0234" y="1" relative="1" as="geometry">
            <mxPoint y="-11" as="offset" />
          </mxGeometry>
        </mxCell>
        <mxCell id="wPkDNqUjau9xObqX3euB-11" value="" style="endArrow=none;dashed=1;html=1;dashPattern=1 3;strokeWidth=2;rounded=0;" edge="1" parent="1">
          <mxGeometry width="50" height="50" relative="1" as="geometry">
            <mxPoint x="420" y="585" as="sourcePoint" />
            <mxPoint x="420" y="545" as="targetPoint" />
            <Array as="points">
              <mxPoint x="420" y="585" />
              <mxPoint x="420" y="575" />
            </Array>
          </mxGeometry>
        </mxCell>
        <mxCell id="wPkDNqUjau9xObqX3euB-13" value="" style="endArrow=classic;html=1;rounded=0;fillColor=#dae8fc;strokeColor=#6c8ebf;" edge="1" parent="1">
          <mxGeometry width="50" height="50" relative="1" as="geometry">
            <mxPoint x="180" y="400" as="sourcePoint" />
            <mxPoint x="180" y="420" as="targetPoint" />
            <Array as="points">
              <mxPoint x="139" y="400" />
              <mxPoint x="139" y="420" />
            </Array>
          </mxGeometry>
        </mxCell>
        <mxCell id="wPkDNqUjau9xObqX3euB-14" value="&lt;font style=&quot;font-size: 11px;&quot;&gt;- Random size of query&lt;br&gt;&lt;/font&gt;&lt;div style=&quot;font-size: 11px;&quot;&gt;&lt;span style=&quot;background-color: initial;&quot;&gt;&lt;font style=&quot;font-size: 11px;&quot;&gt;- Random delay&lt;/font&gt;&lt;/span&gt;&lt;/div&gt;" style="text;html=1;strokeColor=none;fillColor=none;align=left;verticalAlign=middle;whiteSpace=wrap;rounded=0;" vertex="1" parent="1">
          <mxGeometry x="20" y="400" width="119" height="20" as="geometry" />
        </mxCell>
        <mxCell id="wPkDNqUjau9xObqX3euB-15" value="" style="endArrow=classic;html=1;rounded=0;fillColor=#dae8fc;strokeColor=#6c8ebf;" edge="1" parent="1">
          <mxGeometry width="50" height="50" relative="1" as="geometry">
            <mxPoint x="180" y="480" as="sourcePoint" />
            <mxPoint x="180" y="500" as="targetPoint" />
            <Array as="points">
              <mxPoint x="139" y="480" />
              <mxPoint x="139" y="500" />
            </Array>
          </mxGeometry>
        </mxCell>
        <mxCell id="wPkDNqUjau9xObqX3euB-16" value="&lt;font style=&quot;font-size: 11px;&quot;&gt;- Random size of query&lt;br&gt;&lt;/font&gt;&lt;div style=&quot;font-size: 11px;&quot;&gt;&lt;span style=&quot;background-color: initial;&quot;&gt;&lt;font style=&quot;font-size: 11px;&quot;&gt;- Random delay&lt;/font&gt;&lt;/span&gt;&lt;/div&gt;" style="text;html=1;strokeColor=none;fillColor=none;align=left;verticalAlign=middle;whiteSpace=wrap;rounded=0;" vertex="1" parent="1">
          <mxGeometry x="20" y="480" width="119" height="20" as="geometry" />
        </mxCell>
        <mxCell id="wPkDNqUjau9xObqX3euB-17" value="" style="endArrow=classic;html=1;rounded=0;fillColor=#ffe6cc;strokeColor=#d79b00;strokeWidth=2;" edge="1" parent="1">
          <mxGeometry width="50" height="50" relative="1" as="geometry">
            <mxPoint x="180" y="510" as="sourcePoint" />
            <mxPoint x="660" y="510" as="targetPoint" />
          </mxGeometry>
        </mxCell>
        <mxCell id="wPkDNqUjau9xObqX3euB-18" value="Query with TXT record: [sessionId].[chunk].base32(data).[domain]" style="edgeLabel;html=1;align=center;verticalAlign=middle;resizable=0;points=[];" vertex="1" connectable="0" parent="wPkDNqUjau9xObqX3euB-17">
          <mxGeometry x="-0.0452" relative="1" as="geometry">
            <mxPoint x="5" y="-10" as="offset" />
          </mxGeometry>
        </mxCell>
        <mxCell id="wPkDNqUjau9xObqX3euB-19" value="" style="endArrow=classic;html=1;rounded=0;fillColor=#ffe6cc;strokeColor=#d79b00;strokeWidth=2;" edge="1" parent="1">
          <mxGeometry width="50" height="50" relative="1" as="geometry">
            <mxPoint x="660" y="540" as="sourcePoint" />
            <mxPoint x="180" y="540" as="targetPoint" />
          </mxGeometry>
        </mxCell>
        <mxCell id="wPkDNqUjau9xObqX3euB-20" value="&lt;div style=&quot;color: rgb(204, 204, 204); background-color: rgb(31, 31, 31); font-family: &amp;quot;Droid Sans Mono&amp;quot;, &amp;quot;monospace&amp;quot;, monospace; font-size: 14px; line-height: 19px;&quot;&gt;&lt;br&gt;&lt;/div&gt;" style="edgeLabel;html=1;align=center;verticalAlign=middle;resizable=0;points=[];" vertex="1" connectable="0" parent="wPkDNqUjau9xObqX3euB-19">
          <mxGeometry x="0.0552" y="-1" relative="1" as="geometry">
            <mxPoint x="7" y="-9" as="offset" />
          </mxGeometry>
        </mxCell>
        <mxCell id="wPkDNqUjau9xObqX3euB-21" value="Response with TXT record with content &quot;[chunk]&quot;" style="edgeLabel;html=1;align=center;verticalAlign=middle;resizable=0;points=[];" vertex="1" connectable="0" parent="wPkDNqUjau9xObqX3euB-19">
          <mxGeometry x="0.0234" y="1" relative="1" as="geometry">
            <mxPoint y="-11" as="offset" />
          </mxGeometry>
        </mxCell>
        <mxCell id="wPkDNqUjau9xObqX3euB-22" value="" style="endArrow=classic;html=1;rounded=0;fillColor=#dae8fc;strokeColor=#6c8ebf;" edge="1" parent="1">
          <mxGeometry width="50" height="50" relative="1" as="geometry">
            <mxPoint x="660" y="660" as="sourcePoint" />
            <mxPoint x="660" y="680" as="targetPoint" />
            <Array as="points">
              <mxPoint x="701" y="660" />
              <mxPoint x="701" y="680" />
            </Array>
          </mxGeometry>
        </mxCell>
        <mxCell id="wPkDNqUjau9xObqX3euB-23" value="&lt;font style=&quot;font-size: 11px;&quot;&gt;- Fragments received&lt;br&gt;- Reassemble data&lt;br&gt;&lt;/font&gt;&lt;div style=&quot;font-size: 11px;&quot;&gt;&lt;span style=&quot;background-color: initial;&quot;&gt;&lt;font style=&quot;font-size: 11px;&quot;&gt;- Decode from base32&lt;/font&gt;&lt;/span&gt;&lt;/div&gt;&lt;div style=&quot;font-size: 11px;&quot;&gt;&lt;span style=&quot;background-color: initial;&quot;&gt;&lt;font style=&quot;font-size: 11px;&quot;&gt;- Save file&lt;/font&gt;&lt;/span&gt;&lt;/div&gt;" style="text;html=1;strokeColor=none;fillColor=none;align=left;verticalAlign=middle;whiteSpace=wrap;rounded=0;" vertex="1" parent="1">
          <mxGeometry x="701" y="650" width="119" height="50" as="geometry" />
        </mxCell>
        <mxCell id="wPkDNqUjau9xObqX3euB-24" value="" style="endArrow=classic;html=1;rounded=0;fillColor=#dae8fc;strokeColor=#6c8ebf;" edge="1" parent="1">
          <mxGeometry width="50" height="50" relative="1" as="geometry">
            <mxPoint x="660" y="450" as="sourcePoint" />
            <mxPoint x="660" y="470" as="targetPoint" />
            <Array as="points">
              <mxPoint x="701" y="450" />
              <mxPoint x="701" y="470" />
            </Array>
          </mxGeometry>
        </mxCell>
        <mxCell id="wPkDNqUjau9xObqX3euB-25" value="&lt;font style=&quot;font-size: 11px;&quot;&gt;- Data reception&lt;br&gt;- Storing chunk&lt;br&gt;&lt;/font&gt;" style="text;html=1;strokeColor=none;fillColor=none;align=left;verticalAlign=middle;whiteSpace=wrap;rounded=0;" vertex="1" parent="1">
          <mxGeometry x="701" y="450" width="119" height="20" as="geometry" />
        </mxCell>
      </root>
    </mxGraphModel>
  </diagram>
</mxfile>
